999
"DXF R12 Output" (www.mydxf.blogspot.com)
 0 
SECTION
 2 
HEADER
 9 
$ACADVER
 1 
AC1009
 9 
$EXTMIN
 10 
 0 
 20 
 0 
 9 
$EXTMAX
 10 
 8.5 
 20 
 11 
 0 
ENDSEC
 0 
SECTION
 2 
ENTITIES
0
LINE
8
Calque 1
10
12.999681
20
99.999614
11
-0.000552
21
99.999614
0
LINE
8
Calque 1
10
-0.000552
20
99.999614
11
-0.000552
21
86.999382
0
LINE
8
Calque 1
10
-0.000552
20
86.999382
11
-0.000552
21
12.999856
0
LINE
8
Calque 1
10
-0.000552
20
12.999856
11
-0.000552
21
-0.000351
0
LINE
8
Calque 1
10
-0.000552
20
-0.000351
11
12.999681
21
-0.000351
0
LINE
8
Calque 1
10
12.999681
20
-0.000351
11
86.999207
21
-0.000351
0
LINE
8
Calque 1
10
86.999207
20
-0.000351
11
99.999440
21
-0.000351
0
LINE
8
Calque 1
10
99.999440
20
-0.000351
11
99.999440
21
12.999856
0
LINE
8
Calque 1
10
99.999440
20
12.999856
11
99.999440
21
86.999382
0
LINE
8
Calque 1
10
99.999440
20
86.999382
11
99.999440
21
99.999614
0
LINE
8
Calque 1
10
99.999440
20
99.999614
11
86.999207
21
99.999614
0
LINE
8
Calque 1
10
86.999207
20
99.999614
11
12.999681
21
99.999614
0
LINE
8
Calque 1
10
45.666395
20
94.996297
11
44.917069
21
94.414426
0
LINE
8
Calque 1
10
44.917069
20
94.414426
11
5.217210
21
66.152120
0
LINE
8
Calque 1
10
5.217210
20
66.152120
11
5.058064
21
66.825960
0
LINE
8
Calque 1
10
5.058064
20
66.825960
11
5.245673
21
67.144406
0
LINE
8
Calque 1
10
5.245673
20
67.144406
11
5.868489
21
67.737937
0
LINE
8
Calque 1
10
5.868489
20
67.737937
11
8.807039
21
70.040203
0
LINE
8
Calque 1
10
8.807039
20
70.040203
11
24.166936
21
81.135164
0
LINE
8
Calque 1
10
24.166936
20
81.135164
11
40.046212
21
92.335792
0
LINE
8
Calque 1
10
40.046212
20
92.335792
11
43.155784
21
94.329888
0
LINE
8
Calque 1
10
43.155784
20
94.329888
11
44.466987
21
94.882632
0
LINE
8
Calque 1
10
44.466987
20
94.882632
11
45.666395
21
94.996297
0
LINE
8
Calque 1
10
13.814094
20
94.927585
11
14.123656
21
94.927585
0
LINE
8
Calque 1
10
14.123656
20
94.927585
11
13.408965
21
94.383417
0
LINE
8
Calque 1
10
13.408965
20
94.383417
11
5.835779
21
89.016827
0
LINE
8
Calque 1
10
5.835779
20
89.016827
11
6.719622
21
90.619730
0
LINE
8
Calque 1
10
6.719622
20
90.619730
11
7.871851
21
92.024395
0
LINE
8
Calque 1
10
7.871851
20
92.024395
11
9.867518
21
93.387655
0
LINE
8
Calque 1
10
9.867518
20
93.387655
11
11.723782
21
94.451653
0
LINE
8
Calque 1
10
11.723782
20
94.451653
11
13.814094
21
94.927585
0
LINE
8
Calque 1
10
13.814094
20
94.927585
11
13.814094
21
94.927585
0
LINE
8
Calque 1
10
17.579242
20
94.927585
11
18.620006
21
94.927585
0
LINE
8
Calque 1
10
18.620006
20
94.927585
11
17.904812
21
94.381882
0
LINE
8
Calque 1
10
17.904812
20
94.381882
11
5.424961
21
85.519384
0
LINE
8
Calque 1
10
5.424961
20
85.519384
11
5.141493
21
85.527900
0
LINE
8
Calque 1
10
5.141493
20
85.527900
11
5.050311
21
86.017011
0
LINE
8
Calque 1
10
5.050311
20
86.017011
11
5.054545
21
86.051143
0
LINE
8
Calque 1
10
5.054545
20
86.051143
11
5.064863
21
86.136391
0
LINE
8
Calque 1
10
5.064863
20
86.136391
11
5.397801
21
86.677550
0
LINE
8
Calque 1
10
5.397801
20
86.677550
11
6.328227
21
87.526729
0
LINE
8
Calque 1
10
6.328227
20
87.526729
11
10.794726
21
90.830676
0
LINE
8
Calque 1
10
10.794726
20
90.830676
11
15.639227
21
94.144178
0
LINE
8
Calque 1
10
15.639227
20
94.144178
11
16.822838
21
94.761835
0
LINE
8
Calque 1
10
16.822838
20
94.761835
11
17.579322
21
94.927585
0
LINE
8
Calque 1
10
17.579322
20
94.927585
11
17.579242
21
94.927585
0
LINE
8
Calque 1
10
22.081281
20
94.927585
11
23.010417
21
94.815454
0
LINE
8
Calque 1
10
23.010417
20
94.815454
11
6.024400
21
82.684403
0
LINE
8
Calque 1
10
6.024400
20
82.684403
11
5.050311
21
81.997625
0
LINE
8
Calque 1
10
5.050311
20
81.997625
11
5.050311
21
82.755206
0
LINE
8
Calque 1
10
5.050311
20
82.755206
11
5.336921
21
83.351882
0
LINE
8
Calque 1
10
5.336921
20
83.351882
11
6.480323
21
84.398842
0
LINE
8
Calque 1
10
6.480323
20
84.398842
11
13.038945
21
89.220450
0
LINE
8
Calque 1
10
13.038945
20
89.220450
11
19.753103
21
93.878923
0
LINE
8
Calque 1
10
19.753103
20
93.878923
11
21.240845
21
94.712685
0
LINE
8
Calque 1
10
21.240845
20
94.712685
11
22.081281
21
94.927585
0
LINE
8
Calque 1
10
22.081281
20
94.927585
11
22.081281
21
94.927585
0
LINE
8
Calque 1
10
31.075039
20
94.927585
11
31.075039
21
94.927585
0
LINE
8
Calque 1
10
31.075039
20
94.927585
11
32.002112
21
94.814396
0
LINE
8
Calque 1
10
32.002112
20
94.814396
11
5.168633
21
75.743756
0
LINE
8
Calque 1
10
5.168633
20
75.743756
11
5.105080
21
76.476545
0
LINE
8
Calque 1
10
5.105080
20
76.476545
11
5.697715
21
77.227505
0
LINE
8
Calque 1
10
5.697715
20
77.227505
11
7.670850
21
78.839728
0
LINE
8
Calque 1
10
7.670850
20
78.839728
11
17.611283
21
86.068711
0
LINE
8
Calque 1
10
17.611283
20
86.068711
11
27.984184
21
93.338053
0
LINE
8
Calque 1
10
27.984184
20
93.338053
11
30.083381
21
94.608350
0
LINE
8
Calque 1
10
30.083381
20
94.608350
11
31.074536
21
94.927585
0
LINE
8
Calque 1
10
31.074536
20
94.927585
11
31.075039
21
94.927585
0
LINE
8
Calque 1
10
40.066204
20
94.927585
11
40.995367
21
94.813893
0
LINE
8
Calque 1
10
40.995367
20
94.813893
11
23.334955
21
82.189342
0
LINE
8
Calque 1
10
23.334955
20
82.189342
11
5.399640
21
69.355532
0
LINE
8
Calque 1
10
5.399640
20
69.355532
11
5.100179
21
69.274090
0
LINE
8
Calque 1
10
5.100179
20
69.274090
11
5.099921
21
69.906923
0
LINE
8
Calque 1
10
5.099921
20
69.906923
11
5.238244
21
70.245176
0
LINE
8
Calque 1
10
5.238244
20
70.245176
11
5.675621
21
70.744510
0
LINE
8
Calque 1
10
5.675621
20
70.744510
11
7.985112
21
72.635716
0
LINE
8
Calque 1
10
7.985112
20
72.635716
11
22.106099
21
82.853392
0
LINE
8
Calque 1
10
22.106099
20
82.853392
11
36.208740
21
92.792291
0
LINE
8
Calque 1
10
36.208740
20
92.792291
11
38.925438
21
94.504168
0
LINE
8
Calque 1
10
38.925438
20
94.504168
11
40.066204
21
94.927585
0
LINE
8
Calque 1
10
40.066204
20
94.927585
11
40.066204
21
94.927585
0
LINE
8
Calque 1
10
49.049115
20
94.927585
11
50.093503
21
94.927585
0
LINE
8
Calque 1
10
50.093503
20
94.927585
11
49.378812
21
94.379819
0
LINE
8
Calque 1
10
49.378812
20
94.379819
11
5.402233
21
63.025701
0
LINE
8
Calque 1
10
5.402233
20
63.025701
11
5.113715
21
63.015187
0
LINE
8
Calque 1
10
5.113715
20
63.015187
11
5.102514
21
63.575002
0
LINE
8
Calque 1
10
5.102514
20
63.575002
11
5.310613
21
63.927096
0
LINE
8
Calque 1
10
5.310613
20
63.927096
11
5.961562
21
64.554016
0
LINE
8
Calque 1
10
5.961562
20
64.554016
11
9.123143
21
67.029255
0
LINE
8
Calque 1
10
9.123143
20
67.029255
11
26.602978
21
79.643789
0
LINE
8
Calque 1
10
26.602978
20
79.643789
11
44.398348
21
92.219760
0
LINE
8
Calque 1
10
44.398348
20
92.219760
11
47.753712
21
94.389769
0
LINE
8
Calque 1
10
47.753712
20
94.389769
11
48.582272
21
94.810523
0
LINE
8
Calque 1
10
48.582272
20
94.810523
11
49.049115
21
94.927585
0
LINE
8
Calque 1
10
49.049115
20
94.927585
11
49.049115
21
94.927585
0
LINE
8
Calque 1
10
53.575442
20
94.927585
11
54.658592
21
94.927585
0
LINE
8
Calque 1
10
54.658592
20
94.927585
11
52.879377
21
93.653247
0
LINE
8
Calque 1
10
52.879377
20
93.653247
11
47.265772
21
89.681909
0
LINE
8
Calque 1
10
47.265772
20
89.681909
11
5.399111
21
59.751989
0
LINE
8
Calque 1
10
5.399111
20
59.751989
11
5.100810
21
59.677754
0
LINE
8
Calque 1
10
5.100810
20
59.677754
11
5.099391
21
60.292532
0
LINE
8
Calque 1
10
5.099391
20
60.292532
11
5.099391
21
60.292532
0
LINE
8
Calque 1
10
5.099391
20
60.292532
11
5.288418
21
60.658729
0
LINE
8
Calque 1
10
5.288418
20
60.658729
11
5.909605
21
61.283547
0
LINE
8
Calque 1
10
5.909605
20
61.283547
11
9.172329
21
63.849907
0
LINE
8
Calque 1
10
9.172329
20
63.849907
11
28.846245
21
78.035601
0
LINE
8
Calque 1
10
28.846245
20
78.035601
11
48.645573
21
92.047235
0
LINE
8
Calque 1
10
48.645573
20
92.047235
11
52.231891
21
94.374981
0
LINE
8
Calque 1
10
52.231891
20
94.374981
11
53.091850
21
94.810022
0
LINE
8
Calque 1
10
53.091850
20
94.810022
11
53.575442
21
94.927056
0
LINE
8
Calque 1
10
53.575442
20
94.927056
11
53.575442
21
94.927585
0
LINE
8
Calque 1
10
58.053721
20
94.927585
11
59.085701
21
94.927585
0
LINE
8
Calque 1
10
59.085701
20
94.927585
11
58.371009
21
94.384449
0
LINE
8
Calque 1
10
58.371009
20
94.384449
11
54.074604
21
91.308446
0
LINE
8
Calque 1
10
54.074604
20
91.308446
11
49.562776
21
88.339362
0
LINE
8
Calque 1
10
49.562776
20
88.339362
11
46.954520
21
86.599487
0
LINE
8
Calque 1
10
46.954520
20
86.599487
11
44.892780
21
85.031043
0
LINE
8
Calque 1
10
44.892780
20
85.031043
11
38.802956
21
80.404624
0
LINE
8
Calque 1
10
38.802956
20
80.404624
11
30.678694
21
74.745379
0
LINE
8
Calque 1
10
30.678694
20
74.745379
11
25.582878
21
71.110987
0
LINE
8
Calque 1
10
25.582878
20
71.110987
11
14.567018
21
63.067029
0
LINE
8
Calque 1
10
14.567018
20
63.067029
11
6.490271
21
57.424476
0
LINE
8
Calque 1
10
6.490271
20
57.424476
11
5.298602
21
56.815962
0
LINE
8
Calque 1
10
5.298602
20
56.815962
11
5.106022
21
56.870994
0
LINE
8
Calque 1
10
5.106022
20
56.870994
11
5.064784
21
57.091687
0
LINE
8
Calque 1
10
5.064784
20
57.091687
11
5.327949
21
57.705275
0
LINE
8
Calque 1
10
5.327949
20
57.705275
11
6.425009
21
58.727332
0
LINE
8
Calque 1
10
6.425009
20
58.727332
11
13.082892
21
63.585876
0
LINE
8
Calque 1
10
13.082892
20
63.585876
11
25.133299
21
72.198767
0
LINE
8
Calque 1
10
25.133299
20
72.198767
11
36.523809
21
80.397745
0
LINE
8
Calque 1
10
36.523809
20
80.397745
11
45.965585
21
87.168371
0
LINE
8
Calque 1
10
45.965585
20
87.168371
11
54.834943
21
93.347865
0
LINE
8
Calque 1
10
54.834943
20
93.347865
11
56.940381
21
94.577665
0
LINE
8
Calque 1
10
56.940381
20
94.577665
11
58.053721
21
94.927585
0
LINE
8
Calque 1
10
58.053721
20
94.927585
11
58.053721
21
94.927585
0
LINE
8
Calque 1
10
62.563009
20
94.927585
11
63.620812
21
94.927585
0
LINE
8
Calque 1
10
63.620812
20
94.927585
11
61.687610
21
93.511642
0
LINE
8
Calque 1
10
61.687610
20
93.511642
11
56.227381
21
89.777262
0
LINE
8
Calque 1
10
56.227381
20
89.777262
11
50.453680
21
86.085247
0
LINE
8
Calque 1
10
50.453680
20
86.085247
11
48.237635
21
84.549462
0
LINE
8
Calque 1
10
48.237635
20
84.549462
11
45.712882
21
82.540761
0
LINE
8
Calque 1
10
45.712882
20
82.540761
11
42.929194
21
80.267508
0
LINE
8
Calque 1
10
42.929194
20
80.267508
11
39.888388
21
77.986901
0
LINE
8
Calque 1
10
39.888388
20
77.986901
11
32.987075
21
73.368727
0
LINE
8
Calque 1
10
32.987075
20
73.368727
11
29.487882
21
71.017927
0
LINE
8
Calque 1
10
29.487882
20
71.017927
11
26.672722
21
68.867191
0
LINE
8
Calque 1
10
26.672722
20
68.867191
11
15.287878
21
60.390954
0
LINE
8
Calque 1
10
15.287878
20
60.390954
11
8.403002
21
55.448012
0
LINE
8
Calque 1
10
8.403002
20
55.448012
11
5.170194
21
53.262483
0
LINE
8
Calque 1
10
5.170194
20
53.262483
11
5.105080
21
53.994213
0
LINE
8
Calque 1
10
5.105080
20
53.994213
11
5.588851
21
54.664787
0
LINE
8
Calque 1
10
5.588851
20
54.664787
11
7.158519
21
55.988127
0
LINE
8
Calque 1
10
7.158519
20
55.988127
11
14.941694
21
61.675375
0
LINE
8
Calque 1
10
14.941694
20
61.675375
11
22.350183
21
67.042144
0
LINE
8
Calque 1
10
22.350183
20
67.042144
11
26.482037
21
70.185979
0
LINE
8
Calque 1
10
26.482037
20
70.185979
11
28.631592
21
71.838412
0
LINE
8
Calque 1
10
28.631592
20
71.838412
11
31.274006
21
73.619869
0
LINE
8
Calque 1
10
31.274006
20
73.619869
11
38.863357
21
78.779195
0
LINE
8
Calque 1
10
38.863357
20
78.779195
11
42.530346
21
81.491472
0
LINE
8
Calque 1
10
42.530346
20
81.491472
11
45.216286
21
83.647671
0
LINE
8
Calque 1
10
45.216286
20
83.647671
11
47.722344
21
85.585152
0
LINE
8
Calque 1
10
47.722344
20
85.585152
11
50.590628
21
87.493940
0
LINE
8
Calque 1
10
50.590628
20
87.493940
11
57.610862
21
92.155152
0
LINE
8
Calque 1
10
57.610862
20
92.155152
11
60.945286
21
94.380668
0
LINE
8
Calque 1
10
60.945286
20
94.380668
11
61.870872
21
94.809130
0
LINE
8
Calque 1
10
61.870872
20
94.809130
11
62.563009
21
94.927585
0
LINE
8
Calque 1
10
62.563009
20
94.927585
11
62.563009
21
94.927585
0
LINE
8
Calque 1
10
67.042823
20
94.927585
11
67.972488
21
94.812332
0
LINE
8
Calque 1
10
67.972488
20
94.812332
11
61.186079
21
90.009384
0
LINE
8
Calque 1
10
61.186079
20
90.009384
11
53.964062
21
85.265649
0
LINE
8
Calque 1
10
53.964062
20
85.265649
11
51.984792
21
84.059911
0
LINE
8
Calque 1
10
51.984792
20
84.059911
11
49.479919
21
82.296981
0
LINE
8
Calque 1
10
49.479919
20
82.296981
11
43.965708
21
77.890397
0
LINE
8
Calque 1
10
43.965708
20
77.890397
11
41.291604
21
75.888156
0
LINE
8
Calque 1
10
41.291604
20
75.888156
11
37.671014
21
73.504617
0
LINE
8
Calque 1
10
37.671014
20
73.504617
11
31.414235
21
69.448559
0
LINE
8
Calque 1
10
31.414235
20
69.448559
11
29.202965
21
67.787124
0
LINE
8
Calque 1
10
29.202965
20
67.787124
11
27.019987
21
65.956778
0
LINE
8
Calque 1
10
27.019987
20
65.956778
11
16.363206
21
57.959734
0
LINE
8
Calque 1
10
16.363206
20
57.959734
11
5.424961
21
50.160353
0
LINE
8
Calque 1
10
5.424961
20
50.160353
11
5.139906
21
50.161947
0
LINE
8
Calque 1
10
5.139906
20
50.161947
11
5.050311
21
50.668326
0
LINE
8
Calque 1
10
5.050311
20
50.668326
11
5.411035
21
51.305509
0
LINE
8
Calque 1
10
5.411035
20
51.305509
11
6.827866
21
52.541047
0
LINE
8
Calque 1
10
6.827866
20
52.541047
11
14.837819
21
58.391345
0
LINE
8
Calque 1
10
14.837819
20
58.391345
11
22.549427
21
64.016766
0
LINE
8
Calque 1
10
22.549427
20
64.016766
11
27.345557
21
67.733400
0
LINE
8
Calque 1
10
27.345557
20
67.733400
11
29.928889
21
69.801401
0
LINE
8
Calque 1
10
29.928889
20
69.801401
11
32.320431
21
71.462883
0
LINE
8
Calque 1
10
32.320431
20
71.462883
11
39.895869
21
76.418502
0
LINE
8
Calque 1
10
39.895869
20
76.418502
11
43.144088
21
78.775134
0
LINE
8
Calque 1
10
43.144088
20
78.775134
11
45.516006
21
80.689712
0
LINE
8
Calque 1
10
45.516006
20
80.689712
11
47.536244
21
82.400562
0
LINE
8
Calque 1
10
47.536244
20
82.400562
11
49.574051
21
83.934707
0
LINE
8
Calque 1
10
49.574051
20
83.934707
11
54.508732
21
87.042800
0
LINE
8
Calque 1
10
54.508732
20
87.042800
11
57.620116
21
89.025628
0
LINE
8
Calque 1
10
57.620116
20
89.025628
11
61.522748
21
91.722611
0
LINE
8
Calque 1
10
61.522748
20
91.722611
11
65.328530
21
94.307591
0
LINE
8
Calque 1
10
65.328530
20
94.307591
11
66.330084
21
94.795242
0
LINE
8
Calque 1
10
66.330084
20
94.795242
11
67.042823
21
94.927585
0
LINE
8
Calque 1
10
67.042823
20
94.927585
11
67.042823
21
94.927585
0
LINE
8
Calque 1
10
71.539199
20
94.927585
11
72.468838
21
94.812332
0
LINE
8
Calque 1
10
72.468838
20
94.812332
11
63.629282
21
88.507958
0
LINE
8
Calque 1
10
63.629282
20
88.507958
11
54.507171
21
82.367115
0
LINE
8
Calque 1
10
54.507171
20
82.367115
11
52.484331
21
81.198215
0
LINE
8
Calque 1
10
52.484331
20
81.198215
11
50.286126
21
79.737045
0
LINE
8
Calque 1
10
50.286126
20
79.737045
11
45.965585
21
76.360790
0
LINE
8
Calque 1
10
45.965585
20
76.360790
11
43.427338
21
74.414779
0
LINE
8
Calque 1
10
43.427338
20
74.414779
11
40.270859
21
72.310395
0
LINE
8
Calque 1
10
40.270859
20
72.310395
11
33.767462
21
67.937595
0
LINE
8
Calque 1
10
33.767462
20
67.937595
11
30.781590
21
65.679824
0
LINE
8
Calque 1
10
30.781590
20
65.679824
11
28.280381
21
63.597756
0
LINE
8
Calque 1
10
28.280381
20
63.597756
11
23.804761
21
60.145986
0
LINE
8
Calque 1
10
23.804761
20
60.145986
11
15.990713
21
54.464457
0
LINE
8
Calque 1
10
15.990713
20
54.464457
11
5.399111
21
46.873729
0
LINE
8
Calque 1
10
5.399111
20
46.873729
11
5.099689
21
46.792634
0
LINE
8
Calque 1
10
5.099689
20
46.792634
11
5.099391
21
47.424088
0
LINE
8
Calque 1
10
5.099391
20
47.424088
11
5.479002
21
48.117399
0
LINE
8
Calque 1
10
5.479002
20
48.117399
11
6.893922
21
49.370189
0
LINE
8
Calque 1
10
6.893922
20
49.370189
11
15.282741
21
55.500061
0
LINE
8
Calque 1
10
15.282741
20
55.500061
11
23.023289
21
61.139535
0
LINE
8
Calque 1
10
23.023289
20
61.139535
11
27.475255
21
64.581158
0
LINE
8
Calque 1
10
27.475255
20
64.581158
11
29.883104
21
66.565756
0
LINE
8
Calque 1
10
29.883104
20
66.565756
11
32.862006
21
68.779892
0
LINE
8
Calque 1
10
32.862006
20
68.779892
11
36.114017
21
71.010934
0
LINE
8
Calque 1
10
36.114017
20
71.010934
11
39.341194
21
73.046253
0
LINE
8
Calque 1
10
39.341194
20
73.046253
11
42.441621
21
75.110206
0
LINE
8
Calque 1
10
42.441621
20
75.110206
11
45.328946
21
77.336440
0
LINE
8
Calque 1
10
45.328946
20
77.336440
11
49.979514
21
81.032565
0
LINE
8
Calque 1
10
49.979514
20
81.032565
11
54.576942
21
83.942204
0
LINE
8
Calque 1
10
54.576942
20
83.942204
11
58.468055
21
86.440844
0
LINE
8
Calque 1
10
58.468055
20
86.440844
11
63.920532
21
90.226051
0
LINE
8
Calque 1
10
63.920532
20
90.226051
11
69.458611
21
94.051921
0
LINE
8
Calque 1
10
69.458611
20
94.051921
11
70.748981
21
94.746134
0
LINE
8
Calque 1
10
70.748981
20
94.746134
11
71.539199
21
94.927585
0
LINE
8
Calque 1
10
71.539199
20
94.927585
11
71.539199
21
94.927585
0
LINE
8
Calque 1
10
76.035549
20
94.927585
11
76.964685
21
94.812861
0
LINE
8
Calque 1
10
76.964685
20
94.812861
11
73.142585
21
91.998983
0
LINE
8
Calque 1
10
73.142585
20
91.998983
11
65.802209
21
86.843972
0
LINE
8
Calque 1
10
65.802209
20
86.843972
11
58.369784
21
81.729591
0
LINE
8
Calque 1
10
58.369784
20
81.729591
11
54.271533
21
79.037603
0
LINE
8
Calque 1
10
54.271533
20
79.037603
11
51.801975
21
77.535512
0
LINE
8
Calque 1
10
51.801975
20
77.535512
11
49.222761
21
75.713779
0
LINE
8
Calque 1
10
49.222761
20
75.713779
11
43.567802
21
71.650472
0
LINE
8
Calque 1
10
43.567802
20
71.650472
11
37.537016
21
67.404649
0
LINE
8
Calque 1
10
37.537016
20
67.404649
11
32.693044
21
63.556931
0
LINE
8
Calque 1
10
32.693044
20
63.556931
11
27.492288
21
59.620907
0
LINE
8
Calque 1
10
27.492288
20
59.620907
11
18.254667
21
52.876965
0
LINE
8
Calque 1
10
18.254667
20
52.876965
11
9.368056
21
46.501353
0
LINE
8
Calque 1
10
9.368056
20
46.501353
11
5.220332
21
43.670317
0
LINE
8
Calque 1
10
5.220332
20
43.670317
11
5.057032
21
44.344686
0
LINE
8
Calque 1
10
5.057032
20
44.344686
11
5.057032
21
44.344686
0
LINE
8
Calque 1
10
5.057032
20
44.344686
11
5.557433
21
45.032956
0
LINE
8
Calque 1
10
5.557433
20
45.032956
11
7.346974
21
46.513308
0
LINE
8
Calque 1
10
7.346974
20
46.513308
11
16.578272
21
53.225785
0
LINE
8
Calque 1
10
16.578272
20
53.225785
11
25.529945
21
59.722620
0
LINE
8
Calque 1
10
25.529945
20
59.722620
11
30.883851
21
63.818921
0
LINE
8
Calque 1
10
30.883851
20
63.818921
11
36.533201
21
68.211210
0
LINE
8
Calque 1
10
36.533201
20
68.211210
11
42.368923
21
72.142967
0
LINE
8
Calque 1
10
42.368923
20
72.142967
11
44.334924
21
73.452765
0
LINE
8
Calque 1
10
44.334924
20
73.452765
11
46.115445
21
74.821340
0
LINE
8
Calque 1
10
46.115445
20
74.821340
11
50.018471
21
77.858254
0
LINE
8
Calque 1
10
50.018471
20
77.858254
11
54.508732
21
80.698496
0
LINE
8
Calque 1
10
54.508732
20
80.698496
11
59.276266
21
83.810832
0
LINE
8
Calque 1
10
59.276266
20
83.810832
11
66.318844
21
88.726923
0
LINE
8
Calque 1
10
66.318844
20
88.726923
11
73.593061
21
93.795824
0
LINE
8
Calque 1
10
73.593061
20
93.795824
11
75.172198
21
94.696598
0
LINE
8
Calque 1
10
75.172198
20
94.696598
11
76.035549
21
94.927056
0
LINE
8
Calque 1
10
76.035549
20
94.927056
11
76.035549
21
94.927585
0
LINE
8
Calque 1
10
80.533989
20
94.927585
11
81.461061
21
94.812861
0
LINE
8
Calque 1
10
81.461061
20
94.812861
11
68.196401
21
85.343257
0
LINE
8
Calque 1
10
68.196401
20
85.343257
11
54.334584
21
75.844007
0
LINE
8
Calque 1
10
54.334584
20
75.844007
11
50.755385
21
73.569099
0
LINE
8
Calque 1
10
50.755385
20
73.569099
11
45.946376
21
70.223959
0
LINE
8
Calque 1
10
45.946376
20
70.223959
11
41.089485
21
66.654149
0
LINE
8
Calque 1
10
41.089485
20
66.654149
11
37.366638
21
63.705230
0
LINE
8
Calque 1
10
37.366638
20
63.705230
11
21.341924
21
51.887666
0
LINE
8
Calque 1
10
21.341924
20
51.887666
11
10.952551
21
44.409937
0
LINE
8
Calque 1
10
10.952551
20
44.409937
11
5.424961
21
40.557842
0
LINE
8
Calque 1
10
5.424961
20
40.557842
11
5.141454
21
40.565373
0
LINE
8
Calque 1
10
5.141454
20
40.565373
11
5.050311
21
41.052903
0
LINE
8
Calque 1
10
5.050311
20
41.052903
11
5.562339
21
41.783388
0
LINE
8
Calque 1
10
5.562339
20
41.783388
11
7.533221
21
43.407622
0
LINE
8
Calque 1
10
7.533221
20
43.407622
11
18.460330
21
51.337535
0
LINE
8
Calque 1
10
18.460330
20
51.337535
11
28.944928
21
58.938628
0
LINE
8
Calque 1
10
28.944928
20
58.938628
11
35.321279
21
63.776561
0
LINE
8
Calque 1
10
35.321279
20
63.776561
11
41.919317
21
68.856343
0
LINE
8
Calque 1
10
41.919317
20
68.856343
11
48.663617
21
73.666885
0
LINE
8
Calque 1
10
48.663617
20
73.666885
11
51.874792
21
75.869178
0
LINE
8
Calque 1
10
51.874792
20
75.869178
11
54.544371
21
77.510589
0
LINE
8
Calque 1
10
54.544371
20
77.510589
11
59.484649
21
80.763501
0
LINE
8
Calque 1
10
59.484649
20
80.763501
11
68.154891
21
86.840235
0
LINE
8
Calque 1
10
68.154891
20
86.840235
11
77.629767
21
93.469964
0
LINE
8
Calque 1
10
77.629767
20
93.469964
11
79.579430
21
94.633707
0
LINE
8
Calque 1
10
79.579430
20
94.633707
11
80.533989
21
94.927585
0
LINE
8
Calque 1
10
80.533989
20
94.927585
11
80.533989
21
94.927585
0
LINE
8
Calque 1
10
85.032403
20
94.927585
11
85.957411
21
94.814396
0
LINE
8
Calque 1
10
85.957411
20
94.814396
11
72.643516
21
85.295626
0
LINE
8
Calque 1
10
72.643516
20
85.295626
11
59.709257
21
76.169440
0
LINE
8
Calque 1
10
59.709257
20
76.169440
11
56.473397
21
74.028335
0
LINE
8
Calque 1
10
56.473397
20
74.028335
11
54.059153
21
72.590985
0
LINE
8
Calque 1
10
54.059153
20
72.590985
11
51.581719
21
71.012880
0
LINE
8
Calque 1
10
51.581719
20
71.012880
11
48.242487
21
68.659603
0
LINE
8
Calque 1
10
48.242487
20
68.659603
11
41.913655
21
63.761057
0
LINE
8
Calque 1
10
41.913655
20
63.761057
11
35.019641
21
58.555244
0
LINE
8
Calque 1
10
35.019641
20
58.555244
11
22.435796
21
49.454445
0
LINE
8
Calque 1
10
22.435796
20
49.454445
11
5.424961
21
37.291380
0
LINE
8
Calque 1
10
5.424961
20
37.291380
11
5.133536
21
37.238602
0
LINE
8
Calque 1
10
5.133536
20
37.238602
11
5.050311
21
37.776096
0
LINE
8
Calque 1
10
5.050311
20
37.776096
11
5.160447
21
38.082927
0
LINE
8
Calque 1
10
5.160447
20
38.082927
11
5.569091
21
38.553956
0
LINE
8
Calque 1
10
5.569091
20
38.553956
11
7.751343
21
40.346844
0
LINE
8
Calque 1
10
7.751343
20
40.346844
11
20.861738
21
49.843568
0
LINE
8
Calque 1
10
20.861738
20
49.843568
11
32.997297
21
58.629440
0
LINE
8
Calque 1
10
32.997297
20
58.629440
11
39.970611
21
63.893348
0
LINE
8
Calque 1
10
39.970611
20
63.893348
11
43.588351
21
66.754576
0
LINE
8
Calque 1
10
43.588351
20
66.754576
11
47.781071
21
69.840579
0
LINE
8
Calque 1
10
47.781071
20
69.840579
11
51.702959
21
72.547507
0
LINE
8
Calque 1
10
51.702959
20
72.547507
11
54.508203
21
74.271511
0
LINE
8
Calque 1
10
54.508203
20
74.271511
11
59.927002
21
77.877224
0
LINE
8
Calque 1
10
59.927002
20
77.877224
11
70.219380
21
85.110629
0
LINE
8
Calque 1
10
70.219380
20
85.110629
11
81.705682
21
93.169417
0
LINE
8
Calque 1
10
81.705682
20
93.169417
11
83.995109
21
94.575052
0
LINE
8
Calque 1
10
83.995109
20
94.575052
11
85.032403
21
94.927585
0
LINE
8
Calque 1
10
85.032403
20
94.927585
11
85.032403
21
94.927585
0
LINE
8
Calque 1
10
27.125926
20
94.920970
11
27.531585
21
94.849665
0
LINE
8
Calque 1
10
27.531585
20
94.849665
11
16.216031
21
86.729745
0
LINE
8
Calque 1
10
16.216031
20
86.729745
11
6.754094
21
80.096715
0
LINE
8
Calque 1
10
6.754094
20
80.096715
11
5.345974
21
79.333562
0
LINE
8
Calque 1
10
5.345974
20
79.333562
11
5.115527
21
79.361122
0
LINE
8
Calque 1
10
5.115527
20
79.361122
11
5.064784
21
79.574124
0
LINE
8
Calque 1
10
5.064784
20
79.574124
11
5.388543
21
80.232721
0
LINE
8
Calque 1
10
5.388543
20
80.232721
11
6.761475
21
81.453189
0
LINE
8
Calque 1
10
6.761475
20
81.453189
11
15.181459
21
87.579824
0
LINE
8
Calque 1
10
15.181459
20
87.579824
11
23.622854
21
93.449482
0
LINE
8
Calque 1
10
23.622854
20
93.449482
11
25.481439
21
94.546820
0
LINE
8
Calque 1
10
25.481439
20
94.546820
11
26.482566
21
94.882738
0
LINE
8
Calque 1
10
26.482566
20
94.882738
11
27.125926
21
94.920441
0
LINE
8
Calque 1
10
27.125926
20
94.920441
11
27.125926
21
94.920970
0
LINE
8
Calque 1
10
36.118653
20
94.920970
11
36.523809
21
94.849136
0
LINE
8
Calque 1
10
36.523809
20
94.849136
11
5.424961
21
72.642261
0
LINE
8
Calque 1
10
5.424961
20
72.642261
11
5.139906
21
72.642996
0
LINE
8
Calque 1
10
5.139906
20
72.642996
11
5.050311
21
73.147641
0
LINE
8
Calque 1
10
5.050311
20
73.147641
11
5.166369
21
73.442598
0
LINE
8
Calque 1
10
5.166369
20
73.442598
11
5.578691
21
73.905292
0
LINE
8
Calque 1
10
5.578691
20
73.905292
11
7.677035
21
75.628348
0
LINE
8
Calque 1
10
7.677035
20
75.628348
11
19.662834
21
84.326273
0
LINE
8
Calque 1
10
19.662834
20
84.326273
11
31.835626
21
92.890249
0
LINE
8
Calque 1
10
31.835626
20
92.890249
11
34.318170
21
94.438357
0
LINE
8
Calque 1
10
34.318170
20
94.438357
11
35.474763
21
94.882738
0
LINE
8
Calque 1
10
35.474763
20
94.882738
11
36.118653
21
94.920970
0
LINE
8
Calque 1
10
36.118653
20
94.920970
11
36.118653
21
94.920970
0
LINE
8
Calque 1
10
88.272513
20
94.452790
11
89.380454
21
93.996993
0
LINE
8
Calque 1
10
89.380454
20
93.996993
11
73.591821
21
82.795316
0
LINE
8
Calque 1
10
73.591821
20
82.795316
11
59.441247
21
73.052550
0
LINE
8
Calque 1
10
59.441247
20
73.052550
11
55.136056
21
70.271573
0
LINE
8
Calque 1
10
55.136056
20
70.271573
11
50.910089
21
67.353866
0
LINE
8
Calque 1
10
50.910089
20
67.353866
11
46.871273
21
64.376384
0
LINE
8
Calque 1
10
46.871273
20
64.376384
11
43.127536
21
61.416084
0
LINE
8
Calque 1
10
43.127536
20
61.416084
11
35.433634
21
55.632174
0
LINE
8
Calque 1
10
35.433634
20
55.632174
11
22.210477
21
46.061486
0
LINE
8
Calque 1
10
22.210477
20
46.061486
11
7.711702
21
35.821634
0
LINE
8
Calque 1
10
7.711702
20
35.821634
11
5.517939
21
34.495494
0
LINE
8
Calque 1
10
5.517939
20
34.495494
11
5.150348
21
34.423862
0
LINE
8
Calque 1
10
5.150348
20
34.423862
11
5.065287
21
34.610519
0
LINE
8
Calque 1
10
5.065287
20
34.610519
11
5.065287
21
34.610519
0
LINE
8
Calque 1
10
5.065287
20
34.610519
11
5.179569
21
34.934092
0
LINE
8
Calque 1
10
5.179569
20
34.934092
11
5.607983
21
35.428051
0
LINE
8
Calque 1
10
5.607983
20
35.428051
11
7.982516
21
37.363260
0
LINE
8
Calque 1
10
7.982516
20
37.363260
11
22.829575
21
48.075836
0
LINE
8
Calque 1
10
22.829575
20
48.075836
11
36.155909
21
57.687127
0
LINE
8
Calque 1
10
36.155909
20
57.687127
11
43.272210
21
63.033030
0
LINE
8
Calque 1
10
43.272210
20
63.033030
11
46.259542
21
65.431471
0
LINE
8
Calque 1
10
46.259542
20
65.431471
11
49.917800
21
68.129511
0
LINE
8
Calque 1
10
49.917800
20
68.129511
11
53.752658
21
70.774632
0
LINE
8
Calque 1
10
53.752658
20
70.774632
11
57.269788
21
73.014318
0
LINE
8
Calque 1
10
57.269788
20
73.014318
11
63.637623
21
77.305074
0
LINE
8
Calque 1
10
63.637623
20
77.305074
11
74.469244
21
84.929337
0
LINE
8
Calque 1
10
74.469244
20
84.929337
11
83.989298
21
91.660577
0
LINE
8
Calque 1
10
83.989298
20
91.660577
11
88.272513
21
94.452261
0
LINE
8
Calque 1
10
88.272513
20
94.452261
11
88.272513
21
94.452790
0
LINE
8
Calque 1
10
90.742130
20
93.193931
11
91.707964
21
92.427064
0
LINE
8
Calque 1
10
91.707964
20
92.427064
11
76.056967
21
81.376427
0
LINE
8
Calque 1
10
76.056967
20
81.376427
11
63.937597
21
73.054640
0
LINE
8
Calque 1
10
63.937597
20
73.054640
11
58.756721
21
69.642604
0
LINE
8
Calque 1
10
58.756721
20
69.642604
11
52.426477
21
65.217484
0
LINE
8
Calque 1
10
52.426477
20
65.217484
11
46.101372
21
60.603833
0
LINE
8
Calque 1
10
46.101372
20
60.603833
11
40.935915
21
56.626206
0
LINE
8
Calque 1
10
40.935915
20
56.626206
11
33.845023
21
51.329255
0
LINE
8
Calque 1
10
33.845023
20
51.329255
11
21.823329
21
42.584918
0
LINE
8
Calque 1
10
21.823329
20
42.584918
11
10.415982
21
34.399996
0
LINE
8
Calque 1
10
10.415982
20
34.399996
11
5.168130
21
30.781288
0
LINE
8
Calque 1
10
5.168130
20
30.781288
11
5.105080
21
31.513019
0
LINE
8
Calque 1
10
5.105080
20
31.513019
11
5.849306
21
32.372263
0
LINE
8
Calque 1
10
5.849306
20
32.372263
11
8.376989
21
34.378936
0
LINE
8
Calque 1
10
8.376989
20
34.378936
11
21.236891
21
43.686959
0
LINE
8
Calque 1
10
21.236891
20
43.686959
11
33.828511
21
52.786511
0
LINE
8
Calque 1
10
33.828511
20
52.786511
11
41.582927
21
58.595576
0
LINE
8
Calque 1
10
41.582927
20
58.595576
11
46.422982
21
62.326367
0
LINE
8
Calque 1
10
46.422982
20
62.326367
11
52.118575
21
66.487241
0
LINE
8
Calque 1
10
52.118575
20
66.487241
11
57.590599
21
70.307100
0
LINE
8
Calque 1
10
57.590599
20
70.307100
11
61.759947
21
73.014847
0
LINE
8
Calque 1
10
61.759947
20
73.014847
11
68.132147
21
77.305603
0
LINE
8
Calque 1
10
68.132147
20
77.305603
11
78.965594
21
84.929866
0
LINE
8
Calque 1
10
78.965594
20
84.929866
11
90.742130
21
93.193931
0
LINE
8
Calque 1
10
90.742130
20
93.193931
11
90.742130
21
93.193931
0
LINE
8
Calque 1
10
92.700653
20
91.391989
11
93.379176
21
90.469044
0
LINE
8
Calque 1
10
93.379176
20
90.469044
11
80.333564
21
81.170866
0
LINE
8
Calque 1
10
80.333564
20
81.170866
11
67.906342
21
72.709439
0
LINE
8
Calque 1
10
67.906342
20
72.709439
11
63.354939
21
69.744614
0
LINE
8
Calque 1
10
63.354939
20
69.744614
11
59.064005
21
66.748040
0
LINE
8
Calque 1
10
59.064005
20
66.748040
11
49.113197
21
59.607924
0
LINE
8
Calque 1
10
49.113197
20
59.607924
11
43.488189
21
55.506361
0
LINE
8
Calque 1
10
43.488189
20
55.506361
11
38.172266
21
51.432203
0
LINE
8
Calque 1
10
38.172266
20
51.432203
11
21.281774
21
38.979340
0
LINE
8
Calque 1
10
21.281774
20
38.979340
11
5.424961
21
27.680190
0
LINE
8
Calque 1
10
5.424961
20
27.680190
11
5.139876
21
27.680703
0
LINE
8
Calque 1
10
5.139876
20
27.680703
11
5.050311
21
28.186100
0
LINE
8
Calque 1
10
5.050311
20
28.186100
11
5.050311
21
28.186100
0
LINE
8
Calque 1
10
5.050311
20
28.186100
11
5.168992
21
28.483497
0
LINE
8
Calque 1
10
5.168992
20
28.483497
11
5.591669
21
28.953589
0
LINE
8
Calque 1
10
5.591669
20
28.953589
11
7.748807
21
30.716740
0
LINE
8
Calque 1
10
7.748807
20
30.716740
11
20.108815
21
39.669108
0
LINE
8
Calque 1
10
20.108815
20
39.669108
11
32.076294
21
48.325618
0
LINE
8
Calque 1
10
32.076294
20
48.325618
11
39.703435
21
54.048056
0
LINE
8
Calque 1
10
39.703435
20
54.048056
11
45.626078
21
58.552686
0
LINE
8
Calque 1
10
45.626078
20
58.552686
11
53.484988
21
64.256922
0
LINE
8
Calque 1
10
53.484988
20
64.256922
11
61.093797
21
69.599322
0
LINE
8
Calque 1
10
61.093797
20
69.599322
11
66.266139
21
73.018445
0
LINE
8
Calque 1
10
66.266139
20
73.018445
11
72.249809
21
77.035252
0
LINE
8
Calque 1
10
72.249809
20
77.035252
11
82.144718
21
83.995042
0
LINE
8
Calque 1
10
82.144718
20
83.995042
11
92.700653
21
91.391459
0
LINE
8
Calque 1
10
92.700653
20
91.391459
11
92.700653
21
91.391989
0
LINE
8
Calque 1
10
94.056641
20
89.253629
11
94.436979
21
88.319836
0
LINE
8
Calque 1
10
94.436979
20
88.319836
11
91.622765
21
86.061299
0
LINE
8
Calque 1
10
91.622765
20
86.061299
11
85.099580
21
81.341962
0
LINE
8
Calque 1
10
85.099580
20
81.341962
11
77.085765
21
75.745430
0
LINE
8
Calque 1
10
77.085765
20
75.745430
11
71.685963
21
72.195777
0
LINE
8
Calque 1
10
71.685963
20
72.195777
11
68.719187
21
70.336554
0
LINE
8
Calque 1
10
68.719187
20
70.336554
11
65.601579
21
68.200878
0
LINE
8
Calque 1
10
65.601579
20
68.200878
11
62.618204
21
65.991721
0
LINE
8
Calque 1
10
62.618204
20
65.991721
11
60.054127
21
63.912054
0
LINE
8
Calque 1
10
60.054127
20
63.912054
11
58.255522
21
62.526661
0
LINE
8
Calque 1
10
58.255522
20
62.526661
11
56.456936
21
61.372666
0
LINE
8
Calque 1
10
56.456936
20
61.372666
11
52.910527
21
59.071687
0
LINE
8
Calque 1
10
52.910527
20
59.071687
11
47.269999
21
55.101913
0
LINE
8
Calque 1
10
47.269999
20
55.101913
11
41.175060
21
50.641260
0
LINE
8
Calque 1
10
41.175060
20
50.641260
11
36.265417
21
46.867644
0
LINE
8
Calque 1
10
36.265417
20
46.867644
11
29.558704
21
41.800367
0
LINE
8
Calque 1
10
29.558704
20
41.800367
11
19.479372
21
34.487514
0
LINE
8
Calque 1
10
19.479372
20
34.487514
11
5.999079
21
24.826636
0
LINE
8
Calque 1
10
5.999079
20
24.826636
11
4.999670
21
24.077840
0
LINE
8
Calque 1
10
4.999670
20
24.077840
11
5.099921
21
24.947022
0
LINE
8
Calque 1
10
5.099921
20
24.947022
11
5.223974
21
25.272962
0
LINE
8
Calque 1
10
5.223974
20
25.272962
11
5.603573
21
25.729956
0
LINE
8
Calque 1
10
5.603573
20
25.729956
11
7.573610
21
27.379469
0
LINE
8
Calque 1
10
7.573610
20
27.379469
11
19.466460
21
36.017148
0
LINE
8
Calque 1
10
19.466460
20
36.017148
11
30.810377
21
44.240738
0
LINE
8
Calque 1
10
30.810377
20
44.240738
11
38.050849
21
49.686564
0
LINE
8
Calque 1
10
38.050849
20
49.686564
11
47.477194
21
56.784175
0
LINE
8
Calque 1
10
47.477194
20
56.784175
11
52.235201
21
60.158209
0
LINE
8
Calque 1
10
52.235201
20
60.158209
11
55.422364
21
62.257379
0
LINE
8
Calque 1
10
55.422364
20
62.257379
11
59.154439
21
64.928000
0
LINE
8
Calque 1
10
59.154439
20
64.928000
11
64.589993
21
68.988502
0
LINE
8
Calque 1
10
64.589993
20
68.988502
11
70.695312
21
72.964709
0
LINE
8
Calque 1
10
70.695312
20
72.964709
11
76.079480
21
76.543164
0
LINE
8
Calque 1
10
76.079480
20
76.543164
11
84.183885
21
82.226145
0
LINE
8
Calque 1
10
84.183885
20
82.226145
11
94.056641
21
89.253629
0
LINE
8
Calque 1
10
94.056641
20
89.253629
11
94.056641
21
89.253629
0
LINE
8
Calque 1
10
94.860735
20
86.534933
11
94.885606
21
86.521968
0
LINE
8
Calque 1
10
94.885606
20
86.521968
11
94.942968
21
86.066197
0
LINE
8
Calque 1
10
94.942968
20
86.066197
11
94.919684
21
85.799551
0
LINE
8
Calque 1
10
94.919684
20
85.799551
11
94.440642
21
85.129287
0
LINE
8
Calque 1
10
94.440642
20
85.129287
11
92.879078
21
83.810918
0
LINE
8
Calque 1
10
92.879078
20
83.810918
11
85.083097
21
78.116828
0
LINE
8
Calque 1
10
85.083097
20
78.116828
11
77.772216
21
72.980121
0
LINE
8
Calque 1
10
77.772216
20
72.980121
11
73.874991
21
70.384998
0
LINE
8
Calque 1
10
73.874991
20
70.384998
11
71.616755
21
69.060771
0
LINE
8
Calque 1
10
71.616755
20
69.060771
11
69.139127
21
67.409686
0
LINE
8
Calque 1
10
69.139127
20
67.409686
11
64.250784
21
63.635565
0
LINE
8
Calque 1
10
64.250784
20
63.635565
11
61.620260
21
61.535623
0
LINE
8
Calque 1
10
61.620260
20
61.535623
11
59.505356
21
60.089015
0
LINE
8
Calque 1
10
59.505356
20
60.089015
11
54.771023
21
57.176452
0
LINE
8
Calque 1
10
54.771023
20
57.176452
11
51.312067
21
54.669694
0
LINE
8
Calque 1
10
51.312067
20
54.669694
11
46.415720
21
51.154682
0
LINE
8
Calque 1
10
46.415720
20
51.154682
11
40.010219
21
46.694104
0
LINE
8
Calque 1
10
40.010219
20
46.694104
11
33.309046
21
41.493275
0
LINE
8
Calque 1
10
33.309046
20
41.493275
11
18.116197
21
30.293804
0
LINE
8
Calque 1
10
18.116197
20
30.293804
11
9.290564
21
23.969533
0
LINE
8
Calque 1
10
9.290564
20
23.969533
11
5.218295
21
21.190128
0
LINE
8
Calque 1
10
5.218295
20
21.190128
11
5.057587
21
21.864524
0
LINE
8
Calque 1
10
5.057587
20
21.864524
11
5.602815
21
22.585222
0
LINE
8
Calque 1
10
5.602815
20
22.585222
11
7.558922
21
24.184348
0
LINE
8
Calque 1
10
7.558922
20
24.184348
11
17.681080
21
31.531619
0
LINE
8
Calque 1
10
17.681080
20
31.531619
11
28.012200
21
39.015363
0
LINE
8
Calque 1
10
28.012200
20
39.015363
11
35.134272
21
44.380431
0
LINE
8
Calque 1
10
35.134272
20
44.380431
11
43.682049
21
50.824985
0
LINE
8
Calque 1
10
43.682049
20
50.824985
11
51.175648
21
56.177632
0
LINE
8
Calque 1
10
51.175648
20
56.177632
11
54.507462
21
58.487660
0
LINE
8
Calque 1
10
54.507462
20
58.487660
11
57.206262
21
60.158759
0
LINE
8
Calque 1
10
57.206262
20
60.158759
11
59.630523
21
61.725544
0
LINE
8
Calque 1
10
59.630523
20
61.725544
11
62.302077
21
63.784393
0
LINE
8
Calque 1
10
62.302077
20
63.784393
11
67.732240
21
68.029968
0
LINE
8
Calque 1
10
67.732240
20
68.029968
11
70.232106
21
69.725764
0
LINE
8
Calque 1
10
70.232106
20
69.725764
11
72.476643
21
71.056801
0
LINE
8
Calque 1
10
72.476643
20
71.056801
11
76.989804
21
74.004573
0
LINE
8
Calque 1
10
76.989804
20
74.004573
11
84.707389
21
79.398917
0
LINE
8
Calque 1
10
84.707389
20
79.398917
11
94.860762
21
86.534906
0
LINE
8
Calque 1
10
94.860762
20
86.534906
11
94.860735
21
86.534933
0
LINE
8
Calque 1
10
94.780646
20
82.969782
11
94.928244
21
82.898603
0
LINE
8
Calque 1
10
94.928244
20
82.898603
11
94.960986
21
82.701575
0
LINE
8
Calque 1
10
94.960986
20
82.701575
11
94.653138
21
82.056925
0
LINE
8
Calque 1
10
94.653138
20
82.056925
11
93.358410
21
80.892571
0
LINE
8
Calque 1
10
93.358410
20
80.892571
11
85.471664
21
75.143894
0
LINE
8
Calque 1
10
85.471664
20
75.143894
11
78.075388
21
69.978185
0
LINE
8
Calque 1
10
78.075388
20
69.978185
11
73.598501
21
67.029159
0
LINE
8
Calque 1
10
73.598501
20
67.029159
11
71.124439
21
65.410252
0
LINE
8
Calque 1
10
71.124439
20
65.410252
11
68.542982
21
63.442314
0
LINE
8
Calque 1
10
68.542982
20
63.442314
11
63.324333
21
59.408689
0
LINE
8
Calque 1
10
63.324333
20
59.408689
11
61.038326
21
57.873749
0
LINE
8
Calque 1
10
61.038326
20
57.873749
11
59.154942
21
56.792602
0
LINE
8
Calque 1
10
59.154942
20
56.792602
11
57.353214
21
55.781220
0
LINE
8
Calque 1
10
57.353214
20
55.781220
11
55.437180
21
54.512068
0
LINE
8
Calque 1
10
55.437180
20
54.512068
11
51.641711
21
51.468901
0
LINE
8
Calque 1
10
51.641711
20
51.468901
11
49.499356
21
49.781288
0
LINE
8
Calque 1
10
49.499356
20
49.781288
11
46.970683
21
48.100124
0
LINE
8
Calque 1
10
46.970683
20
48.100124
11
43.736718
21
46.060175
0
LINE
8
Calque 1
10
43.736718
20
46.060175
11
40.207657
21
43.632591
0
LINE
8
Calque 1
10
40.207657
20
43.632591
11
32.327152
21
37.659415
0
LINE
8
Calque 1
10
32.327152
20
37.659415
11
18.151889
21
27.141576
0
LINE
8
Calque 1
10
18.151889
20
27.141576
11
5.424961
21
18.077706
0
LINE
8
Calque 1
10
5.424961
20
18.077706
11
5.141444
21
18.084469
0
LINE
8
Calque 1
10
5.141444
20
18.084469
11
5.050311
21
18.570677
0
LINE
8
Calque 1
10
5.050311
20
18.570677
11
5.050311
21
18.570677
0
LINE
8
Calque 1
10
5.050311
20
18.570677
11
5.507963
21
19.260958
0
LINE
8
Calque 1
10
5.507963
20
19.260958
11
7.257992
21
20.728520
0
LINE
8
Calque 1
10
7.257992
20
20.728520
11
16.897624
21
27.747897
0
LINE
8
Calque 1
10
16.897624
20
27.747897
11
26.420803
21
34.658759
0
LINE
8
Calque 1
10
26.420803
20
34.658759
11
32.680105
21
39.389549
0
LINE
8
Calque 1
10
32.680105
20
39.389549
11
40.393560
21
45.274325
0
LINE
8
Calque 1
10
40.393560
20
45.274325
11
44.013896
21
47.812779
0
LINE
8
Calque 1
10
44.013896
20
47.812779
11
46.996004
21
49.734639
0
LINE
8
Calque 1
10
46.996004
20
49.734639
11
49.381038
21
51.319385
0
LINE
8
Calque 1
10
49.381038
20
51.319385
11
51.510980
21
52.964933
0
LINE
8
Calque 1
10
51.510980
20
52.964933
11
55.055119
21
55.762154
0
LINE
8
Calque 1
10
55.055119
20
55.762154
11
58.555503
21
57.863316
0
LINE
8
Calque 1
10
58.555503
20
57.863316
11
60.327802
21
58.906367
0
LINE
8
Calque 1
10
60.327802
20
58.906367
11
62.495368
21
60.404897
0
LINE
8
Calque 1
10
62.495368
20
60.404897
11
68.244823
21
64.934720
0
LINE
8
Calque 1
10
68.244823
20
64.934720
11
70.617646
21
66.714332
0
LINE
8
Calque 1
10
70.617646
20
66.714332
11
72.818167
21
68.092148
0
LINE
8
Calque 1
10
72.818167
20
68.092148
11
77.234933
21
70.968268
0
LINE
8
Calque 1
10
77.234933
20
70.968268
11
84.935777
21
76.349519
0
LINE
8
Calque 1
10
84.935777
20
76.349519
11
92.384427
21
81.601293
0
LINE
8
Calque 1
10
92.384427
20
81.601293
11
94.038827
21
82.659675
0
LINE
8
Calque 1
10
94.038827
20
82.659675
11
94.780646
21
82.969253
0
LINE
8
Calque 1
10
94.780646
20
82.969253
11
94.780646
21
82.969782
0
LINE
8
Calque 1
10
94.974929
20
80.281566
11
94.974929
21
79.525018
0
LINE
8
Calque 1
10
94.974929
20
79.525018
11
94.629027
21
78.885959
0
LINE
8
Calque 1
10
94.629027
20
78.885959
11
93.234443
21
77.663349
0
LINE
8
Calque 1
10
93.234443
20
77.663349
11
85.157974
21
71.777710
0
LINE
8
Calque 1
10
85.157974
20
71.777710
11
73.692534
21
63.675358
0
LINE
8
Calque 1
10
73.692534
20
63.675358
11
67.547700
21
59.238963
0
LINE
8
Calque 1
10
67.547700
20
59.238963
11
63.799931
21
56.578336
0
LINE
8
Calque 1
10
63.799931
20
56.578336
11
61.103146
21
54.850086
0
LINE
8
Calque 1
10
61.103146
20
54.850086
11
56.615064
21
52.102359
0
LINE
8
Calque 1
10
56.615064
20
52.102359
11
54.698730
21
50.677212
0
LINE
8
Calque 1
10
54.698730
20
50.677212
11
52.953275
21
49.184809
0
LINE
8
Calque 1
10
52.953275
20
49.184809
11
51.206274
21
47.681943
0
LINE
8
Calque 1
10
51.206274
20
47.681943
11
49.233830
21
46.197227
0
LINE
8
Calque 1
10
49.233830
20
46.197227
11
43.917660
21
42.790367
0
LINE
8
Calque 1
10
43.917660
20
42.790367
11
40.856002
21
40.828301
0
LINE
8
Calque 1
10
40.856002
20
40.828301
11
37.236638
21
38.299910
0
LINE
8
Calque 1
10
37.236638
20
38.299910
11
29.329929
21
32.269065
0
LINE
8
Calque 1
10
29.329929
20
32.269065
11
20.165062
21
25.381345
0
LINE
8
Calque 1
10
20.165062
20
25.381345
11
6.024400
21
15.241694
0
LINE
8
Calque 1
10
6.024400
20
15.241694
11
5.050311
21
14.554916
0
LINE
8
Calque 1
10
5.050311
20
14.554916
11
5.050311
21
15.311464
0
LINE
8
Calque 1
10
5.050311
20
15.311464
11
5.431044
21
15.977039
0
LINE
8
Calque 1
10
5.431044
20
15.977039
11
6.971055
21
17.307849
0
LINE
8
Calque 1
10
6.971055
20
17.307849
11
15.915783
21
23.838048
0
LINE
8
Calque 1
10
15.915783
20
23.838048
11
24.779852
21
30.286459
0
LINE
8
Calque 1
10
24.779852
20
30.286459
11
30.832681
21
34.878727
0
LINE
8
Calque 1
10
30.832681
20
34.878727
11
34.789894
21
37.967396
0
LINE
8
Calque 1
10
34.789894
20
37.967396
11
38.858608
21
40.949881
0
LINE
8
Calque 1
10
38.858608
20
40.949881
11
42.789309
21
43.649068
0
LINE
8
Calque 1
10
42.789309
20
43.649068
11
46.332482
21
45.887840
0
LINE
8
Calque 1
10
46.332482
20
45.887840
11
49.305086
21
47.852260
0
LINE
8
Calque 1
10
49.305086
20
47.852260
11
51.728018
21
49.755303
0
LINE
8
Calque 1
10
51.728018
20
49.755303
11
55.391990
21
52.784679
0
LINE
8
Calque 1
10
55.391990
20
52.784679
11
59.350284
21
55.252120
0
LINE
8
Calque 1
10
59.350284
20
55.252120
11
64.077284
21
58.234427
0
LINE
8
Calque 1
10
64.077284
20
58.234427
11
69.646293
21
62.410334
0
LINE
8
Calque 1
10
69.646293
20
62.410334
11
73.842394
21
65.428750
0
LINE
8
Calque 1
10
73.842394
20
65.428750
11
84.183885
21
72.598341
0
LINE
8
Calque 1
10
84.183885
20
72.598341
11
94.000840
21
79.592195
0
LINE
8
Calque 1
10
94.000840
20
79.592195
11
94.974929
21
80.281566
0
LINE
8
Calque 1
10
94.781678
20
76.444610
11
94.925320
21
76.332982
0
LINE
8
Calque 1
10
94.925320
20
76.332982
11
94.922631
21
75.799567
0
LINE
8
Calque 1
10
94.922631
20
75.799567
11
94.775460
21
75.441549
0
LINE
8
Calque 1
10
94.775460
20
75.441549
11
89.203618
21
71.352291
0
LINE
8
Calque 1
10
89.203618
20
71.352291
11
78.130170
21
63.516820
0
LINE
8
Calque 1
10
78.130170
20
63.516820
11
66.941782
21
55.718120
0
LINE
8
Calque 1
10
66.941782
20
55.718120
11
61.025120
21
51.739172
0
LINE
8
Calque 1
10
61.025120
20
51.739172
11
59.105536
21
50.643739
0
LINE
8
Calque 1
10
59.105536
20
50.643739
11
57.469208
21
49.557352
0
LINE
8
Calque 1
10
57.469208
20
49.557352
11
53.609547
21
46.372053
0
LINE
8
Calque 1
10
53.609547
20
46.372053
11
51.342945
21
44.487265
0
LINE
8
Calque 1
10
51.342945
20
44.487265
11
48.788481
21
42.578975
0
LINE
8
Calque 1
10
48.788481
20
42.578975
11
42.668643
21
38.586487
0
LINE
8
Calque 1
10
42.668643
20
38.586487
11
38.943302
21
36.211205
0
LINE
8
Calque 1
10
38.943302
20
36.211205
11
35.050409
21
33.530160
0
LINE
8
Calque 1
10
35.050409
20
33.530160
11
31.418534
21
30.848759
0
LINE
8
Calque 1
10
31.418534
20
30.848759
11
28.476252
21
28.472405
0
LINE
8
Calque 1
10
28.476252
20
28.472405
11
23.584681
21
24.697923
0
LINE
8
Calque 1
10
23.584681
20
24.697923
11
15.466203
21
18.771707
0
LINE
8
Calque 1
10
15.466203
20
18.771707
11
8.236873
21
13.644367
0
LINE
8
Calque 1
10
8.236873
20
13.644367
11
5.479227
21
11.925622
0
LINE
8
Calque 1
10
5.479227
20
11.925622
11
5.277694
21
12.649601
0
LINE
8
Calque 1
10
5.277694
20
12.649601
11
6.063288
21
13.437091
0
LINE
8
Calque 1
10
6.063288
20
13.437091
11
7.737267
21
14.759600
0
LINE
8
Calque 1
10
7.737267
20
14.759600
11
14.992335
21
19.991276
0
LINE
8
Calque 1
10
14.992335
20
19.991276
11
22.830011
21
25.657854
0
LINE
8
Calque 1
10
22.830011
20
25.657854
11
27.752247
21
29.390164
0
LINE
8
Calque 1
10
27.752247
20
29.390164
11
34.439728
21
34.574238
0
LINE
8
Calque 1
10
34.439728
20
34.574238
11
40.802089
21
38.964761
0
LINE
8
Calque 1
10
40.802089
20
38.964761
11
48.658293
21
44.100281
0
LINE
8
Calque 1
10
48.658293
20
44.100281
11
51.234466
21
45.990359
0
LINE
8
Calque 1
10
51.234466
20
45.990359
11
53.197697
21
47.630384
0
LINE
8
Calque 1
10
53.197697
20
47.630384
11
55.206812
21
49.341609
0
LINE
8
Calque 1
10
55.206812
20
49.341609
11
57.280858
21
50.906553
0
LINE
8
Calque 1
10
57.280858
20
50.906553
11
59.337099
21
52.266526
0
LINE
8
Calque 1
10
59.337099
20
52.266526
11
61.292799
21
53.362839
0
LINE
8
Calque 1
10
61.292799
20
53.362839
11
67.078396
21
57.266477
0
LINE
8
Calque 1
10
67.078396
20
57.266477
11
78.828143
21
65.564666
0
LINE
8
Calque 1
10
78.828143
20
65.564666
11
91.150458
21
74.275638
0
LINE
8
Calque 1
10
91.150458
20
74.275638
11
93.738704
21
75.967895
0
LINE
8
Calque 1
10
93.738704
20
75.967895
11
94.781678
21
76.444610
0
LINE
8
Calque 1
10
94.781678
20
76.444610
11
94.781678
21
76.444610
0
LINE
8
Calque 1
10
94.807607
20
73.645798
11
94.967786
21
72.970926
0
LINE
8
Calque 1
10
94.967786
20
72.970926
11
94.317555
21
72.174835
0
LINE
8
Calque 1
10
94.317555
20
72.174835
11
91.970738
21
70.298109
0
LINE
8
Calque 1
10
91.970738
20
70.298109
11
79.755824
21
61.463100
0
LINE
8
Calque 1
10
79.755824
20
61.463100
11
68.268536
21
53.399404
0
LINE
8
Calque 1
10
68.268536
20
53.399404
11
62.002411
21
49.226666
0
LINE
8
Calque 1
10
62.002411
20
49.226666
11
59.942224
21
48.020202
0
LINE
8
Calque 1
10
59.942224
20
48.020202
11
58.060266
21
46.746878
0
LINE
8
Calque 1
10
58.060266
20
46.746878
11
54.209621
21
43.546386
0
LINE
8
Calque 1
10
54.209621
20
43.546386
11
51.808066
21
41.600093
0
LINE
8
Calque 1
10
51.808066
20
41.600093
11
48.203918
21
38.976214
0
LINE
8
Calque 1
10
48.203918
20
38.976214
11
39.706636
21
33.329461
0
LINE
8
Calque 1
10
39.706636
20
33.329461
11
34.895899
21
30.168375
0
LINE
8
Calque 1
10
34.895899
20
30.168375
11
30.882899
21
26.935019
0
LINE
8
Calque 1
10
30.882899
20
26.935019
11
20.094388
21
18.895664
0
LINE
8
Calque 1
10
20.094388
20
18.895664
11
6.751077
21
9.333026
0
LINE
8
Calque 1
10
6.751077
20
9.333026
11
6.198125
21
10.235810
0
LINE
8
Calque 1
10
6.198125
20
10.235810
11
9.537586
21
12.807699
0
LINE
8
Calque 1
10
9.537586
20
12.807699
11
15.991321
21
17.465858
0
LINE
8
Calque 1
10
15.991321
20
17.465858
11
24.316782
21
23.519100
0
LINE
8
Calque 1
10
24.316782
20
23.519100
11
29.180149
21
27.257493
0
LINE
8
Calque 1
10
29.180149
20
27.257493
11
31.656747
21
29.298462
0
LINE
8
Calque 1
10
31.656747
20
29.298462
11
34.472626
21
31.402668
0
LINE
8
Calque 1
10
34.472626
20
31.402668
11
41.020238
21
35.727747
0
LINE
8
Calque 1
10
41.020238
20
35.727747
11
44.802509
21
38.158506
0
LINE
8
Calque 1
10
44.802509
20
38.158506
11
48.629830
21
40.800018
0
LINE
8
Calque 1
10
48.629830
20
40.800018
11
52.025015
21
43.311836
0
LINE
8
Calque 1
10
52.025015
20
43.311836
11
54.510875
21
45.353515
0
LINE
8
Calque 1
10
54.510875
20
45.353515
11
58.062922
21
48.262152
0
LINE
8
Calque 1
10
58.062922
20
48.262152
11
61.880438
21
50.633798
0
LINE
8
Calque 1
10
61.880438
20
50.633798
11
68.048976
21
54.761944
0
LINE
8
Calque 1
10
68.048976
20
54.761944
11
79.473144
21
62.808770
0
LINE
8
Calque 1
10
79.473144
20
62.808770
11
94.807607
21
73.645798
0
LINE
8
Calque 1
10
94.807607
20
73.645798
11
94.807607
21
73.645798
0
LINE
8
Calque 1
10
94.834065
20
70.052761
11
94.926034
21
69.972143
0
LINE
8
Calque 1
10
94.926034
20
69.972143
11
94.835686
21
69.393810
0
LINE
8
Calque 1
10
94.835686
20
69.393810
11
94.476455
21
68.850760
0
LINE
8
Calque 1
10
94.476455
20
68.850760
11
89.400817
21
65.100283
0
LINE
8
Calque 1
10
89.400817
20
65.100283
11
79.371884
21
57.967522
0
LINE
8
Calque 1
10
79.371884
20
57.967522
11
69.301394
21
50.918185
0
LINE
8
Calque 1
10
69.301394
20
50.918185
11
64.101083
21
47.417976
0
LINE
8
Calque 1
10
64.101083
20
47.417976
11
62.099969
21
46.292308
0
LINE
8
Calque 1
10
62.099969
20
46.292308
11
59.996974
21
44.898673
0
LINE
8
Calque 1
10
59.996974
20
44.898673
11
57.873039
21
43.294501
0
LINE
8
Calque 1
10
57.873039
20
43.294501
11
55.809105
21
41.537222
0
LINE
8
Calque 1
10
55.809105
20
41.537222
11
53.109111
21
39.372963
0
LINE
8
Calque 1
10
53.109111
20
39.372963
11
50.053895
21
37.276510
0
LINE
8
Calque 1
10
50.053895
20
37.276510
11
46.796296
21
35.099835
0
LINE
8
Calque 1
10
46.796296
20
35.099835
11
43.609341
21
32.742404
0
LINE
8
Calque 1
10
43.609341
20
32.742404
11
40.902981
21
30.705581
0
LINE
8
Calque 1
10
40.902981
20
30.705581
11
38.800863
21
29.299729
0
LINE
8
Calque 1
10
38.800863
20
29.299729
11
36.980879
21
28.089947
0
LINE
8
Calque 1
10
36.980879
20
28.089947
11
34.953032
21
26.524704
0
LINE
8
Calque 1
10
34.953032
20
26.524704
11
23.951790
21
18.441852
0
LINE
8
Calque 1
10
23.951790
20
18.441852
11
8.533494
21
7.362597
0
LINE
8
Calque 1
10
8.533494
20
7.362597
11
7.668413
21
8.188387
0
LINE
8
Calque 1
10
7.668413
20
8.188387
11
17.564981
21
15.364169
0
LINE
8
Calque 1
10
17.564981
20
15.364169
11
27.283714
21
22.399683
0
LINE
8
Calque 1
10
27.283714
20
22.399683
11
33.076662
21
26.782566
0
LINE
8
Calque 1
10
33.076662
20
26.782566
11
36.055642
21
29.068295
0
LINE
8
Calque 1
10
36.055642
20
29.068295
11
39.008587
21
31.061905
0
LINE
8
Calque 1
10
39.008587
20
31.061905
11
43.804683
21
34.316990
0
LINE
8
Calque 1
10
43.804683
20
34.316990
11
49.194000
21
38.096611
0
LINE
8
Calque 1
10
49.194000
20
38.096611
11
52.476086
21
40.424069
0
LINE
8
Calque 1
10
52.476086
20
40.424069
11
55.413765
21
42.776926
0
LINE
8
Calque 1
10
55.413765
20
42.776926
11
59.464736
21
46.032679
0
LINE
8
Calque 1
10
59.464736
20
46.032679
11
61.375671
21
47.295900
0
LINE
8
Calque 1
10
61.375671
20
47.295900
11
63.368823
21
48.428763
0
LINE
8
Calque 1
10
63.368823
20
48.428763
11
69.004758
21
52.218445
0
LINE
8
Calque 1
10
69.004758
20
52.218445
11
80.005008
21
59.982071
0
LINE
8
Calque 1
10
80.005008
20
59.982071
11
91.428634
21
68.047096
0
LINE
8
Calque 1
10
91.428634
20
68.047096
11
93.869049
21
69.630162
0
LINE
8
Calque 1
10
93.869049
20
69.630162
11
94.834065
21
70.052761
0
LINE
8
Calque 1
10
94.834065
20
70.052761
11
94.834065
21
70.052761
0
LINE
8
Calque 1
10
94.771518
20
67.216246
11
94.925201
21
67.073193
0
LINE
8
Calque 1
10
94.925201
20
67.073193
11
94.975141
21
66.649351
0
LINE
8
Calque 1
10
94.975141
20
66.649351
11
94.865125
21
66.358265
0
LINE
8
Calque 1
10
94.865125
20
66.358265
11
94.474032
21
65.910572
0
LINE
8
Calque 1
10
94.474032
20
65.910572
11
92.482333
21
64.264456
0
LINE
8
Calque 1
10
92.482333
20
64.264456
11
81.096916
21
56.002980
0
LINE
8
Calque 1
10
81.096916
20
56.002980
11
70.551289
21
48.595050
0
LINE
8
Calque 1
10
70.551289
20
48.595050
11
64.685547
21
44.698248
0
LINE
8
Calque 1
10
64.685547
20
44.698248
11
60.826799
21
42.317154
0
LINE
8
Calque 1
10
60.826799
20
42.317154
11
57.506669
21
39.618996
0
LINE
8
Calque 1
10
57.506669
20
39.618996
11
55.209477
21
37.852891
0
LINE
8
Calque 1
10
55.209477
20
37.852891
11
52.001597
21
35.721027
0
LINE
8
Calque 1
10
52.001597
20
35.721027
11
48.121312
21
33.092550
0
LINE
8
Calque 1
10
48.121312
20
33.092550
11
44.207749
21
30.131711
0
LINE
8
Calque 1
10
44.207749
20
30.131711
11
36.980664
21
24.677474
0
LINE
8
Calque 1
10
36.980664
20
24.677474
11
25.133484
21
16.054572
0
LINE
8
Calque 1
10
25.133484
20
16.054572
11
15.504475
21
9.185667
0
LINE
8
Calque 1
10
15.504475
20
9.185667
11
10.716303
21
5.956497
0
LINE
8
Calque 1
10
10.716303
20
5.956497
11
9.675010
21
6.528023
0
LINE
8
Calque 1
10
9.675010
20
6.528023
11
21.236573
21
14.811217
0
LINE
8
Calque 1
10
21.236573
20
14.811217
11
36.061853
21
25.449498
0
LINE
8
Calque 1
10
36.061853
20
25.449498
11
43.419185
21
31.055687
0
LINE
8
Calque 1
10
43.419185
20
31.055687
11
47.166349
21
33.828468
0
LINE
8
Calque 1
10
47.166349
20
33.828468
11
50.912758
21
36.339092
0
LINE
8
Calque 1
10
50.912758
20
36.339092
11
54.128043
21
38.501539
0
LINE
8
Calque 1
10
54.128043
20
38.501539
11
56.598197
21
40.438065
0
LINE
8
Calque 1
10
56.598197
20
40.438065
11
60.327365
21
43.471218
0
LINE
8
Calque 1
10
60.327365
20
43.471218
11
62.180818
21
44.702774
0
LINE
8
Calque 1
10
62.180818
20
44.702774
11
63.977576
21
45.709035
0
LINE
8
Calque 1
10
63.977576
20
45.709035
11
69.443649
21
49.340542
0
LINE
8
Calque 1
10
69.443649
20
49.340542
11
80.022577
21
56.780696
0
LINE
8
Calque 1
10
80.022577
20
56.780696
11
94.608746
21
67.160419
0
LINE
8
Calque 1
10
94.608746
20
67.160419
11
94.771518
21
67.216246
0
LINE
8
Calque 1
10
94.771518
20
67.216246
11
94.771518
21
67.216246
0
LINE
8
Calque 1
10
94.856793
20
64.054162
11
94.919843
21
63.321399
0
LINE
8
Calque 1
10
94.919843
20
63.321399
11
94.282215
21
62.537668
0
LINE
8
Calque 1
10
94.282215
20
62.537668
11
92.144381
21
60.806796
0
LINE
8
Calque 1
10
92.144381
20
60.806796
11
81.336178
21
52.952524
0
LINE
8
Calque 1
10
81.336178
20
52.952524
11
71.281641
21
45.879258
0
LINE
8
Calque 1
10
71.281641
20
45.879258
11
66.049287
21
42.404869
0
LINE
8
Calque 1
10
66.049287
20
42.404869
11
62.902228
21
40.573277
0
LINE
8
Calque 1
10
62.902228
20
40.573277
11
59.454873
21
37.988080
0
LINE
8
Calque 1
10
59.454873
20
37.988080
11
54.209198
21
34.244653
0
LINE
8
Calque 1
10
54.209198
20
34.244653
11
48.385157
21
30.195052
0
LINE
8
Calque 1
10
48.385157
20
30.195052
11
43.961766
21
26.623922
0
LINE
8
Calque 1
10
43.961766
20
26.623922
11
38.637159
21
22.574155
0
LINE
8
Calque 1
10
38.637159
20
22.574155
11
28.229423
21
15.032409
0
LINE
8
Calque 1
10
28.229423
20
15.032409
11
17.484108
21
7.446047
0
LINE
8
Calque 1
10
17.484108
20
7.446047
11
14.944278
21
5.787842
0
LINE
8
Calque 1
10
14.944278
20
5.787842
11
13.609148
21
5.097635
0
LINE
8
Calque 1
10
13.609148
20
5.097635
11
12.487766
21
5.315704
0
LINE
8
Calque 1
10
12.487766
20
5.315704
11
27.231548
21
15.918127
0
LINE
8
Calque 1
10
27.231548
20
15.918127
11
38.203342
21
23.887764
0
LINE
8
Calque 1
10
38.203342
20
23.887764
11
44.167453
21
28.437771
0
LINE
8
Calque 1
10
44.167453
20
28.437771
11
47.495219
21
31.014343
0
LINE
8
Calque 1
10
47.495219
20
31.014343
11
52.128702
21
34.239468
0
LINE
8
Calque 1
10
52.128702
20
34.239468
11
58.082852
21
38.398395
0
LINE
8
Calque 1
10
58.082852
20
38.398395
11
59.120509
21
39.331307
0
LINE
8
Calque 1
10
59.120509
20
39.331307
11
60.881485
21
40.631780
0
LINE
8
Calque 1
10
60.881485
20
40.631780
11
65.022467
21
43.251323
0
LINE
8
Calque 1
10
65.022467
20
43.251323
11
70.783950
21
47.082412
0
LINE
8
Calque 1
10
70.783950
20
47.082412
11
81.114511
21
54.345712
0
LINE
8
Calque 1
10
81.114511
20
54.345712
11
94.856793
21
64.054162
0
LINE
8
Calque 1
10
94.856793
20
64.054162
11
94.856793
21
64.054162
0
LINE
8
Calque 1
10
94.795304
20
60.455939
11
94.929381
21
60.392961
0
LINE
8
Calque 1
10
94.929381
20
60.392961
11
94.960668
21
60.223899
0
LINE
8
Calque 1
10
94.960668
20
60.223899
11
94.876083
21
59.922444
0
LINE
8
Calque 1
10
94.876083
20
59.922444
11
94.565068
21
59.512452
0
LINE
8
Calque 1
10
94.565068
20
59.512452
11
92.863041
21
58.055576
0
LINE
8
Calque 1
10
92.863041
20
58.055576
11
82.334053
21
50.415226
0
LINE
8
Calque 1
10
82.334053
20
50.415226
11
72.623321
21
43.616994
0
LINE
8
Calque 1
10
72.623321
20
43.616994
11
66.986705
21
39.900115
0
LINE
8
Calque 1
10
66.986705
20
39.900115
11
62.643514
21
37.103591
0
LINE
8
Calque 1
10
62.643514
20
37.103591
11
56.187336
21
32.593338
0
LINE
8
Calque 1
10
56.187336
20
32.593338
11
49.715933
21
27.867979
0
LINE
8
Calque 1
10
49.715933
20
27.867979
11
45.327067
21
24.426137
0
LINE
8
Calque 1
10
45.327067
20
24.426137
11
39.927576
21
20.281729
0
LINE
8
Calque 1
10
39.927576
20
20.281729
11
30.678879
21
13.560137
0
LINE
8
Calque 1
10
30.678879
20
13.560137
11
20.690828
21
6.566847
0
LINE
8
Calque 1
10
20.690828
20
6.566847
11
18.632526
21
5.322410
0
LINE
8
Calque 1
10
18.632526
20
5.322410
11
17.654887
21
5.003575
0
LINE
8
Calque 1
10
17.654887
20
5.003575
11
16.996650
21
5.076303
0
LINE
8
Calque 1
10
16.996650
20
5.076303
11
16.870407
21
5.157188
0
LINE
8
Calque 1
10
16.870407
20
5.157188
11
16.905588
21
5.258845
0
LINE
8
Calque 1
10
16.905588
20
5.258845
11
30.229300
21
14.810185
0
LINE
8
Calque 1
10
30.229300
20
14.810185
11
40.012997
21
21.895979
0
LINE
8
Calque 1
10
40.012997
20
21.895979
11
45.225255
21
25.878751
0
LINE
8
Calque 1
10
45.225255
20
25.878751
11
49.793192
21
29.489789
0
LINE
8
Calque 1
10
49.793192
20
29.489789
11
55.857682
21
33.774384
0
LINE
8
Calque 1
10
55.857682
20
33.774384
11
60.653752
21
37.231028
0
LINE
8
Calque 1
10
60.653752
20
37.231028
11
63.686868
21
39.351575
0
LINE
8
Calque 1
10
63.686868
20
39.351575
11
66.349007
21
40.996150
0
LINE
8
Calque 1
10
66.349007
20
40.996150
11
71.894947
21
44.670289
0
LINE
8
Calque 1
10
71.894947
20
44.670289
11
81.861217
21
51.670434
0
LINE
8
Calque 1
10
81.861217
20
51.670434
11
91.800724
21
58.699316
0
LINE
8
Calque 1
10
91.800724
20
58.699316
11
93.911848
21
60.070629
0
LINE
8
Calque 1
10
93.911848
20
60.070629
11
94.795304
21
60.455939
0
LINE
8
Calque 1
10
94.795304
20
60.455939
11
94.795304
21
60.455939
0
LINE
8
Calque 1
10
94.810385
20
57.641120
11
94.810385
21
57.641120
0
LINE
8
Calque 1
10
94.810385
20
57.641120
11
94.937362
21
57.495156
0
LINE
8
Calque 1
10
94.937362
20
57.495156
11
94.975220
21
57.057688
0
LINE
8
Calque 1
10
94.975220
20
57.057688
11
94.887758
21
56.767362
0
LINE
8
Calque 1
10
94.887758
20
56.767362
11
94.564950
21
56.357956
0
LINE
8
Calque 1
10
94.564950
20
56.357956
11
92.850784
21
54.900476
0
LINE
8
Calque 1
10
92.850784
20
54.900476
11
82.610622
21
47.460865
0
LINE
8
Calque 1
10
82.610622
20
47.460865
11
73.158444
21
40.833901
0
LINE
8
Calque 1
10
73.158444
20
40.833901
11
67.796037
21
37.290454
0
LINE
8
Calque 1
10
67.796037
20
37.290454
11
64.688576
21
35.338757
0
LINE
8
Calque 1
10
64.688576
20
35.338757
11
60.657985
21
32.538305
0
LINE
8
Calque 1
10
60.657985
20
32.538305
11
52.111240
21
26.435830
0
LINE
8
Calque 1
10
52.111240
20
26.435830
11
48.626956
21
23.870122
0
LINE
8
Calque 1
10
48.626956
20
23.870122
11
45.668750
21
21.489874
0
LINE
8
Calque 1
10
45.668750
20
21.489874
11
40.923126
21
17.810825
0
LINE
8
Calque 1
10
40.923126
20
17.810825
11
33.141353
21
12.122498
0
LINE
8
Calque 1
10
33.141353
20
12.122498
11
24.828377
21
6.307920
0
LINE
8
Calque 1
10
24.828377
20
6.307920
11
23.062706
21
5.270568
0
LINE
8
Calque 1
10
23.062706
20
5.270568
11
22.157031
21
5.004078
0
LINE
8
Calque 1
10
22.157031
20
5.004078
11
21.494743
21
5.076402
0
LINE
8
Calque 1
10
21.494743
20
5.076402
11
21.367004
21
5.156954
0
LINE
8
Calque 1
10
21.367004
20
5.156954
11
21.401514
21
5.258342
0
LINE
8
Calque 1
10
21.401514
20
5.258342
11
32.627162
21
13.331749
0
LINE
8
Calque 1
10
32.627162
20
13.331749
11
40.970447
21
19.395095
0
LINE
8
Calque 1
10
40.970447
20
19.395095
11
45.666157
21
22.995219
0
LINE
8
Calque 1
10
45.666157
20
22.995219
11
49.889250
21
26.279588
0
LINE
8
Calque 1
10
49.889250
20
26.279588
11
56.590914
21
31.154159
0
LINE
8
Calque 1
10
56.590914
20
31.154159
11
63.309575
21
35.861417
0
LINE
8
Calque 1
10
63.309575
20
35.861417
11
67.583657
21
38.643849
0
LINE
8
Calque 1
10
67.583657
20
38.643849
11
80.414705
21
47.425636
0
LINE
8
Calque 1
10
80.414705
20
47.425636
11
94.600068
21
57.543462
0
LINE
8
Calque 1
10
94.600068
20
57.543462
11
94.810385
21
57.641649
0
LINE
8
Calque 1
10
94.810385
20
57.641649
11
94.810385
21
57.641120
0
LINE
8
Calque 1
10
94.766967
20
54.332271
11
94.924136
21
54.194198
0
LINE
8
Calque 1
10
94.924136
20
54.194198
11
94.975220
21
53.783473
0
LINE
8
Calque 1
10
94.975220
20
53.783473
11
94.521103
21
53.096158
0
LINE
8
Calque 1
10
94.521103
20
53.096158
11
92.783812
21
51.639732
0
LINE
8
Calque 1
10
92.783812
20
51.639732
11
83.210061
21
44.679145
0
LINE
8
Calque 1
10
83.210061
20
44.679145
11
74.284410
21
38.419624
0
LINE
8
Calque 1
10
74.284410
20
38.419624
11
69.346335
21
35.151565
0
LINE
8
Calque 1
10
69.346335
20
35.151565
11
67.008407
21
33.761078
0
LINE
8
Calque 1
10
67.008407
20
33.761078
11
64.340534
21
31.974131
0
LINE
8
Calque 1
10
64.340534
20
31.974131
11
59.036382
21
27.927205
0
LINE
8
Calque 1
10
59.036382
20
27.927205
11
56.465598
21
25.956383
0
LINE
8
Calque 1
10
56.465598
20
25.956383
11
53.908526
21
24.257677
0
LINE
8
Calque 1
10
53.908526
20
24.257677
11
49.469994
21
21.347959
0
LINE
8
Calque 1
10
49.469994
20
21.347959
11
45.366940
21
18.024975
0
LINE
8
Calque 1
10
45.366940
20
18.024975
11
41.597836
21
15.067076
0
LINE
8
Calque 1
10
41.597836
20
15.067076
11
35.482807
21
10.579979
0
LINE
8
Calque 1
10
35.482807
20
10.579979
11
28.949875
21
6.039199
0
LINE
8
Calque 1
10
28.949875
20
6.039199
11
27.485671
21
5.217672
0
LINE
8
Calque 1
10
27.485671
20
5.217672
11
26.655445
21
5.003575
0
LINE
8
Calque 1
10
26.655445
20
5.003575
11
25.992595
21
5.076174
0
LINE
8
Calque 1
10
25.992595
20
5.076174
11
25.864078
21
5.156753
0
LINE
8
Calque 1
10
25.864078
20
5.156753
11
25.897891
21
5.257813
0
LINE
8
Calque 1
10
25.897891
20
5.257813
11
34.676146
21
11.564413
0
LINE
8
Calque 1
10
34.676146
20
11.564413
11
41.436450
21
16.503880
0
LINE
8
Calque 1
10
41.436450
20
16.503880
11
45.762782
21
19.882242
0
LINE
8
Calque 1
10
45.762782
20
19.882242
11
48.519721
21
22.087075
0
LINE
8
Calque 1
10
48.519721
20
22.087075
11
51.507144
21
24.204972
0
LINE
8
Calque 1
10
51.507144
20
24.204972
11
57.356386
21
28.362312
0
LINE
8
Calque 1
10
57.356386
20
28.362312
11
63.895853
21
33.162856
0
LINE
8
Calque 1
10
63.895853
20
33.162856
11
66.729406
21
35.055845
0
LINE
8
Calque 1
10
66.729406
20
35.055845
11
68.746896
21
36.247097
0
LINE
8
Calque 1
10
68.746896
20
36.247097
11
73.495033
21
39.372976
0
LINE
8
Calque 1
10
73.495033
20
39.372976
11
82.385329
21
45.607752
0
LINE
8
Calque 1
10
82.385329
20
45.607752
11
94.600068
21
54.276470
0
LINE
8
Calque 1
10
94.600068
20
54.276470
11
94.766967
21
54.332271
0
LINE
8
Calque 1
10
94.766967
20
54.332271
11
94.766967
21
54.332271
0
LINE
8
Calque 1
10
94.811920
20
51.164525
11
94.967997
21
50.490155
0
LINE
8
Calque 1
10
94.967997
20
50.490155
11
94.487808
21
49.816506
0
LINE
8
Calque 1
10
94.487808
20
49.816506
11
92.772775
21
48.389462
0
LINE
8
Calque 1
10
92.772775
20
48.389462
11
83.936632
21
41.959920
0
LINE
8
Calque 1
10
83.936632
20
41.959920
11
75.407029
21
36.002586
0
LINE
8
Calque 1
10
75.407029
20
36.002586
11
70.380378
21
32.711395
0
LINE
8
Calque 1
10
70.380378
20
32.711395
11
66.611919
21
30.366783
0
LINE
8
Calque 1
10
66.611919
20
30.366783
11
62.433072
21
26.997540
0
LINE
8
Calque 1
10
62.433072
20
26.997540
11
58.372749
21
23.736402
0
LINE
8
Calque 1
10
58.372749
20
23.736402
11
54.717276
21
21.482651
0
LINE
8
Calque 1
10
54.717276
20
21.482651
11
52.436101
21
20.140774
0
LINE
8
Calque 1
10
52.436101
20
20.140774
11
50.045786
21
18.533758
0
LINE
8
Calque 1
10
50.045786
20
18.533758
11
47.690455
21
16.764207
0
LINE
8
Calque 1
10
47.690455
20
16.764207
11
45.514233
21
14.934725
0
LINE
8
Calque 1
10
45.514233
20
14.934725
11
42.390834
21
12.430790
0
LINE
8
Calque 1
10
42.390834
20
12.430790
11
37.812910
21
9.034841
0
LINE
8
Calque 1
10
37.812910
20
9.034841
11
33.068077
21
5.770105
0
LINE
8
Calque 1
10
33.068077
20
5.770105
11
31.906792
21
5.165047
0
LINE
8
Calque 1
10
31.906792
20
5.165047
11
31.154388
21
5.003575
0
LINE
8
Calque 1
10
31.154388
20
5.003575
11
30.488078
21
5.076389
0
LINE
8
Calque 1
10
30.488078
20
5.076389
11
30.359702
21
5.157434
0
LINE
8
Calque 1
10
30.359702
20
5.157434
11
30.394241
21
5.259374
0
LINE
8
Calque 1
10
30.394241
20
5.259374
11
36.823819
21
9.888016
0
LINE
8
Calque 1
10
36.823819
20
9.888016
11
41.996543
21
13.690606
0
LINE
8
Calque 1
10
41.996543
20
13.690606
11
45.804137
21
16.691212
0
LINE
8
Calque 1
10
45.804137
20
16.691212
11
50.374315
21
20.232698
0
LINE
8
Calque 1
10
50.374315
20
20.232698
11
55.558042
21
23.523856
0
LINE
8
Calque 1
10
55.558042
20
23.523856
11
57.832444
21
25.055348
0
LINE
8
Calque 1
10
57.832444
20
25.055348
11
60.354138
21
27.032174
0
LINE
8
Calque 1
10
60.354138
20
27.032174
11
65.531991
21
31.107000
0
LINE
8
Calque 1
10
65.531991
20
31.107000
11
67.784302
21
32.634366
0
LINE
8
Calque 1
10
67.784302
20
32.634366
11
69.667751
21
33.718054
0
LINE
8
Calque 1
10
69.667751
20
33.718054
11
74.354825
21
36.792366
0
LINE
8
Calque 1
10
74.354825
20
36.792366
11
83.067953
21
42.898899
0
LINE
8
Calque 1
10
83.067953
20
42.898899
11
94.811920
21
51.164525
0
LINE
8
Calque 1
10
94.811920
20
51.164525
11
94.811920
21
51.164525
0
LINE
8
Calque 1
10
94.772656
20
47.514629
11
94.998342
21
47.356795
0
LINE
8
Calque 1
10
94.998342
20
47.356795
11
94.879124
21
46.850049
0
LINE
8
Calque 1
10
94.879124
20
46.850049
11
91.413328
21
44.156601
0
LINE
8
Calque 1
10
91.413328
20
44.156601
11
83.851076
21
38.718606
0
LINE
8
Calque 1
10
83.851076
20
38.718606
11
75.944292
21
33.194788
0
LINE
8
Calque 1
10
75.944292
20
33.194788
11
71.444902
21
30.243867
0
LINE
8
Calque 1
10
71.444902
20
30.243867
11
69.399791
21
28.937628
0
LINE
8
Calque 1
10
69.399791
20
28.937628
11
67.008506
21
27.069374
0
LINE
8
Calque 1
10
67.008506
20
27.069374
11
64.109038
21
24.717175
0
LINE
8
Calque 1
10
64.109038
20
24.717175
11
60.829666
21
22.280005
0
LINE
8
Calque 1
10
60.829666
20
22.280005
11
57.589774
21
20.057554
0
LINE
8
Calque 1
10
57.589774
20
20.057554
11
54.808743
21
18.349512
0
LINE
8
Calque 1
10
54.808743
20
18.349512
11
50.842482
21
15.845300
0
LINE
8
Calque 1
10
50.842482
20
15.845300
11
46.415985
21
12.299769
0
LINE
8
Calque 1
10
46.415985
20
12.299769
11
40.271653
21
7.564130
0
LINE
8
Calque 1
10
40.271653
20
7.564130
11
37.196309
21
5.524374
0
LINE
8
Calque 1
10
37.196309
20
5.524374
11
36.309403
21
5.118857
0
LINE
8
Calque 1
10
36.309403
20
5.118857
11
35.640419
21
5.003575
0
LINE
8
Calque 1
10
35.640419
20
5.003575
11
34.984713
21
5.076220
0
LINE
8
Calque 1
10
34.984713
20
5.076220
11
34.856724
21
5.156373
0
LINE
8
Calque 1
10
34.856724
20
5.156373
11
34.890088
21
5.256278
0
LINE
8
Calque 1
10
34.890088
20
5.256278
11
39.521322
21
8.598173
0
LINE
8
Calque 1
10
39.521322
20
8.598173
11
43.075469
21
11.222638
0
LINE
8
Calque 1
10
43.075469
20
11.222638
11
45.516799
21
13.193768
0
LINE
8
Calque 1
10
45.516799
20
13.193768
11
47.541881
21
14.921133
0
LINE
8
Calque 1
10
47.541881
20
14.921133
11
49.813121
21
16.646362
0
LINE
8
Calque 1
10
49.813121
20
16.646362
11
52.194073
21
18.271156
0
LINE
8
Calque 1
10
52.194073
20
18.271156
11
54.548287
21
19.697219
0
LINE
8
Calque 1
10
54.548287
20
19.697219
11
57.002663
21
21.161701
0
LINE
8
Calque 1
10
57.002663
20
21.161701
11
59.406263
21
22.784469
0
LINE
8
Calque 1
10
59.406263
20
22.784469
11
65.052550
21
27.214604
0
LINE
8
Calque 1
10
65.052550
20
27.214604
11
68.154984
21
29.602293
0
LINE
8
Calque 1
10
68.154984
20
29.602293
11
70.699730
21
31.254654
0
LINE
8
Calque 1
10
70.699730
20
31.254654
11
75.444537
21
34.359132
0
LINE
8
Calque 1
10
75.444537
20
34.359132
11
83.836382
21
40.238596
0
LINE
8
Calque 1
10
83.836382
20
40.238596
11
91.809928
21
45.841647
0
LINE
8
Calque 1
10
91.809928
20
45.841647
11
93.793715
21
47.095229
0
LINE
8
Calque 1
10
93.793715
20
47.095229
11
94.772656
21
47.514629
0
LINE
8
Calque 1
10
94.772656
20
47.514629
11
94.772656
21
47.514629
0
LINE
8
Calque 1
10
94.768951
20
44.735978
11
94.925561
21
44.596126
0
LINE
8
Calque 1
10
94.925561
20
44.596126
11
94.975670
21
44.167548
0
LINE
8
Calque 1
10
94.975670
20
44.167548
11
94.614334
21
43.529670
0
LINE
8
Calque 1
10
94.614334
20
43.529670
11
93.195579
21
42.291750
0
LINE
8
Calque 1
10
93.195579
20
42.291750
11
85.177315
21
36.430559
0
LINE
8
Calque 1
10
85.177315
20
36.430559
11
73.711346
21
28.426923
0
LINE
8
Calque 1
10
73.711346
20
28.426923
11
70.096084
21
25.840518
0
LINE
8
Calque 1
10
70.096084
20
25.840518
11
62.238779
21
20.053235
0
LINE
8
Calque 1
10
62.238779
20
20.053235
11
57.914246
21
17.063927
0
LINE
8
Calque 1
10
57.914246
20
17.063927
11
55.108886
21
15.268575
0
LINE
8
Calque 1
10
55.108886
20
15.268575
11
53.028380
21
13.918045
0
LINE
8
Calque 1
10
53.028380
20
13.918045
11
50.762396
21
12.182982
0
LINE
8
Calque 1
10
50.762396
20
12.182982
11
44.783957
21
7.588948
0
LINE
8
Calque 1
10
44.783957
20
7.588948
11
41.707066
21
5.518279
0
LINE
8
Calque 1
10
41.707066
20
5.518279
11
40.827958
21
5.115796
0
LINE
8
Calque 1
10
40.827958
20
5.115796
11
40.152723
21
5.003575
0
LINE
8
Calque 1
10
40.152723
20
5.003575
11
39.486295
21
5.076319
0
LINE
8
Calque 1
10
39.486295
20
5.076319
11
39.354875
21
5.156485
0
LINE
8
Calque 1
10
39.354875
20
5.156485
11
39.386861
21
5.256278
0
LINE
8
Calque 1
10
39.386861
20
5.256278
11
43.268796
21
8.073161
0
LINE
8
Calque 1
10
43.268796
20
8.073161
11
48.523785
21
12.092018
0
LINE
8
Calque 1
10
48.523785
20
12.092018
11
51.726483
21
14.712095
0
LINE
8
Calque 1
10
51.726483
20
14.712095
11
54.659306
21
16.538759
0
LINE
8
Calque 1
10
54.659306
20
16.538759
11
57.427010
21
18.266489
0
LINE
8
Calque 1
10
57.427010
20
18.266489
11
61.276216
21
20.909981
0
LINE
8
Calque 1
10
61.276216
20
20.909981
11
65.264041
21
23.803118
0
LINE
8
Calque 1
10
65.264041
20
23.803118
11
68.447600
21
26.279779
0
LINE
8
Calque 1
10
68.447600
20
26.279779
11
70.669561
21
27.983971
0
LINE
8
Calque 1
10
70.669561
20
27.983971
11
72.644230
21
29.288352
0
LINE
8
Calque 1
10
72.644230
20
29.288352
11
76.820120
21
32.085273
0
LINE
8
Calque 1
10
76.820120
20
32.085273
11
84.334459
21
37.377263
0
LINE
8
Calque 1
10
84.334459
20
37.377263
11
94.600491
21
44.675521
0
LINE
8
Calque 1
10
94.600491
20
44.675521
11
94.768951
21
44.735475
0
LINE
8
Calque 1
10
94.768951
20
44.735475
11
94.768951
21
44.735978
0
LINE
8
Calque 1
10
94.861450
20
41.572862
11
94.920372
21
40.841660
0
LINE
8
Calque 1
10
94.920372
20
40.841660
11
94.131556
21
39.949972
0
LINE
8
Calque 1
10
94.131556
20
39.949972
11
91.442240
21
37.825771
0
LINE
8
Calque 1
10
91.442240
20
37.825771
11
77.740046
21
27.906012
0
LINE
8
Calque 1
10
77.740046
20
27.906012
11
57.356809
21
13.402022
0
LINE
8
Calque 1
10
57.356809
20
13.402022
11
49.887499
21
8.052471
0
LINE
8
Calque 1
10
49.887499
20
8.052471
11
46.313948
21
5.589613
0
LINE
8
Calque 1
10
46.313948
20
5.589613
11
45.359156
21
5.128062
0
LINE
8
Calque 1
10
45.359156
20
5.128062
11
44.656825
21
5.003575
0
LINE
8
Calque 1
10
44.656825
20
5.003575
11
43.986455
21
5.075833
0
LINE
8
Calque 1
10
43.986455
20
5.075833
11
43.852749
21
5.155357
0
LINE
8
Calque 1
10
43.852749
20
5.155357
11
43.883238
21
5.254215
0
LINE
8
Calque 1
10
43.883238
20
5.254215
11
47.465453
21
7.843715
0
LINE
8
Calque 1
10
47.465453
20
7.843715
11
52.261020
21
11.444002
0
LINE
8
Calque 1
10
52.261020
20
11.444002
11
55.708325
21
13.893987
0
LINE
8
Calque 1
10
55.708325
20
13.893987
11
62.273899
21
18.417692
0
LINE
8
Calque 1
10
62.273899
20
18.417692
11
72.943950
21
26.074621
0
LINE
8
Calque 1
10
72.943950
20
26.074621
11
94.861450
21
41.572862
0
LINE
8
Calque 1
10
94.861450
20
41.572862
11
94.861450
21
41.572862
0
LINE
8
Calque 1
10
94.840812
20
37.902302
11
94.960695
21
37.741594
0
LINE
8
Calque 1
10
94.960695
20
37.741594
11
94.820073
21
37.399200
0
LINE
8
Calque 1
10
94.820073
20
37.399200
11
94.286916
21
36.830518
0
LINE
8
Calque 1
10
94.286916
20
36.830518
11
91.315723
21
34.469536
0
LINE
8
Calque 1
10
91.315723
20
34.469536
11
72.662883
21
21.039792
0
LINE
8
Calque 1
10
72.662883
20
21.039792
11
54.214503
21
8.019315
0
LINE
8
Calque 1
10
54.214503
20
8.019315
11
50.638506
21
5.691639
0
LINE
8
Calque 1
10
50.638506
20
5.691639
11
49.222470
21
5.057841
0
LINE
8
Calque 1
10
49.222470
20
5.057841
11
48.454732
21
5.062306
0
LINE
8
Calque 1
10
48.454732
20
5.062306
11
48.319356
21
5.130432
0
LINE
8
Calque 1
10
48.319356
20
5.130432
11
48.364639
21
5.239213
0
LINE
8
Calque 1
10
48.364639
20
5.239213
11
71.820027
21
22.036106
0
LINE
8
Calque 1
10
71.820027
20
22.036106
11
90.051013
21
34.954176
0
LINE
8
Calque 1
10
90.051013
20
34.954176
11
93.581105
21
37.304613
0
LINE
8
Calque 1
10
93.581105
20
37.304613
11
94.840812
21
37.902302
0
LINE
8
Calque 1
10
94.840812
20
37.902302
11
94.840812
21
37.902302
0
LINE
8
Calque 1
10
94.810835
20
35.160349
11
94.937864
21
35.014385
0
LINE
8
Calque 1
10
94.937864
20
35.014385
11
94.975697
21
34.576917
0
LINE
8
Calque 1
10
94.975697
20
34.576917
11
94.838439
21
34.249899
0
LINE
8
Calque 1
10
94.838439
20
34.249899
11
94.326451
21
33.704216
0
LINE
8
Calque 1
10
94.326451
20
33.704216
11
91.576992
21
31.503451
0
LINE
8
Calque 1
10
91.576992
20
31.503451
11
74.967110
21
19.490526
0
LINE
8
Calque 1
10
74.967110
20
19.490526
11
58.354585
21
7.740779
0
LINE
8
Calque 1
10
58.354585
20
7.740779
11
55.107644
21
5.642957
0
LINE
8
Calque 1
10
55.107644
20
5.642957
11
53.760174
21
5.060408
0
LINE
8
Calque 1
10
53.760174
20
5.060408
11
52.950272
21
5.046749
0
LINE
8
Calque 1
10
52.950272
20
5.046749
11
52.812333
21
5.113457
0
LINE
8
Calque 1
10
52.812333
20
5.113457
11
52.861015
21
5.227836
0
LINE
8
Calque 1
10
52.861015
20
5.227836
11
73.693301
21
20.143702
0
LINE
8
Calque 1
10
73.693301
20
20.143702
11
94.600518
21
35.061130
0
LINE
8
Calque 1
10
94.600518
20
35.061130
11
94.810835
21
35.159846
0
LINE
8
Calque 1
10
94.810835
20
35.159846
11
94.810835
21
35.160349
0
LINE
8
Calque 1
10
94.805808
20
31.879943
11
94.805808
21
31.879943
0
LINE
8
Calque 1
10
94.805808
20
31.879943
11
94.938963
21
31.737862
0
LINE
8
Calque 1
10
94.938963
20
31.737862
11
94.923627
21
31.261374
0
LINE
8
Calque 1
10
94.923627
20
31.261374
11
94.743684
21
30.930091
0
LINE
8
Calque 1
10
94.743684
20
30.930091
11
94.192796
21
30.375020
0
LINE
8
Calque 1
10
94.192796
20
30.375020
11
91.542031
21
28.264638
0
LINE
8
Calque 1
10
91.542031
20
28.264638
11
76.991434
21
17.740760
0
LINE
8
Calque 1
10
76.991434
20
17.740760
11
62.175299
21
7.292261
0
LINE
8
Calque 1
10
62.175299
20
7.292261
11
59.301214
21
5.464125
0
LINE
8
Calque 1
10
59.301214
20
5.464125
11
58.122301
21
5.004078
0
LINE
8
Calque 1
10
58.122301
20
5.004078
11
57.463231
21
5.076941
0
LINE
8
Calque 1
10
57.463231
20
5.076941
11
57.336869
21
5.157992
0
LINE
8
Calque 1
10
57.336869
20
5.157992
11
57.371970
21
5.259877
0
LINE
8
Calque 1
10
57.371970
20
5.259877
11
94.623907
21
31.810172
0
LINE
8
Calque 1
10
94.623907
20
31.810172
11
94.805808
21
31.880446
0
LINE
8
Calque 1
10
94.805808
20
31.880446
11
94.805808
21
31.879943
0
LINE
8
Calque 1
10
94.808454
20
28.683225
11
94.968659
21
28.009385
0
LINE
8
Calque 1
10
94.968659
20
28.009385
11
94.303733
21
27.202199
0
LINE
8
Calque 1
10
94.303733
20
27.202199
11
91.903961
21
25.285519
0
LINE
8
Calque 1
10
91.903961
20
25.285519
11
79.415121
21
16.244225
0
LINE
8
Calque 1
10
79.415121
20
16.244225
11
66.515459
21
7.176179
0
LINE
8
Calque 1
10
66.515459
20
7.176179
11
63.890235
21
5.525831
0
LINE
8
Calque 1
10
63.890235
20
5.525831
11
62.711228
21
5.058873
0
LINE
8
Calque 1
10
62.711228
20
5.058873
11
61.943991
21
5.063030
0
LINE
8
Calque 1
10
61.943991
20
5.063030
11
61.808446
21
5.130813
0
LINE
8
Calque 1
10
61.808446
20
5.130813
11
61.853424
21
5.239213
0
LINE
8
Calque 1
10
61.853424
20
5.239213
11
94.808454
21
28.683225
0
LINE
8
Calque 1
10
94.808454
20
28.683225
11
94.808454
21
28.683225
0
LINE
8
Calque 1
10
94.777974
20
25.095850
11
94.926802
21
25.011633
0
LINE
8
Calque 1
10
94.926802
20
25.011633
11
94.880123
21
24.470881
0
LINE
8
Calque 1
10
94.880123
20
24.470881
11
94.626553
21
24.015319
0
LINE
8
Calque 1
10
94.626553
20
24.015319
11
81.187615
21
14.312029
0
LINE
8
Calque 1
10
81.187615
20
14.312029
11
70.255151
21
6.641400
0
LINE
8
Calque 1
10
70.255151
20
6.641400
11
68.097945
21
5.333220
0
LINE
8
Calque 1
10
68.097945
20
5.333220
11
67.099602
21
5.019080
0
LINE
8
Calque 1
10
67.099602
20
5.019080
11
66.291321
21
5.094962
0
LINE
8
Calque 1
10
66.291321
20
5.094962
11
66.649493
21
5.461436
0
LINE
8
Calque 1
10
66.649493
20
5.461436
11
81.037226
21
15.750196
0
LINE
8
Calque 1
10
81.037226
20
15.750196
11
91.441202
21
23.099773
0
LINE
8
Calque 1
10
91.441202
20
23.099773
11
93.772637
21
24.620092
0
LINE
8
Calque 1
10
93.772637
20
24.620092
11
94.777974
21
25.095850
0
LINE
8
Calque 1
10
94.777974
20
25.095850
11
94.777974
21
25.095850
0
LINE
8
Calque 1
10
94.768713
20
22.253672
11
94.925059
21
22.114909
0
LINE
8
Calque 1
10
94.925059
20
22.114909
11
94.974903
21
21.688312
0
LINE
8
Calque 1
10
94.974903
20
21.688312
11
94.569128
21
21.019294
0
LINE
8
Calque 1
10
94.569128
20
21.019294
11
92.974847
21
19.654376
0
LINE
8
Calque 1
10
92.974847
20
19.654376
11
83.959043
21
13.066107
0
LINE
8
Calque 1
10
83.959043
20
13.066107
11
74.768216
21
6.623233
0
LINE
8
Calque 1
10
74.768216
20
6.623233
11
72.779013
21
5.424202
0
LINE
8
Calque 1
10
72.779013
20
5.424202
11
71.744304
21
5.060408
0
LINE
8
Calque 1
10
71.744304
20
5.060408
11
70.935235
21
5.047155
0
LINE
8
Calque 1
10
70.935235
20
5.047155
11
70.796902
21
5.113908
0
LINE
8
Calque 1
10
70.796902
20
5.113908
11
70.845145
21
5.227836
0
LINE
8
Calque 1
10
70.845145
20
5.227836
11
94.600253
21
22.193718
0
LINE
8
Calque 1
10
94.600253
20
22.193718
11
94.768713
21
22.253672
0
LINE
8
Calque 1
10
94.768713
20
22.253672
11
94.768713
21
22.253672
0
LINE
8
Calque 1
10
94.855020
20
19.092091
11
94.919605
21
18.359328
0
LINE
8
Calque 1
10
94.919605
20
18.359328
11
94.473697
21
17.715852
0
LINE
8
Calque 1
10
94.473697
20
17.715852
11
93.041952
21
16.490178
0
LINE
8
Calque 1
10
93.041952
20
16.490178
11
85.982706
21
11.315838
0
LINE
8
Calque 1
10
85.982706
20
11.315838
11
78.590921
21
6.176386
0
LINE
8
Calque 1
10
78.590921
20
6.176386
11
76.972867
21
5.246121
0
LINE
8
Calque 1
10
76.972867
20
5.246121
11
76.105796
21
5.003575
0
LINE
8
Calque 1
10
76.105796
20
5.003575
11
75.448118
21
5.076064
0
LINE
8
Calque 1
10
75.448118
20
5.076064
11
75.321379
21
5.156630
0
LINE
8
Calque 1
10
75.321379
20
5.156630
11
75.355968
21
5.257813
0
LINE
8
Calque 1
10
75.355968
20
5.257813
11
94.855020
21
19.092091
0
LINE
8
Calque 1
10
94.855020
20
19.092091
11
94.855020
21
19.092091
0
LINE
8
Calque 1
10
94.787843
20
15.585863
11
94.931819
21
15.494943
0
LINE
8
Calque 1
10
94.931819
20
15.494943
11
94.960959
21
15.263390
0
LINE
8
Calque 1
10
94.960959
20
15.263390
11
94.740347
21
14.680698
0
LINE
8
Calque 1
10
94.740347
20
14.680698
11
93.834596
21
13.793624
0
LINE
8
Calque 1
10
93.834596
20
13.793624
11
88.397025
21
9.799142
0
LINE
8
Calque 1
10
88.397025
20
9.799142
11
82.907960
21
6.048182
0
LINE
8
Calque 1
10
82.907960
20
6.048182
11
81.544831
21
5.302656
0
LINE
8
Calque 1
10
81.544831
20
5.302656
11
80.692077
21
5.057841
0
LINE
8
Calque 1
10
80.692077
20
5.057841
11
79.928507
21
5.062333
0
LINE
8
Calque 1
10
79.928507
20
5.062333
11
79.792840
21
5.129941
0
LINE
8
Calque 1
10
79.792840
20
5.129941
11
79.837342
21
5.237678
0
LINE
8
Calque 1
10
79.837342
20
5.237678
11
87.555731
21
10.797017
0
LINE
8
Calque 1
10
87.555731
20
10.797017
11
92.959329
21
14.589966
0
LINE
8
Calque 1
10
92.959329
20
14.589966
11
94.201449
21
15.365700
0
LINE
8
Calque 1
10
94.201449
20
15.365700
11
94.787843
21
15.585863
0
LINE
8
Calque 1
10
94.787843
20
15.585863
11
94.787843
21
15.585863
0
LINE
8
Calque 1
10
94.724263
20
12.658385
11
94.097440
21
10.834217
0
LINE
8
Calque 1
10
94.097440
20
10.834217
11
90.558642
21
8.166691
0
LINE
8
Calque 1
10
90.558642
20
8.166691
11
86.806164
21
5.624995
0
LINE
8
Calque 1
10
86.806164
20
5.624995
11
85.808304
21
5.137760
0
LINE
8
Calque 1
10
85.808304
20
5.137760
11
85.103681
21
5.003575
0
LINE
8
Calque 1
10
85.103681
20
5.003575
11
84.444089
21
5.075942
0
LINE
8
Calque 1
10
84.444089
20
5.075942
11
84.315437
21
5.156061
0
LINE
8
Calque 1
10
84.315437
20
5.156061
11
84.348694
21
5.256278
0
LINE
8
Calque 1
10
84.348694
20
5.256278
11
89.429508
21
8.903079
0
LINE
8
Calque 1
10
89.429508
20
8.903079
11
94.600253
21
12.582952
0
LINE
8
Calque 1
10
94.600253
20
12.582952
11
94.724263
21
12.658385
0
LINE
8
Calque 1
10
94.724263
20
12.658385
11
94.724263
21
12.658385
 0 
ENDSEC
 0 
EOF