999
"DXF R12 Output" (www.mydxf.blogspot.com)
 0 
SECTION
 2 
HEADER
 9 
$ACADVER
 1 
AC1009
 9 
$EXTMIN
 10 
 0 
 20 
 0 
 9 
$EXTMAX
 10 
 8.5 
 20 
 11 
 0 
ENDSEC
 0 
SECTION
 2 
ENTITIES
0
LINE
8
Calque 1
10
-0.000552
20
99.999614
11
-0.000552
21
86.999382
0
LINE
8
Calque 1
10
-0.000552
20
86.999382
11
-0.000552
21
12.999856
0
LINE
8
Calque 1
10
-0.000552
20
12.999856
11
-0.000552
21
-0.000351
0
LINE
8
Calque 1
10
-0.000552
20
-0.000351
11
12.999681
21
-0.000351
0
LINE
8
Calque 1
10
12.999681
20
-0.000351
11
86.999207
21
-0.000351
0
LINE
8
Calque 1
10
86.999207
20
-0.000351
11
99.999413
21
-0.000351
0
LINE
8
Calque 1
10
99.999413
20
-0.000351
11
99.999413
21
12.999856
0
LINE
8
Calque 1
10
99.999413
20
12.999856
11
99.999413
21
86.999382
0
LINE
8
Calque 1
10
99.999413
20
86.999382
11
99.999413
21
99.999614
0
LINE
8
Calque 1
10
99.999413
20
99.999614
11
86.999207
21
99.999614
0
LINE
8
Calque 1
10
86.999207
20
99.999614
11
12.999681
21
99.999614
0
LINE
8
Calque 1
10
12.999681
20
99.999614
11
-0.000552
21
99.999614
0
LINE
8
Calque 1
10
45.613134
20
94.993201
11
44.863332
21
94.411860
0
LINE
8
Calque 1
10
44.863332
20
94.411860
11
5.166040
21
66.151088
0
LINE
8
Calque 1
10
5.166040
20
66.151088
11
5.006893
21
66.825457
0
LINE
8
Calque 1
10
5.006893
20
66.825457
11
5.194499
21
67.143850
0
LINE
8
Calque 1
10
5.194499
20
67.143850
11
5.817295
21
67.737269
0
LINE
8
Calque 1
10
5.817295
20
67.737269
11
8.755720
21
70.039168
0
LINE
8
Calque 1
10
8.755720
20
70.039168
11
24.114734
21
81.133100
0
LINE
8
Calque 1
10
24.114734
20
81.133100
11
39.993133
21
92.332971
0
LINE
8
Calque 1
10
39.993133
20
92.332971
11
43.102581
21
94.326868
0
LINE
8
Calque 1
10
43.102581
20
94.326868
11
44.413727
21
94.879510
0
LINE
8
Calque 1
10
44.413727
20
94.879510
11
45.613134
21
94.993201
0
LINE
8
Calque 1
10
54.604829
20
94.971505
11
53.165127
21
93.925582
0
LINE
8
Calque 1
10
53.165127
20
93.925582
11
25.380816
21
74.019839
0
LINE
8
Calque 1
10
25.380816
20
74.019839
11
5.973759
21
60.204162
0
LINE
8
Calque 1
10
5.973759
20
60.204162
11
4.999644
21
59.515822
0
LINE
8
Calque 1
10
4.999644
20
59.515822
11
4.999644
21
60.274964
0
LINE
8
Calque 1
10
4.999644
20
60.274964
11
5.168328
21
60.618355
0
LINE
8
Calque 1
10
5.168328
20
60.618355
11
5.788738
21
61.236874
0
LINE
8
Calque 1
10
5.788738
20
61.236874
11
9.070872
21
63.811655
0
LINE
8
Calque 1
10
9.070872
20
63.811655
11
28.603358
21
77.898679
0
LINE
8
Calque 1
10
28.603358
20
77.898679
11
48.260800
21
91.811928
0
LINE
8
Calque 1
10
48.260800
20
91.811928
11
51.960373
21
94.227165
0
LINE
8
Calque 1
10
51.960373
20
94.227165
11
52.879032
21
94.710692
0
LINE
8
Calque 1
10
52.879032
20
94.710692
11
53.405950
21
94.868159
0
LINE
8
Calque 1
10
53.405950
20
94.868159
11
54.604829
21
94.971505
0
LINE
8
Calque 1
10
13.792901
20
94.924992
11
14.071957
21
94.924992
0
LINE
8
Calque 1
10
14.071957
20
94.924992
11
13.357265
21
94.380850
0
LINE
8
Calque 1
10
13.357265
20
94.380850
11
5.855940
21
89.061806
0
LINE
8
Calque 1
10
5.855940
20
89.061806
11
6.782672
21
90.711193
0
LINE
8
Calque 1
10
6.782672
20
90.711193
11
7.994300
21
92.146368
0
LINE
8
Calque 1
10
7.994300
20
92.146368
11
9.858178
21
93.410145
0
LINE
8
Calque 1
10
9.858178
20
93.410145
11
11.593052
21
94.408235
0
LINE
8
Calque 1
10
11.593052
20
94.408235
11
13.792901
21
94.924992
0
LINE
8
Calque 1
10
13.792901
20
94.924992
11
13.792901
21
94.924992
0
LINE
8
Calque 1
10
17.527543
20
94.924992
11
18.567804
21
94.924992
0
LINE
8
Calque 1
10
18.567804
20
94.924992
11
17.853112
21
94.379289
0
LINE
8
Calque 1
10
17.853112
20
94.379289
11
5.373790
21
85.517320
0
LINE
8
Calque 1
10
5.373790
20
85.517320
11
5.146848
21
85.478307
0
LINE
8
Calque 1
10
5.146848
20
85.478307
11
5.025493
21
85.694564
0
LINE
8
Calque 1
10
5.025493
20
85.694564
11
5.087512
21
86.317260
0
LINE
8
Calque 1
10
5.087512
20
86.317260
11
5.547472
21
86.881404
0
LINE
8
Calque 1
10
5.547472
20
86.881404
11
6.542874
21
87.737049
0
LINE
8
Calque 1
10
6.542874
20
87.737049
11
10.743476
21
90.827580
0
LINE
8
Calque 1
10
10.743476
20
90.827580
11
15.587604
21
94.141254
0
LINE
8
Calque 1
10
15.587604
20
94.141254
11
16.771108
21
94.759134
0
LINE
8
Calque 1
10
16.771108
20
94.759134
11
17.527543
21
94.924992
0
LINE
8
Calque 1
10
17.527543
20
94.924992
11
17.527543
21
94.924992
0
LINE
8
Calque 1
10
22.029608
20
94.924992
11
22.958215
21
94.812861
0
LINE
8
Calque 1
10
22.958215
20
94.812861
11
5.973759
21
82.682869
0
LINE
8
Calque 1
10
5.973759
20
82.682869
11
4.999644
21
81.996091
0
LINE
8
Calque 1
10
4.999644
20
81.996091
11
4.999644
21
82.753142
0
LINE
8
Calque 1
10
4.999644
20
82.753142
11
5.286230
21
83.349758
0
LINE
8
Calque 1
10
5.286230
20
83.349758
11
6.429553
21
84.396612
0
LINE
8
Calque 1
10
6.429553
20
84.396612
11
12.987775
21
89.217857
0
LINE
8
Calque 1
10
12.987775
20
89.217857
11
19.701552
21
93.876231
0
LINE
8
Calque 1
10
19.701552
20
93.876231
11
21.189217
21
94.710054
0
LINE
8
Calque 1
10
21.189217
20
94.710054
11
22.029608
21
94.924992
0
LINE
8
Calque 1
10
22.029608
20
94.924992
11
22.029608
21
94.924992
0
LINE
8
Calque 1
10
31.022837
20
94.924992
11
31.949909
21
94.811830
0
LINE
8
Calque 1
10
31.949909
20
94.811830
11
5.117992
21
75.742222
0
LINE
8
Calque 1
10
5.117992
20
75.742222
11
5.054439
21
76.474984
0
LINE
8
Calque 1
10
5.054439
20
76.474984
11
5.647077
21
77.225835
0
LINE
8
Calque 1
10
5.647077
20
77.225835
11
7.620173
21
78.837810
0
LINE
8
Calque 1
10
7.620173
20
78.837810
11
17.560113
21
86.066118
0
LINE
8
Calque 1
10
17.560113
20
86.066118
11
27.932531
21
93.335281
0
LINE
8
Calque 1
10
27.932531
20
93.335281
11
30.031704
21
94.605690
0
LINE
8
Calque 1
10
30.031704
20
94.605690
11
31.022837
21
94.924992
0
LINE
8
Calque 1
10
31.022837
20
94.924992
11
31.022837
21
94.924992
0
LINE
8
Calque 1
10
40.012970
20
94.924992
11
40.942107
21
94.811300
0
LINE
8
Calque 1
10
40.942107
20
94.811300
11
23.283281
21
82.187278
0
LINE
8
Calque 1
10
23.283281
20
82.187278
11
5.348470
21
69.354500
0
LINE
8
Calque 1
10
5.348470
20
69.354500
11
5.048978
21
69.272823
0
LINE
8
Calque 1
10
5.048978
20
69.272823
11
5.048750
21
69.905362
0
LINE
8
Calque 1
10
5.048750
20
69.905362
11
5.187059
21
70.243636
0
LINE
8
Calque 1
10
5.187059
20
70.243636
11
5.624454
21
70.743035
0
LINE
8
Calque 1
10
5.624454
20
70.743035
11
7.933985
21
72.634406
0
LINE
8
Calque 1
10
7.933985
20
72.634406
11
22.054399
21
82.851858
0
LINE
8
Calque 1
10
22.054399
20
82.851858
11
36.155955
21
92.789979
0
LINE
8
Calque 1
10
36.155955
20
92.789979
11
38.872339
21
94.501647
0
LINE
8
Calque 1
10
38.872339
20
94.501647
11
40.012970
21
94.924992
0
LINE
8
Calque 1
10
40.012970
20
94.924992
11
40.012970
21
94.924992
0
LINE
8
Calque 1
10
48.995881
20
94.924992
11
50.039740
21
94.924992
0
LINE
8
Calque 1
10
50.039740
20
94.924992
11
49.325048
21
94.377226
0
LINE
8
Calque 1
10
49.325048
20
94.377226
11
5.351063
21
63.025172
0
LINE
8
Calque 1
10
5.351063
20
63.025172
11
5.062585
21
63.014671
0
LINE
8
Calque 1
10
5.062585
20
63.014671
11
5.051343
21
63.574499
0
LINE
8
Calque 1
10
5.051343
20
63.574499
11
5.259421
21
63.926545
0
LINE
8
Calque 1
10
5.259421
20
63.926545
11
5.910304
21
64.553362
0
LINE
8
Calque 1
10
5.910304
20
64.553362
11
9.071609
21
67.028257
0
LINE
8
Calque 1
10
9.071609
20
67.028257
11
26.550247
21
79.641699
0
LINE
8
Calque 1
10
26.550247
20
79.641699
11
44.344938
21
92.217220
0
LINE
8
Calque 1
10
44.344938
20
92.217220
11
47.700404
21
94.387180
0
LINE
8
Calque 1
10
47.700404
20
94.387180
11
48.529019
21
94.807930
0
LINE
8
Calque 1
10
48.529019
20
94.807930
11
48.995881
21
94.924992
0
LINE
8
Calque 1
10
48.995881
20
94.924992
11
48.995881
21
94.924992
0
LINE
8
Calque 1
10
57.996359
20
94.924992
11
58.925998
21
94.820085
0
LINE
8
Calque 1
10
58.925998
20
94.820085
11
55.354128
21
92.232648
0
LINE
8
Calque 1
10
55.354128
20
92.232648
11
49.509542
21
87.732171
0
LINE
8
Calque 1
10
49.509542
20
87.732171
11
47.177084
21
85.947267
0
LINE
8
Calque 1
10
47.177084
20
85.947267
11
44.936701
21
84.489468
0
LINE
8
Calque 1
10
44.936701
20
84.489468
11
41.932015
21
82.559012
0
LINE
8
Calque 1
10
41.932015
20
82.559012
11
37.466918
21
79.459249
0
LINE
8
Calque 1
10
37.466918
20
79.459249
11
32.866670
21
76.130063
0
LINE
8
Calque 1
10
32.866670
20
76.130063
11
29.456532
21
73.511337
0
LINE
8
Calque 1
10
29.456532
20
73.511337
11
27.670617
21
72.144928
0
LINE
8
Calque 1
10
27.670617
20
72.144928
11
26.282568
21
71.247406
0
LINE
8
Calque 1
10
26.282568
20
71.247406
11
15.088432
21
63.483536
0
LINE
8
Calque 1
10
15.088432
20
63.483536
11
6.538148
21
57.503431
0
LINE
8
Calque 1
10
6.538148
20
57.503431
11
5.266852
21
56.837118
0
LINE
8
Calque 1
10
5.266852
20
56.837118
11
5.059124
21
56.880106
0
LINE
8
Calque 1
10
5.059124
20
56.880106
11
5.013614
21
57.095840
0
LINE
8
Calque 1
10
5.013614
20
57.095840
11
5.320244
21
57.739150
0
LINE
8
Calque 1
10
5.320244
20
57.739150
11
6.610418
21
58.898375
0
LINE
8
Calque 1
10
6.610418
20
58.898375
11
14.475022
21
64.620422
0
LINE
8
Calque 1
10
14.475022
20
64.620422
11
25.776130
21
72.526903
0
LINE
8
Calque 1
10
25.776130
20
72.526903
11
28.978007
21
74.828564
0
LINE
8
Calque 1
10
28.978007
20
74.828564
11
36.440336
21
80.288750
0
LINE
8
Calque 1
10
36.440336
20
80.288750
11
44.272651
21
85.638763
0
LINE
8
Calque 1
10
44.272651
20
85.638763
11
46.497248
21
87.127069
0
LINE
8
Calque 1
10
46.497248
20
87.127069
11
48.412978
21
88.598786
0
LINE
8
Calque 1
10
48.412978
20
88.598786
11
53.525304
21
92.492072
0
LINE
8
Calque 1
10
53.525304
20
92.492072
11
56.465581
21
94.434336
0
LINE
8
Calque 1
10
56.465581
20
94.434336
11
57.326153
21
94.817025
0
LINE
8
Calque 1
10
57.326153
20
94.817025
11
57.996359
21
94.924992
0
LINE
8
Calque 1
10
57.996359
20
94.924992
11
57.996359
21
94.924992
0
LINE
8
Calque 1
10
62.493741
20
94.924992
11
63.421845
21
94.815454
0
LINE
8
Calque 1
10
63.421845
20
94.815454
11
59.415397
21
91.926737
0
LINE
8
Calque 1
10
59.415397
20
91.926737
11
55.921364
21
89.304743
0
LINE
8
Calque 1
10
55.921364
20
89.304743
11
52.971346
21
86.903788
0
LINE
8
Calque 1
10
52.971346
20
86.903788
11
49.073751
21
83.791987
0
LINE
8
Calque 1
10
49.073751
20
83.791987
11
45.015759
21
81.308281
0
LINE
8
Calque 1
10
45.015759
20
81.308281
11
42.478100
21
79.752154
0
LINE
8
Calque 1
10
42.478100
20
79.752154
11
39.290120
21
77.548123
0
LINE
8
Calque 1
10
39.290120
20
77.548123
11
35.969152
21
75.068487
0
LINE
8
Calque 1
10
35.969152
20
75.068487
11
33.032530
21
72.685547
0
LINE
8
Calque 1
10
33.032530
20
72.685547
11
30.385308
21
70.623238
0
LINE
8
Calque 1
10
30.385308
20
70.623238
11
27.820457
21
68.930241
0
LINE
8
Calque 1
10
27.820457
20
68.930241
11
23.105915
21
65.828783
0
LINE
8
Calque 1
10
23.105915
20
65.828783
11
15.290494
21
60.380903
0
LINE
8
Calque 1
10
15.290494
20
60.380903
11
5.113335
21
53.262483
0
LINE
8
Calque 1
10
5.113335
20
53.262483
11
5.054439
21
53.998341
0
LINE
8
Calque 1
10
5.054439
20
53.998341
11
5.532839
21
54.667907
0
LINE
8
Calque 1
10
5.532839
20
54.667907
11
7.092135
21
55.983973
0
LINE
8
Calque 1
10
7.092135
20
55.983973
11
14.877585
21
61.667623
0
LINE
8
Calque 1
10
14.877585
20
61.667623
11
22.368043
21
66.905632
0
LINE
8
Calque 1
10
22.368043
20
66.905632
11
26.716643
21
69.762752
0
LINE
8
Calque 1
10
26.716643
20
69.762752
11
29.000229
21
71.253187
0
LINE
8
Calque 1
10
29.000229
20
71.253187
11
31.525650
21
73.205426
0
LINE
8
Calque 1
10
31.525650
20
73.205426
11
34.765200
21
75.775821
0
LINE
8
Calque 1
10
34.765200
20
75.775821
11
38.653930
21
78.620362
0
LINE
8
Calque 1
10
38.653930
20
78.620362
11
42.501945
21
81.250819
0
LINE
8
Calque 1
10
42.501945
20
81.250819
11
45.619352
21
83.178962
0
LINE
8
Calque 1
10
45.619352
20
83.178962
11
48.363527
21
84.967311
0
LINE
8
Calque 1
10
48.363527
20
84.967311
11
51.164218
21
87.137891
0
LINE
8
Calque 1
10
51.164218
20
87.137891
11
57.722992
21
92.252809
0
LINE
8
Calque 1
10
57.722992
20
92.252809
11
60.912544
21
94.395369
0
LINE
8
Calque 1
10
60.912544
20
94.395369
11
61.811500
21
94.809889
0
LINE
8
Calque 1
10
61.811500
20
94.809889
11
62.493741
21
94.924992
0
LINE
8
Calque 1
10
62.493741
20
94.924992
11
62.493741
21
94.924992
0
LINE
8
Calque 1
10
66.979772
20
94.924992
11
68.023632
21
94.924992
0
LINE
8
Calque 1
10
68.023632
20
94.924992
11
67.308940
21
94.379819
0
LINE
8
Calque 1
10
67.308940
20
94.379819
11
61.817811
21
90.427081
0
LINE
8
Calque 1
10
61.817811
20
90.427081
11
57.690703
21
87.368974
0
LINE
8
Calque 1
10
57.690703
20
87.368974
11
54.474601
21
84.801067
0
LINE
8
Calque 1
10
54.474601
20
84.801067
11
49.961605
21
81.204088
0
LINE
8
Calque 1
10
49.961605
20
81.204088
11
47.771387
21
79.741356
0
LINE
8
Calque 1
10
47.771387
20
79.741356
11
45.327385
21
78.290368
0
LINE
8
Calque 1
10
45.327385
20
78.290368
11
41.263879
21
75.704876
0
LINE
8
Calque 1
10
41.263879
20
75.704876
11
37.070516
21
72.295393
0
LINE
8
Calque 1
10
37.070516
20
72.295393
11
34.780569
21
70.421032
0
LINE
8
Calque 1
10
34.780569
20
70.421032
11
32.127355
21
68.461096
0
LINE
8
Calque 1
10
32.127355
20
68.461096
11
29.426501
21
66.638577
0
LINE
8
Calque 1
10
29.426501
20
66.638577
11
26.993635
21
65.176470
0
LINE
8
Calque 1
10
26.993635
20
65.176470
11
22.511678
21
62.255206
0
LINE
8
Calque 1
10
22.511678
20
62.255206
11
15.154048
21
57.113409
0
LINE
8
Calque 1
10
15.154048
20
57.113409
11
5.374320
21
50.160353
0
LINE
8
Calque 1
10
5.374320
20
50.160353
11
5.089261
21
50.161858
0
LINE
8
Calque 1
10
5.089261
20
50.161858
11
4.999644
21
50.668326
0
LINE
8
Calque 1
10
4.999644
20
50.668326
11
5.356951
21
51.302924
0
LINE
8
Calque 1
10
5.356951
20
51.302924
11
6.759693
21
52.528265
0
LINE
8
Calque 1
10
6.759693
20
52.528265
11
14.686398
21
58.319008
0
LINE
8
Calque 1
10
14.686398
20
58.319008
11
22.269942
21
63.609368
0
LINE
8
Calque 1
10
22.269942
20
63.609368
11
26.900105
21
66.621331
0
LINE
8
Calque 1
10
26.900105
20
66.621331
11
28.935141
21
67.804609
0
LINE
8
Calque 1
10
28.935141
20
67.804609
11
30.876017
21
69.109070
0
LINE
8
Calque 1
10
30.876017
20
69.109070
11
36.021498
21
73.196113
0
LINE
8
Calque 1
10
36.021498
20
73.196113
11
41.049230
21
77.124363
0
LINE
8
Calque 1
10
41.049230
20
77.124363
11
43.196932
21
78.560787
0
LINE
8
Calque 1
10
43.196932
20
78.560787
11
45.313415
21
79.796744
0
LINE
8
Calque 1
10
45.313415
20
79.796744
11
47.567696
21
81.124889
0
LINE
8
Calque 1
10
47.567696
20
81.124889
11
49.856807
21
82.661636
0
LINE
8
Calque 1
10
49.856807
20
82.661636
11
52.086745
21
84.340126
0
LINE
8
Calque 1
10
52.086745
20
84.340126
11
54.163504
21
86.093502
0
LINE
8
Calque 1
10
54.163504
20
86.093502
11
57.145292
21
88.516176
0
LINE
8
Calque 1
10
57.145292
20
88.516176
11
61.169292
21
91.515390
0
LINE
8
Calque 1
10
61.169292
20
91.515390
11
65.213195
21
94.263167
0
LINE
8
Calque 1
10
65.213195
20
94.263167
11
66.259397
21
94.783358
0
LINE
8
Calque 1
10
66.259397
20
94.783358
11
66.979772
21
94.924992
0
LINE
8
Calque 1
10
66.979772
20
94.924992
11
66.979772
21
94.924992
0
LINE
8
Calque 1
10
71.475091
20
94.924992
11
72.519479
21
94.924992
0
LINE
8
Calque 1
10
72.519479
20
94.924992
11
71.804787
21
94.379819
0
LINE
8
Calque 1
10
71.804787
20
94.379819
11
63.896243
21
88.693348
0
LINE
8
Calque 1
10
63.896243
20
88.693348
11
58.111556
21
84.439617
0
LINE
8
Calque 1
10
58.111556
20
84.439617
11
54.305109
21
81.433323
0
LINE
8
Calque 1
10
54.305109
20
81.433323
11
49.760952
21
77.865331
0
LINE
8
Calque 1
10
49.760952
20
77.865331
11
47.451914
21
76.295771
0
LINE
8
Calque 1
10
47.451914
20
76.295771
11
45.576463
21
75.196519
0
LINE
8
Calque 1
10
45.576463
20
75.196519
11
43.790372
21
73.995101
0
LINE
8
Calque 1
10
43.790372
20
73.995101
11
41.230476
21
71.985328
0
LINE
8
Calque 1
10
41.230476
20
71.985328
11
38.511592
21
69.884865
0
LINE
8
Calque 1
10
38.511592
20
69.884865
11
34.968467
21
67.365570
0
LINE
8
Calque 1
10
34.968467
20
67.365570
11
27.618924
21
62.594722
0
LINE
8
Calque 1
10
27.618924
20
62.594722
11
16.518086
21
54.871680
0
LINE
8
Calque 1
10
16.518086
20
54.871680
11
5.348470
21
46.876322
0
LINE
8
Calque 1
10
5.348470
20
46.876322
11
5.048830
21
46.793623
0
LINE
8
Calque 1
10
5.048830
20
46.793623
11
5.048750
21
47.428216
0
LINE
8
Calque 1
10
5.048750
20
47.428216
11
5.426476
21
48.122718
0
LINE
8
Calque 1
10
5.426476
20
48.122718
11
6.842765
21
49.375768
0
LINE
8
Calque 1
10
6.842765
20
49.375768
11
15.287901
21
55.534695
0
LINE
8
Calque 1
10
15.287901
20
55.534695
11
23.167771
21
61.042724
0
LINE
8
Calque 1
10
23.167771
20
61.042724
11
27.876257
21
64.131050
0
LINE
8
Calque 1
10
27.876257
20
64.131050
11
30.549413
21
65.755069
0
LINE
8
Calque 1
10
30.549413
20
65.755069
11
33.603692
21
67.835367
0
LINE
8
Calque 1
10
33.603692
20
67.835367
11
36.793811
21
70.197481
0
LINE
8
Calque 1
10
36.793811
20
70.197481
11
39.874488
21
72.666947
0
LINE
8
Calque 1
10
39.874488
20
72.666947
11
42.784540
21
74.910478
0
LINE
8
Calque 1
10
42.784540
20
74.910478
11
45.365088
21
76.607276
0
LINE
8
Calque 1
10
45.365088
20
76.607276
11
47.705179
21
78.005126
0
LINE
8
Calque 1
10
47.705179
20
78.005126
11
50.037613
21
79.579975
0
LINE
8
Calque 1
10
50.037613
20
79.579975
11
52.306255
21
81.291631
0
LINE
8
Calque 1
10
52.306255
20
81.291631
11
54.454969
21
83.099904
0
LINE
8
Calque 1
10
54.454969
20
83.099904
11
58.058930
21
85.956283
0
LINE
8
Calque 1
10
58.058930
20
85.956283
11
63.567075
21
90.013167
0
LINE
8
Calque 1
10
63.567075
20
90.013167
11
69.340971
21
94.004994
0
LINE
8
Calque 1
10
69.340971
20
94.004994
11
70.677047
21
94.733487
0
LINE
8
Calque 1
10
70.677047
20
94.733487
11
71.475091
21
94.924992
0
LINE
8
Calque 1
10
71.475091
20
94.924992
11
71.475091
21
94.924992
0
LINE
8
Calque 1
10
75.980754
20
94.924992
11
76.909387
21
94.811300
0
LINE
8
Calque 1
10
76.909387
20
94.811300
11
67.043325
21
87.746643
0
LINE
8
Calque 1
10
67.043325
20
87.746643
11
59.232845
21
82.047929
0
LINE
8
Calque 1
10
59.232845
20
82.047929
11
54.133553
21
78.107964
0
LINE
8
Calque 1
10
54.133553
20
78.107964
11
50.916886
21
75.530889
0
LINE
8
Calque 1
10
50.916886
20
75.530889
11
47.632670
21
73.108774
0
LINE
8
Calque 1
10
47.632670
20
73.108774
11
41.359671
21
68.653752
0
LINE
8
Calque 1
10
41.359671
20
68.653752
11
33.923434
21
63.701102
0
LINE
8
Calque 1
10
33.923434
20
63.701102
11
27.209538
21
59.187333
0
LINE
8
Calque 1
10
27.209538
20
59.187333
11
17.381308
21
52.281144
0
LINE
8
Calque 1
10
17.381308
20
52.281144
11
5.167601
21
43.671349
0
LINE
8
Calque 1
10
5.167601
20
43.671349
11
5.006364
21
44.345718
0
LINE
8
Calque 1
10
5.006364
20
44.345718
11
5.485373
21
45.018790
0
LINE
8
Calque 1
10
5.485373
20
45.018790
11
7.197852
21
46.443878
0
LINE
8
Calque 1
10
7.197852
20
46.443878
11
16.021192
21
52.863544
0
LINE
8
Calque 1
10
16.021192
20
52.863544
11
25.284984
21
59.338519
0
LINE
8
Calque 1
10
25.284984
20
59.338519
11
32.099266
21
63.891787
0
LINE
8
Calque 1
10
32.099266
20
63.891787
11
36.687271
21
66.907729
0
LINE
8
Calque 1
10
36.687271
20
66.907729
11
40.598466
21
69.686261
0
LINE
8
Calque 1
10
40.598466
20
69.686261
11
47.667806
21
74.734531
0
LINE
8
Calque 1
10
47.667806
20
74.734531
11
51.074961
21
77.179476
0
LINE
8
Calque 1
10
51.074961
20
77.179476
11
54.155249
21
79.631883
0
LINE
8
Calque 1
10
54.155249
20
79.631883
11
58.798886
21
83.252519
0
LINE
8
Calque 1
10
58.798886
20
83.252519
11
65.964859
21
88.506790
0
LINE
8
Calque 1
10
65.964859
20
88.506790
11
73.487046
21
93.756263
0
LINE
8
Calque 1
10
73.487046
20
93.756263
11
75.107336
21
94.687287
0
LINE
8
Calque 1
10
75.107336
20
94.687287
11
75.980754
21
94.924992
0
LINE
8
Calque 1
10
75.980754
20
94.924992
11
75.980754
21
94.924992
0
LINE
8
Calque 1
10
80.472976
20
94.924992
11
81.405737
21
94.811830
0
LINE
8
Calque 1
10
81.405737
20
94.811830
11
69.047356
21
85.963804
0
LINE
8
Calque 1
10
69.047356
20
85.963804
11
59.653869
21
79.135793
0
LINE
8
Calque 1
10
59.653869
20
79.135793
11
54.248277
21
74.985673
0
LINE
8
Calque 1
10
54.248277
20
74.985673
11
51.255419
21
72.561902
0
LINE
8
Calque 1
10
51.255419
20
72.561902
11
47.346434
21
69.678657
0
LINE
8
Calque 1
10
47.346434
20
69.678657
11
42.931121
21
66.628035
0
LINE
8
Calque 1
10
42.931121
20
66.628035
11
38.419281
21
63.702134
0
LINE
8
Calque 1
10
38.419281
20
63.702134
11
31.105837
21
58.762753
0
LINE
8
Calque 1
10
31.105837
20
58.762753
11
19.835950
21
50.835225
0
LINE
8
Calque 1
10
19.835950
20
50.835225
11
5.374320
21
40.559403
0
LINE
8
Calque 1
10
5.374320
20
40.559403
11
5.090740
21
40.566371
0
LINE
8
Calque 1
10
5.090740
20
40.566371
11
4.999644
21
41.053935
0
LINE
8
Calque 1
10
4.999644
20
41.053935
11
5.507246
21
41.781285
0
LINE
8
Calque 1
10
5.507246
20
41.781285
11
7.459988
21
43.393239
0
LINE
8
Calque 1
10
7.459988
20
43.393239
11
18.280493
21
51.251758
0
LINE
8
Calque 1
10
18.280493
20
51.251758
11
29.019669
21
58.800225
0
LINE
8
Calque 1
10
29.019669
20
58.800225
11
36.189455
21
63.632363
0
LINE
8
Calque 1
10
36.189455
20
63.632363
11
41.082238
21
66.837867
0
LINE
8
Calque 1
10
41.082238
20
66.837867
11
46.377478
21
70.524605
0
LINE
8
Calque 1
10
46.377478
20
70.524605
11
51.152322
21
74.033107
0
LINE
8
Calque 1
10
51.152322
20
74.033107
11
54.483914
21
76.703901
0
LINE
8
Calque 1
10
54.483914
20
76.703901
11
59.460760
21
80.540487
0
LINE
8
Calque 1
10
59.460760
20
80.540487
11
68.125443
21
86.851585
0
LINE
8
Calque 1
10
68.125443
20
86.851585
11
77.581471
21
93.477786
0
LINE
8
Calque 1
10
77.581471
20
93.477786
11
79.520168
21
94.634583
0
LINE
8
Calque 1
10
79.520168
20
94.634583
11
80.472976
21
94.924992
0
LINE
8
Calque 1
10
80.472976
20
94.924992
11
80.472976
21
94.924992
0
LINE
8
Calque 1
10
84.960039
20
94.924992
11
86.007523
21
94.924992
0
LINE
8
Calque 1
10
86.007523
20
94.924992
11
85.292832
21
94.377755
0
LINE
8
Calque 1
10
85.292832
20
94.377755
11
71.440483
21
84.456924
0
LINE
8
Calque 1
10
71.440483
20
84.456924
11
61.412056
21
77.182310
0
LINE
8
Calque 1
10
61.412056
20
77.182310
11
55.749468
21
72.856097
0
LINE
8
Calque 1
10
55.749468
20
72.856097
11
52.877616
21
70.526749
0
LINE
8
Calque 1
10
52.877616
20
70.526749
11
49.346781
21
67.915903
0
LINE
8
Calque 1
10
49.346781
20
67.915903
11
45.685845
21
65.400495
0
LINE
8
Calque 1
10
45.685845
20
65.400495
11
42.423692
21
63.357462
0
LINE
8
Calque 1
10
42.423692
20
63.357462
11
35.597216
21
58.752633
0
LINE
8
Calque 1
10
35.597216
20
58.752633
11
23.241424
21
50.044598
0
LINE
8
Calque 1
10
23.241424
20
50.044598
11
5.973759
21
37.725454
0
LINE
8
Calque 1
10
5.973759
20
37.725454
11
4.999644
21
37.036083
0
LINE
8
Calque 1
10
4.999644
20
37.036083
11
4.999644
21
37.796257
0
LINE
8
Calque 1
10
4.999644
20
37.796257
11
5.114147
21
38.100416
0
LINE
8
Calque 1
10
5.114147
20
38.100416
11
5.532455
21
38.574207
0
LINE
8
Calque 1
10
5.532455
20
38.574207
11
7.729264
21
40.372859
0
LINE
8
Calque 1
10
7.729264
20
40.372859
11
20.705132
21
49.769669
0
LINE
8
Calque 1
10
20.705132
20
49.769669
11
32.972410
21
58.415782
0
LINE
8
Calque 1
10
32.972410
20
58.415782
11
40.411909
21
63.456151
0
LINE
8
Calque 1
10
40.411909
20
63.456151
11
44.459022
21
66.060498
0
LINE
8
Calque 1
10
44.459022
20
66.060498
11
48.457395
21
68.817800
0
LINE
8
Calque 1
10
48.457395
20
68.817800
11
52.023502
21
71.454581
0
LINE
8
Calque 1
10
52.023502
20
71.454581
11
54.773818
21
73.697365
0
LINE
8
Calque 1
10
54.773818
20
73.697365
11
60.380494
21
77.986375
0
LINE
8
Calque 1
10
60.380494
20
77.986375
11
70.529418
21
85.358147
0
LINE
8
Calque 1
10
70.529418
20
85.358147
11
81.698938
21
93.208159
0
LINE
8
Calque 1
10
81.698938
20
93.208159
11
83.936304
21
94.580143
0
LINE
8
Calque 1
10
83.936304
20
94.580143
11
84.960039
21
94.924992
0
LINE
8
Calque 1
10
84.960039
20
94.924992
11
84.960039
21
94.924992
0
LINE
8
Calque 1
10
27.073724
20
94.917848
11
27.479383
21
94.846014
0
LINE
8
Calque 1
10
27.479383
20
94.846014
11
16.164332
21
86.727126
0
LINE
8
Calque 1
10
16.164332
20
86.727126
11
6.703148
21
80.094294
0
LINE
8
Calque 1
10
6.703148
20
80.094294
11
5.295227
21
79.331039
0
LINE
8
Calque 1
10
5.295227
20
79.331039
11
5.064834
21
79.358544
0
LINE
8
Calque 1
10
5.064834
20
79.358544
11
5.014116
21
79.571505
0
LINE
8
Calque 1
10
5.014116
20
79.571505
11
5.337796
21
80.230142
0
LINE
8
Calque 1
10
5.337796
20
80.230142
11
6.710510
21
81.450699
0
LINE
8
Calque 1
10
6.710510
20
81.450699
11
15.129759
21
87.577204
0
LINE
8
Calque 1
10
15.129759
20
87.577204
11
23.570724
21
93.446449
0
LINE
8
Calque 1
10
23.570724
20
93.446449
11
25.429263
21
94.543691
0
LINE
8
Calque 1
10
25.429263
20
94.543691
11
26.430364
21
94.879589
0
LINE
8
Calque 1
10
26.430364
20
94.879589
11
27.073724
21
94.917848
0
LINE
8
Calque 1
10
27.073724
20
94.917848
11
27.073724
21
94.917848
0
LINE
8
Calque 1
10
36.065418
20
94.917848
11
36.471077
21
94.845485
0
LINE
8
Calque 1
10
36.471077
20
94.845485
11
5.373790
21
72.640674
0
LINE
8
Calque 1
10
5.373790
20
72.640674
11
5.088987
21
72.641057
0
LINE
8
Calque 1
10
5.088987
20
72.641057
11
4.999644
21
73.145551
0
LINE
8
Calque 1
10
4.999644
20
73.145551
11
5.115690
21
73.440493
0
LINE
8
Calque 1
10
5.115690
20
73.440493
11
5.527978
21
73.903180
0
LINE
8
Calque 1
10
5.527978
20
73.903180
11
7.626159
21
75.626195
0
LINE
8
Calque 1
10
7.626159
20
75.626195
11
19.611134
21
84.323680
0
LINE
8
Calque 1
10
19.611134
20
84.323680
11
31.783156
21
92.887180
0
LINE
8
Calque 1
10
31.783156
20
92.887180
11
34.265536
21
94.435229
0
LINE
8
Calque 1
10
34.265536
20
94.435229
11
35.422058
21
94.879589
0
LINE
8
Calque 1
10
35.422058
20
94.879589
11
36.065418
21
94.917848
0
LINE
8
Calque 1
10
36.065418
20
94.917848
11
36.065418
21
94.917848
0
LINE
8
Calque 1
10
88.229624
20
94.467210
11
89.307588
21
94.031601
0
LINE
8
Calque 1
10
89.307588
20
94.031601
11
75.930642
21
84.452850
0
LINE
8
Calque 1
10
75.930642
20
84.452850
11
65.886985
21
77.171294
0
LINE
8
Calque 1
10
65.886985
20
77.171294
11
60.195176
21
72.833952
0
LINE
8
Calque 1
10
60.195176
20
72.833952
11
56.668974
21
70.022681
0
LINE
8
Calque 1
10
56.668974
20
70.022681
11
51.920882
21
66.531284
0
LINE
8
Calque 1
10
51.920882
20
66.531284
11
46.914995
21
63.049039
0
LINE
8
Calque 1
10
46.914995
20
63.049039
11
42.615409
21
60.265227
0
LINE
8
Calque 1
10
42.615409
20
60.265227
11
34.910917
21
55.052416
0
LINE
8
Calque 1
10
34.910917
20
55.052416
11
21.859058
21
45.846988
0
LINE
8
Calque 1
10
21.859058
20
45.846988
11
7.615133
21
35.791945
0
LINE
8
Calque 1
10
7.615133
20
35.791945
11
5.459328
21
34.493080
0
LINE
8
Calque 1
10
5.459328
20
34.493080
11
5.097906
21
34.425726
0
LINE
8
Calque 1
10
5.097906
20
34.425726
11
5.014116
21
34.613059
0
LINE
8
Calque 1
10
5.014116
20
34.613059
11
5.125542
21
34.934211
0
LINE
8
Calque 1
10
5.125542
20
34.934211
11
5.542841
21
35.419991
0
LINE
8
Calque 1
10
5.542841
20
35.419991
11
7.852712
21
37.308706
0
LINE
8
Calque 1
10
7.852712
20
37.308706
11
22.277125
21
47.717670
0
LINE
8
Calque 1
10
22.277125
20
47.717670
11
35.490675
21
57.012867
0
LINE
8
Calque 1
10
35.490675
20
57.012867
11
43.038107
21
62.104370
0
LINE
8
Calque 1
10
43.038107
20
62.104370
11
46.743240
21
64.452138
0
LINE
8
Calque 1
10
46.743240
20
64.452138
11
50.776885
21
67.236335
0
LINE
8
Calque 1
10
50.776885
20
67.236335
11
54.769458
21
70.192625
0
LINE
8
Calque 1
10
54.769458
20
70.192625
11
58.351377
21
73.056678
0
LINE
8
Calque 1
10
58.351377
20
73.056678
11
64.694999
21
77.886343
0
LINE
8
Calque 1
10
64.694999
20
77.886343
11
75.106386
21
85.436781
0
LINE
8
Calque 1
10
75.106386
20
85.436781
11
84.130522
21
91.808019
0
LINE
8
Calque 1
10
84.130522
20
91.808019
11
88.229624
21
94.467210
0
LINE
8
Calque 1
10
88.229624
20
94.467210
11
88.229624
21
94.467210
0
LINE
8
Calque 1
10
90.710592
20
93.216130
11
91.646449
21
92.480271
0
LINE
8
Calque 1
10
91.646449
20
92.480271
11
80.426489
21
84.452850
0
LINE
8
Calque 1
10
80.426489
20
84.452850
11
70.338455
21
77.134027
0
LINE
8
Calque 1
10
70.338455
20
77.134027
11
64.540635
21
72.707349
0
LINE
8
Calque 1
10
64.540635
20
72.707349
11
61.503245
21
70.258081
0
LINE
8
Calque 1
10
61.503245
20
70.258081
11
58.051657
21
67.693183
0
LINE
8
Calque 1
10
58.051657
20
67.693183
11
49.216543
21
61.380921
0
LINE
8
Calque 1
10
49.216543
20
61.380921
11
44.548522
21
58.144932
0
LINE
8
Calque 1
10
44.548522
20
58.144932
11
40.470831
21
55.511517
0
LINE
8
Calque 1
10
40.470831
20
55.511517
11
33.254426
21
50.646570
0
LINE
8
Calque 1
10
33.254426
20
50.646570
11
21.040517
21
42.045169
0
LINE
8
Calque 1
10
21.040517
20
42.045169
11
5.113864
21
30.782823
0
LINE
8
Calque 1
10
5.113864
20
30.782823
11
5.054439
21
31.517147
0
LINE
8
Calque 1
10
5.054439
20
31.517147
11
5.795629
21
32.376439
0
LINE
8
Calque 1
10
5.795629
20
32.376439
11
8.322598
21
34.383629
0
LINE
8
Calque 1
10
8.322598
20
34.383629
11
21.241018
21
43.733949
0
LINE
8
Calque 1
10
21.241018
20
43.733949
11
33.689972
21
52.501334
0
LINE
8
Calque 1
10
33.689972
20
52.501334
11
41.023254
21
57.455568
0
LINE
8
Calque 1
10
41.023254
20
57.455568
11
45.855393
21
60.618439
0
LINE
8
Calque 1
10
45.855393
20
60.618439
11
52.131424
21
65.007590
0
LINE
8
Calque 1
10
52.131424
20
65.007590
11
58.287395
21
69.505113
0
LINE
8
Calque 1
10
58.287395
20
69.505113
11
62.759356
21
72.993098
0
LINE
8
Calque 1
10
62.759356
20
72.993098
11
68.997863
21
77.734052
0
LINE
8
Calque 1
10
68.997863
20
77.734052
11
79.453935
21
85.317401
0
LINE
8
Calque 1
10
79.453935
20
85.317401
11
90.710592
21
93.216130
0
LINE
8
Calque 1
10
90.710592
20
93.216130
11
90.710592
21
93.216130
0
LINE
8
Calque 1
10
92.693404
20
91.400217
11
93.299590
21
90.593054
0
LINE
8
Calque 1
10
93.299590
20
90.593054
11
83.219586
21
83.248812
0
LINE
8
Calque 1
10
83.219586
20
83.248812
11
74.412633
21
76.850203
0
LINE
8
Calque 1
10
74.412633
20
76.850203
11
69.327947
21
72.958491
0
LINE
8
Calque 1
10
69.327947
20
72.958491
11
64.788020
21
69.303892
0
LINE
8
Calque 1
10
64.788020
20
69.303892
11
59.534751
21
65.676241
0
LINE
8
Calque 1
10
59.534751
20
65.676241
11
54.904548
21
62.381891
0
LINE
8
Calque 1
10
54.904548
20
62.381891
11
51.708737
21
59.943910
0
LINE
8
Calque 1
10
51.708737
20
59.943910
11
46.911006
21
56.518279
0
LINE
8
Calque 1
10
46.911006
20
56.518279
11
41.880727
21
53.063651
0
LINE
8
Calque 1
10
41.880727
20
53.063651
11
37.987270
21
50.538680
0
LINE
8
Calque 1
10
37.987270
20
50.538680
11
31.200630
21
45.970813
0
LINE
8
Calque 1
10
31.200630
20
45.970813
11
20.025074
21
38.107936
0
LINE
8
Calque 1
10
20.025074
20
38.107936
11
5.361911
21
27.674475
0
LINE
8
Calque 1
10
5.361911
20
27.674475
11
5.088673
21
27.686759
0
LINE
8
Calque 1
10
5.088673
20
27.686759
11
4.999644
21
28.187634
0
LINE
8
Calque 1
10
4.999644
20
28.187634
11
5.117284
21
28.484259
0
LINE
8
Calque 1
10
5.117284
20
28.484259
11
5.536122
21
28.951669
0
LINE
8
Calque 1
10
5.536122
20
28.951669
11
7.672898
21
30.700716
0
LINE
8
Calque 1
10
7.672898
20
30.700716
11
19.911383
21
39.568831
0
LINE
8
Calque 1
10
19.911383
20
39.568831
11
31.543027
21
47.761604
0
LINE
8
Calque 1
10
31.543027
20
47.761604
11
38.569141
21
52.512205
0
LINE
8
Calque 1
10
38.569141
20
52.512205
11
44.820096
21
56.593592
0
LINE
8
Calque 1
10
44.820096
20
56.593592
11
52.956344
21
62.399460
0
LINE
8
Calque 1
10
52.956344
20
62.399460
11
60.051534
21
67.468896
0
LINE
8
Calque 1
10
60.051534
20
67.468896
11
63.458150
21
69.979531
0
LINE
8
Calque 1
10
63.458150
20
69.979531
11
66.945668
21
72.748174
0
LINE
8
Calque 1
10
66.945668
20
72.748174
11
73.015010
21
77.381928
0
LINE
8
Calque 1
10
73.015010
20
77.381928
11
82.629434
21
84.376888
0
LINE
8
Calque 1
10
82.629434
20
84.376888
11
92.693404
21
91.400217
0
LINE
8
Calque 1
10
92.693404
20
91.400217
11
92.693404
21
91.400217
0
LINE
8
Calque 1
10
94.034416
20
89.300619
11
94.421977
21
88.363201
0
LINE
8
Calque 1
10
94.421977
20
88.363201
11
91.537179
21
86.039177
0
LINE
8
Calque 1
10
91.537179
20
86.039177
11
84.653097
21
81.056689
0
LINE
8
Calque 1
10
84.653097
20
81.056689
11
76.742452
21
75.280918
0
LINE
8
Calque 1
10
76.742452
20
75.280918
11
72.139141
21
71.696033
0
LINE
8
Calque 1
10
72.139141
20
71.696033
11
69.994995
21
69.905313
0
LINE
8
Calque 1
10
69.994995
20
69.905313
11
67.371848
21
67.946399
0
LINE
8
Calque 1
10
67.371848
20
67.946399
11
61.264885
21
63.935285
0
LINE
8
Calque 1
10
61.264885
20
63.935285
11
58.662140
21
62.182508
0
LINE
8
Calque 1
10
58.662140
20
62.182508
11
56.291545
21
60.319996
0
LINE
8
Calque 1
10
56.291545
20
60.319996
11
53.709592
21
58.237218
0
LINE
8
Calque 1
10
53.709592
20
58.237218
11
50.598883
21
55.955408
0
LINE
8
Calque 1
10
50.598883
20
55.955408
11
43.279962
21
50.754183
0
LINE
8
Calque 1
10
43.279962
20
50.754183
11
39.498069
21
48.139815
0
LINE
8
Calque 1
10
39.498069
20
48.139815
11
35.786363
21
45.755019
0
LINE
8
Calque 1
10
35.786363
20
45.755019
11
20.458772
21
35.196094
0
LINE
8
Calque 1
10
20.458772
20
35.196094
11
5.348470
21
24.396663
0
LINE
8
Calque 1
10
5.348470
20
24.396663
11
5.048869
21
24.313309
0
LINE
8
Calque 1
10
5.048869
20
24.313309
11
5.048750
21
24.945461
0
LINE
8
Calque 1
10
5.048750
20
24.945461
11
5.169804
21
25.270629
0
LINE
8
Calque 1
10
5.169804
20
25.270629
11
5.538959
21
25.721002
0
LINE
8
Calque 1
10
5.538959
20
25.721002
11
7.458903
21
27.334738
0
LINE
8
Calque 1
10
7.458903
20
27.334738
11
19.086625
21
35.775795
0
LINE
8
Calque 1
10
19.086625
20
35.775795
11
29.986535
21
43.446040
0
LINE
8
Calque 1
10
29.986535
20
43.446040
11
36.620937
21
47.904756
0
LINE
8
Calque 1
10
36.620937
20
47.904756
11
41.047963
21
50.795002
0
LINE
8
Calque 1
10
41.047963
20
50.795002
11
46.971507
21
54.896967
0
LINE
8
Calque 1
10
46.971507
20
54.896967
11
52.534197
21
58.900027
0
LINE
8
Calque 1
10
52.534197
20
58.900027
11
55.878664
21
61.493554
0
LINE
8
Calque 1
10
55.878664
20
61.493554
11
57.864445
21
63.013001
0
LINE
8
Calque 1
10
57.864445
20
63.013001
11
60.639094
21
64.870109
0
LINE
8
Calque 1
10
60.639094
20
64.870109
11
66.600456
21
68.930698
0
LINE
8
Calque 1
10
66.600456
20
68.930698
11
71.543300
21
72.878375
0
LINE
8
Calque 1
10
71.543300
20
72.878375
11
81.932403
21
80.629430
0
LINE
8
Calque 1
10
81.932403
20
80.629430
11
94.034416
21
89.300619
0
LINE
8
Calque 1
10
94.034416
20
89.300619
11
94.034416
21
89.300619
0
LINE
8
Calque 1
10
94.798717
20
86.532842
11
94.863302
21
85.801085
0
LINE
8
Calque 1
10
94.863302
20
85.801085
11
94.366182
21
85.119807
0
LINE
8
Calque 1
10
94.366182
20
85.119807
11
92.749336
21
83.759017
0
LINE
8
Calque 1
10
92.749336
20
83.759017
11
84.727497
21
77.882724
0
LINE
8
Calque 1
10
84.727497
20
77.882724
11
76.975867
21
72.219795
0
LINE
8
Calque 1
10
76.975867
20
72.219795
11
72.438861
21
68.696218
0
LINE
8
Calque 1
10
72.438861
20
68.696218
11
69.495514
21
66.440337
0
LINE
8
Calque 1
10
69.495514
20
66.440337
11
65.575736
21
63.825721
0
LINE
8
Calque 1
10
65.575736
20
63.825721
11
61.795017
21
61.351331
0
LINE
8
Calque 1
10
61.795017
20
61.351331
11
59.185951
21
59.432188
0
LINE
8
Calque 1
10
59.185951
20
59.432188
11
54.785459
21
55.771996
0
LINE
8
Calque 1
10
54.785459
20
55.771996
11
51.838084
21
53.795326
0
LINE
8
Calque 1
10
51.838084
20
53.795326
11
49.181046
21
52.014187
0
LINE
8
Calque 1
10
49.181046
20
52.014187
11
46.062740
21
49.679844
0
LINE
8
Calque 1
10
46.062740
20
49.679844
11
39.595733
21
44.910027
0
LINE
8
Calque 1
10
39.595733
20
44.910027
11
32.574669
21
40.331068
0
LINE
8
Calque 1
10
32.574669
20
40.331068
11
26.813345
21
36.445117
0
LINE
8
Calque 1
10
26.813345
20
36.445117
11
17.381308
21
29.800453
0
LINE
8
Calque 1
10
17.381308
20
29.800453
11
5.167601
21
21.191160
0
LINE
8
Calque 1
10
5.167601
20
21.191160
11
5.006364
21
21.866058
0
LINE
8
Calque 1
10
5.006364
20
21.866058
11
5.570684
21
22.599900
0
LINE
8
Calque 1
10
5.570684
20
22.599900
11
7.599436
21
24.248106
0
LINE
8
Calque 1
10
7.599436
20
24.248106
11
18.119759
21
31.865444
0
LINE
8
Calque 1
10
18.119759
20
31.865444
11
28.432500
21
39.091255
0
LINE
8
Calque 1
10
28.432500
20
39.091255
11
34.822593
21
43.369618
0
LINE
8
Calque 1
10
34.822593
20
43.369618
11
40.300476
21
46.913188
0
LINE
8
Calque 1
10
40.300476
20
46.913188
11
46.512319
21
51.460593
0
LINE
8
Calque 1
10
46.512319
20
51.460593
11
52.506765
21
55.722866
0
LINE
8
Calque 1
10
52.506765
20
55.722866
11
55.242322
21
57.682715
0
LINE
8
Calque 1
10
55.242322
20
57.682715
11
57.610333
21
59.610993
0
LINE
8
Calque 1
10
57.610333
20
59.610993
11
60.331414
21
61.719154
0
LINE
8
Calque 1
10
60.331414
20
61.719154
11
63.915875
21
64.111497
0
LINE
8
Calque 1
10
63.915875
20
64.111497
11
69.133852
21
67.567255
0
LINE
8
Calque 1
10
69.133852
20
67.567255
11
73.681686
21
71.271774
0
LINE
8
Calque 1
10
73.681686
20
71.271774
11
84.749590
21
79.473351
0
LINE
8
Calque 1
10
84.749590
20
79.473351
11
91.584898
21
84.362442
0
LINE
8
Calque 1
10
91.584898
20
84.362442
11
94.798717
21
86.532842
0
LINE
8
Calque 1
10
94.798717
20
86.532842
11
94.798717
21
86.532842
0
LINE
8
Calque 1
10
94.737228
20
82.984731
11
94.874374
21
82.904864
0
LINE
8
Calque 1
10
94.874374
20
82.904864
11
94.904127
21
82.703612
0
LINE
8
Calque 1
10
94.904127
20
82.703612
11
94.605394
21
82.063187
0
LINE
8
Calque 1
10
94.605394
20
82.063187
11
93.340455
21
80.922449
0
LINE
8
Calque 1
10
93.340455
20
80.922449
11
85.589985
21
75.292695
0
LINE
8
Calque 1
10
85.589985
20
75.292695
11
78.301709
21
70.037756
0
LINE
8
Calque 1
10
78.301709
20
70.037756
11
73.839298
21
66.663268
0
LINE
8
Calque 1
10
73.839298
20
66.663268
11
71.448662
21
64.823023
0
LINE
8
Calque 1
10
71.448662
20
64.823023
11
69.141389
21
63.256761
0
LINE
8
Calque 1
10
69.141389
20
63.256761
11
63.529736
21
59.526416
0
LINE
8
Calque 1
10
63.529736
20
59.526416
11
61.119214
21
57.706681
0
LINE
8
Calque 1
10
61.119214
20
57.706681
11
59.250033
21
56.117677
0
LINE
8
Calque 1
10
59.250033
20
56.117677
11
55.808387
21
53.240592
0
LINE
8
Calque 1
10
55.808387
20
53.240592
11
52.206543
21
50.998605
0
LINE
8
Calque 1
10
52.206543
20
50.998605
11
49.668011
21
49.361729
0
LINE
8
Calque 1
10
49.668011
20
49.361729
11
46.511288
21
47.013852
0
LINE
8
Calque 1
10
46.511288
20
47.013852
11
41.715721
21
43.224944
0
LINE
8
Calque 1
10
41.715721
20
43.224944
11
36.946787
21
39.772103
0
LINE
8
Calque 1
10
36.946787
20
39.772103
11
31.398016
21
36.190238
0
LINE
8
Calque 1
10
31.398016
20
36.190238
11
25.380247
21
32.187574
0
LINE
8
Calque 1
10
25.380247
20
32.187574
11
16.561736
21
26.015672
0
LINE
8
Calque 1
10
16.561736
20
26.015672
11
5.350534
21
18.065271
0
LINE
8
Calque 1
10
5.350534
20
18.065271
11
5.062055
21
18.055742
0
LINE
8
Calque 1
10
5.062055
20
18.055742
11
5.050814
21
18.617694
0
LINE
8
Calque 1
10
5.050814
20
18.617694
11
5.546651
21
19.335743
0
LINE
8
Calque 1
10
5.546651
20
19.335743
11
7.275233
21
20.786927
0
LINE
8
Calque 1
10
7.275233
20
20.786927
11
16.612377
21
27.580443
0
LINE
8
Calque 1
10
16.612377
20
27.580443
11
25.641549
21
33.923135
0
LINE
8
Calque 1
10
25.641549
20
33.923135
11
31.252283
21
37.690926
0
LINE
8
Calque 1
10
31.252283
20
37.690926
11
38.658755
21
42.563232
0
LINE
8
Calque 1
10
38.658755
20
42.563232
11
45.912351
21
47.971934
0
LINE
8
Calque 1
10
45.912351
20
47.971934
11
49.192456
21
50.459580
0
LINE
8
Calque 1
10
49.192456
20
50.459580
11
51.607077
21
52.074002
0
LINE
8
Calque 1
10
51.607077
20
52.074002
11
55.111072
21
54.293867
0
LINE
8
Calque 1
10
55.111072
20
54.293867
11
58.800427
21
57.322244
0
LINE
8
Calque 1
10
58.800427
20
57.322244
11
62.464836
21
60.274091
0
LINE
8
Calque 1
10
62.464836
20
60.274091
11
67.803499
21
63.729095
0
LINE
8
Calque 1
10
67.803499
20
63.729095
11
70.660965
21
65.669477
0
LINE
8
Calque 1
10
70.660965
20
65.669477
11
73.337517
21
67.753111
0
LINE
8
Calque 1
10
73.337517
20
67.753111
11
77.932139
21
71.291592
0
LINE
8
Calque 1
10
77.932139
20
71.291592
11
85.401364
21
76.729831
0
LINE
8
Calque 1
10
85.401364
20
76.729831
11
92.476459
21
81.715041
0
LINE
8
Calque 1
10
92.476459
20
81.715041
11
94.040334
21
82.708513
0
LINE
8
Calque 1
10
94.040334
20
82.708513
11
94.737228
21
82.984731
0
LINE
8
Calque 1
10
94.737228
20
82.984731
11
94.737228
21
82.984731
0
LINE
8
Calque 1
10
94.753367
20
80.120832
11
94.880334
21
79.975232
0
LINE
8
Calque 1
10
94.880334
20
79.975232
11
94.918203
21
79.538961
0
LINE
8
Calque 1
10
94.918203
20
79.538961
11
94.583809
21
78.895490
0
LINE
8
Calque 1
10
94.583809
20
78.895490
11
93.208451
21
77.675761
0
LINE
8
Calque 1
10
93.208451
20
77.675761
11
85.101776
21
71.730667
0
LINE
8
Calque 1
10
85.101776
20
71.730667
11
73.037929
21
63.076924
0
LINE
8
Calque 1
10
73.037929
20
63.076924
11
66.647615
21
58.531997
0
LINE
8
Calque 1
10
66.647615
20
58.531997
11
63.090095
21
55.889153
0
LINE
8
Calque 1
10
63.090095
20
55.889153
11
60.353450
21
53.645466
0
LINE
8
Calque 1
10
60.353450
20
53.645466
11
58.467150
21
52.064502
0
LINE
8
Calque 1
10
58.467150
20
52.064502
11
56.281974
21
50.462612
0
LINE
8
Calque 1
10
56.281974
20
50.462612
11
53.945976
21
48.942042
0
LINE
8
Calque 1
10
53.945976
20
48.942042
11
51.607209
21
47.605037
0
LINE
8
Calque 1
10
51.607209
20
47.605037
11
48.806241
21
45.707391
0
LINE
8
Calque 1
10
48.806241
20
45.707391
11
44.597321
21
42.480276
0
LINE
8
Calque 1
10
44.597321
20
42.480276
11
36.216343
21
36.060371
0
LINE
8
Calque 1
10
36.216343
20
36.060371
11
32.621546
21
33.573835
0
LINE
8
Calque 1
10
32.621546
20
33.573835
11
29.127470
21
31.356412
0
LINE
8
Calque 1
10
29.127470
20
31.356412
11
17.362000
21
23.342342
0
LINE
8
Calque 1
10
17.362000
20
23.342342
11
5.373923
21
14.814816
0
LINE
8
Calque 1
10
5.373923
20
14.814816
11
5.082270
21
14.760586
0
LINE
8
Calque 1
10
5.082270
20
14.760586
11
4.999273
21
15.301093
0
LINE
8
Calque 1
10
4.999273
20
15.301093
11
5.353947
21
15.962014
0
LINE
8
Calque 1
10
5.353947
20
15.962014
11
6.831061
21
17.251281
0
LINE
8
Calque 1
10
6.831061
20
17.251281
11
15.631171
21
23.664403
0
LINE
8
Calque 1
10
15.631171
20
23.664403
11
24.199923
21
29.665304
0
LINE
8
Calque 1
10
24.199923
20
29.665304
11
29.870578
21
33.439501
0
LINE
8
Calque 1
10
29.870578
20
33.439501
11
33.524468
21
35.762512
0
LINE
8
Calque 1
10
33.524468
20
35.762512
11
37.352023
21
38.400254
0
LINE
8
Calque 1
10
37.352023
20
38.400254
11
45.391572
21
44.522539
0
LINE
8
Calque 1
10
45.391572
20
44.522539
11
49.147933
21
47.392309
0
LINE
8
Calque 1
10
49.147933
20
47.392309
11
51.925026
21
49.245742
0
LINE
8
Calque 1
10
51.925026
20
49.245742
11
56.053685
21
51.772219
0
LINE
8
Calque 1
10
56.053685
20
51.772219
11
57.816328
21
53.092855
0
LINE
8
Calque 1
10
57.816328
20
53.092855
11
59.424314
21
54.484195
0
LINE
8
Calque 1
10
59.424314
20
54.484195
11
63.394054
21
57.748795
0
LINE
8
Calque 1
10
63.394054
20
57.748795
11
69.422641
21
61.932815
0
LINE
8
Calque 1
10
69.422641
20
61.932815
11
74.667787
21
65.677273
0
LINE
8
Calque 1
10
74.667787
20
65.677273
11
85.176706
21
73.343486
0
LINE
8
Calque 1
10
85.176706
20
73.343486
11
94.543553
21
80.023148
0
LINE
8
Calque 1
10
94.543553
20
80.023148
11
94.753367
21
80.120832
0
LINE
8
Calque 1
10
94.753367
20
80.120832
11
94.753367
21
80.120832
0
LINE
8
Calque 1
10
94.710479
20
76.810952
11
94.867403
21
76.673405
0
LINE
8
Calque 1
10
94.867403
20
76.673405
11
94.918203
21
76.262154
0
LINE
8
Calque 1
10
94.918203
20
76.262154
11
94.787052
21
75.965115
0
LINE
8
Calque 1
10
94.787052
20
75.965115
11
94.330153
21
75.476837
0
LINE
8
Calque 1
10
94.330153
20
75.476837
11
92.058421
21
73.637193
0
LINE
8
Calque 1
10
92.058421
20
73.637193
11
79.418401
21
64.479955
0
LINE
8
Calque 1
10
79.418401
20
64.479955
11
67.716861
21
55.998519
0
LINE
8
Calque 1
10
67.716861
20
55.998519
11
61.349235
21
51.148464
0
LINE
8
Calque 1
10
61.349235
20
51.148464
11
57.702186
21
48.185929
0
LINE
8
Calque 1
10
57.702186
20
48.185929
11
54.004993
21
45.942609
0
LINE
8
Calque 1
10
54.004993
20
45.942609
11
51.665434
21
44.541239
0
LINE
8
Calque 1
10
51.665434
20
44.541239
11
48.788709
21
42.568749
0
LINE
8
Calque 1
10
48.788709
20
42.568749
11
41.204255
21
36.752980
0
LINE
8
Calque 1
10
41.204255
20
36.752980
11
34.006377
21
31.295866
0
LINE
8
Calque 1
10
34.006377
20
31.295866
11
30.814916
21
29.138693
0
LINE
8
Calque 1
10
30.814916
20
29.138693
11
27.772011
21
27.275537
0
LINE
8
Calque 1
10
27.772011
20
27.275537
11
23.005770
21
24.107844
0
LINE
8
Calque 1
10
23.005770
20
24.107844
11
15.114916
21
18.559300
0
LINE
8
Calque 1
10
15.114916
20
18.559300
11
8.205682
21
13.657027
0
LINE
8
Calque 1
10
8.205682
20
13.657027
11
5.474702
21
11.939037
0
LINE
8
Calque 1
10
5.474702
20
11.939037
11
5.265391
21
12.702808
0
LINE
8
Calque 1
10
5.265391
20
12.702808
11
6.079233
21
13.497618
0
LINE
8
Calque 1
10
6.079233
20
13.497618
11
7.752617
21
14.812745
0
LINE
8
Calque 1
10
7.752617
20
14.812745
11
14.829140
21
19.914759
0
LINE
8
Calque 1
10
14.829140
20
19.914759
11
22.678458
21
25.385760
0
LINE
8
Calque 1
10
22.678458
20
25.385760
11
27.785452
21
28.757096
0
LINE
8
Calque 1
10
27.785452
20
28.757096
11
31.109263
21
30.835912
0
LINE
8
Calque 1
10
31.109263
20
30.835912
11
34.634504
21
33.252884
0
LINE
8
Calque 1
10
34.634504
20
33.252884
11
43.037736
21
39.634976
0
LINE
8
Calque 1
10
43.037736
20
39.634976
11
49.691549
21
44.745933
0
LINE
8
Calque 1
10
49.691549
20
44.745933
11
51.754276
21
46.117319
0
LINE
8
Calque 1
10
51.754276
20
46.117319
11
53.555413
21
47.112542
0
LINE
8
Calque 1
10
53.555413
20
47.112542
11
55.320272
21
48.111086
0
LINE
8
Calque 1
10
55.320272
20
48.111086
11
57.233170
21
49.395093
0
LINE
8
Calque 1
10
57.233170
20
49.395093
11
61.061421
21
52.502389
0
LINE
8
Calque 1
10
61.061421
20
52.502389
11
66.619756
21
56.689135
0
LINE
8
Calque 1
10
66.619756
20
56.689135
11
77.561148
21
64.668183
0
LINE
8
Calque 1
10
77.561148
20
64.668183
11
88.623209
21
72.627650
0
LINE
8
Calque 1
10
88.623209
20
72.627650
11
94.543553
21
76.755654
0
LINE
8
Calque 1
10
94.543553
20
76.755654
11
94.710479
21
76.810952
0
LINE
8
Calque 1
10
94.710479
20
76.810952
11
94.710479
21
76.810952
0
LINE
8
Calque 1
10
94.750775
20
73.644237
11
94.910980
21
72.969842
0
LINE
8
Calque 1
10
94.910980
20
72.969842
11
94.279920
21
72.188033
0
LINE
8
Calque 1
10
94.279920
20
72.188033
11
92.003424
21
70.363547
0
LINE
8
Calque 1
10
92.003424
20
70.363547
11
80.159445
21
61.804651
0
LINE
8
Calque 1
10
80.159445
20
61.804651
11
69.038936
21
53.778075
0
LINE
8
Calque 1
10
69.038936
20
53.778075
11
63.007032
21
49.211135
0
LINE
8
Calque 1
10
63.007032
20
49.211135
11
59.132343
21
45.995393
0
LINE
8
Calque 1
10
59.132343
20
45.995393
11
56.103056
21
44.100846
0
LINE
8
Calque 1
10
56.103056
20
44.100846
11
53.061750
21
42.276375
0
LINE
8
Calque 1
10
53.061750
20
42.276375
11
49.269913
21
39.698519
0
LINE
8
Calque 1
10
49.269913
20
39.698519
11
44.735865
21
36.373175
0
LINE
8
Calque 1
10
44.735865
20
36.373175
11
39.467929
21
32.306239
0
LINE
8
Calque 1
10
39.467929
20
32.306239
11
35.633348
21
29.479530
0
LINE
8
Calque 1
10
35.633348
20
29.479530
11
31.675140
21
26.826990
0
LINE
8
Calque 1
10
31.675140
20
26.826990
11
25.534638
21
22.691766
0
LINE
8
Calque 1
10
25.534638
20
22.691766
11
16.453336
21
16.300529
0
LINE
8
Calque 1
10
16.453336
20
16.300529
11
6.711310
21
9.388800
0
LINE
8
Calque 1
10
6.711310
20
9.388800
11
6.178017
21
10.274016
0
LINE
8
Calque 1
10
6.178017
20
10.274016
11
9.488050
21
12.817148
0
LINE
8
Calque 1
10
9.488050
20
12.817148
11
15.837863
21
17.394500
0
LINE
8
Calque 1
10
15.837863
20
17.394500
11
24.164826
21
23.243534
0
LINE
8
Calque 1
10
24.164826
20
23.243534
11
29.175545
21
26.604264
0
LINE
8
Calque 1
10
29.175545
20
26.604264
11
34.740268
21
30.179607
0
LINE
8
Calque 1
10
34.740268
20
30.179607
11
40.155210
21
34.311805
0
LINE
8
Calque 1
10
40.155210
20
34.311805
11
48.220739
21
40.488687
0
LINE
8
Calque 1
10
48.220739
20
40.488687
11
51.657139
21
42.857058
0
LINE
8
Calque 1
10
51.657139
20
42.857058
11
54.445285
21
44.565428
0
LINE
8
Calque 1
10
54.445285
20
44.565428
11
58.713822
21
47.228102
0
LINE
8
Calque 1
10
58.713822
20
47.228102
11
60.562381
21
48.652209
0
LINE
8
Calque 1
10
60.562381
20
48.652209
11
62.397248
21
50.264810
0
LINE
8
Calque 1
10
62.397248
20
50.264810
11
68.049792
21
54.530723
0
LINE
8
Calque 1
10
68.049792
20
54.530723
11
78.993488
21
62.499303
0
LINE
8
Calque 1
10
78.993488
20
62.499303
11
89.727445
21
70.195494
0
LINE
8
Calque 1
10
89.727445
20
70.195494
11
94.750775
21
73.644237
0
LINE
8
Calque 1
10
94.750775
20
73.644237
11
94.750775
21
73.644237
0
LINE
8
Calque 1
10
94.777656
20
70.051676
11
94.869652
21
69.970052
0
LINE
8
Calque 1
10
94.869652
20
69.970052
11
94.779270
21
69.392236
0
LINE
8
Calque 1
10
94.779270
20
69.392236
11
94.420046
21
68.849702
0
LINE
8
Calque 1
10
94.420046
20
68.849702
11
79.782203
21
58.287046
0
LINE
8
Calque 1
10
79.782203
20
58.287046
11
69.172375
21
50.598810
0
LINE
8
Calque 1
10
69.172375
20
50.598810
11
63.446266
21
46.219574
0
LINE
8
Calque 1
10
63.446266
20
46.219574
11
59.786604
21
43.260518
0
LINE
8
Calque 1
10
59.786604
20
43.260518
11
58.025451
21
42.105873
0
LINE
8
Calque 1
10
58.025451
20
42.105873
11
56.253445
21
41.127912
0
LINE
8
Calque 1
10
56.253445
20
41.127912
11
53.279731
21
39.315840
0
LINE
8
Calque 1
10
53.279731
20
39.315840
11
49.311766
21
36.155604
0
LINE
8
Calque 1
10
49.311766
20
36.155604
11
46.852659
21
34.262427
0
LINE
8
Calque 1
10
46.852659
20
34.262427
11
44.423675
21
32.652975
0
LINE
8
Calque 1
10
44.423675
20
32.652975
11
39.503569
21
29.333808
0
LINE
8
Calque 1
10
39.503569
20
29.333808
11
34.558142
21
25.851340
0
LINE
8
Calque 1
10
34.558142
20
25.851340
11
18.936897
21
14.856170
0
LINE
8
Calque 1
10
18.936897
20
14.856170
11
8.484837
21
7.404428
0
LINE
8
Calque 1
10
8.484837
20
7.404428
11
7.644071
21
8.213681
0
LINE
8
Calque 1
10
7.644071
20
8.213681
11
17.513229
21
15.381182
0
LINE
8
Calque 1
10
17.513229
20
15.381182
11
27.319627
21
22.301919
0
LINE
8
Calque 1
10
27.319627
20
22.301919
11
33.324127
21
26.389290
0
LINE
8
Calque 1
10
33.324127
20
26.389290
11
36.444986
21
28.490668
0
LINE
8
Calque 1
10
36.444986
20
28.490668
11
39.318572
21
30.636059
0
LINE
8
Calque 1
10
39.318572
20
30.636059
11
41.814979
21
32.532524
0
LINE
8
Calque 1
10
41.814979
20
32.532524
11
44.028891
21
34.035845
0
LINE
8
Calque 1
10
44.028891
20
34.035845
11
46.427054
21
35.688208
0
LINE
8
Calque 1
10
46.427054
20
35.688208
11
49.366535
21
37.942571
0
LINE
8
Calque 1
10
49.366535
20
37.942571
11
52.391929
21
40.190164
0
LINE
8
Calque 1
10
52.391929
20
40.190164
11
54.996676
21
41.826570
0
LINE
8
Calque 1
10
54.996676
20
41.826570
11
57.176307
21
43.065112
0
LINE
8
Calque 1
10
57.176307
20
43.065112
11
59.351864
21
44.498673
0
LINE
8
Calque 1
10
59.351864
20
44.498673
11
61.454864
21
46.079038
0
LINE
8
Calque 1
10
61.454864
20
46.079038
11
63.416818
21
47.757992
0
LINE
8
Calque 1
10
63.416818
20
47.757992
11
69.094750
21
52.092265
0
LINE
8
Calque 1
10
69.094750
20
52.092265
11
80.051945
21
60.044565
0
LINE
8
Calque 1
10
80.051945
20
60.044565
11
91.395283
21
68.059902
0
LINE
8
Calque 1
10
91.395283
20
68.059902
11
93.818943
21
69.632827
0
LINE
8
Calque 1
10
93.818943
20
69.632827
11
94.777656
21
70.051676
0
LINE
8
Calque 1
10
94.777656
20
70.051676
11
94.777656
21
70.051676
0
LINE
8
Calque 1
10
94.712542
20
67.215690
11
94.868898
21
67.076424
0
LINE
8
Calque 1
10
94.868898
20
67.076424
11
94.918732
21
66.649324
0
LINE
8
Calque 1
10
94.918732
20
66.649324
11
94.803783
21
66.355225
0
LINE
8
Calque 1
10
94.803783
20
66.355225
11
94.395495
21
65.895512
0
LINE
8
Calque 1
10
94.395495
20
65.895512
11
92.318255
21
64.187842
0
LINE
8
Calque 1
10
92.318255
20
64.187842
11
80.456572
21
55.579727
0
LINE
8
Calque 1
10
80.456572
20
55.579727
11
70.066894
21
48.080727
0
LINE
8
Calque 1
10
70.066894
20
48.080727
11
65.395502
21
44.562835
0
LINE
8
Calque 1
10
65.395502
20
44.562835
11
64.089153
21
43.331116
0
LINE
8
Calque 1
10
64.089153
20
43.331116
11
62.170682
21
41.808691
0
LINE
8
Calque 1
10
62.170682
20
41.808691
11
60.049621
21
40.302568
0
LINE
8
Calque 1
10
60.049621
20
40.302568
11
58.135504
21
39.119754
0
LINE
8
Calque 1
10
58.135504
20
39.119754
11
55.841672
21
37.651358
0
LINE
8
Calque 1
10
55.841672
20
37.651358
11
53.486701
21
35.855382
0
LINE
8
Calque 1
10
53.486701
20
35.855382
11
48.480165
21
31.967788
0
LINE
8
Calque 1
10
48.480165
20
31.967788
11
42.894570
21
28.347310
0
LINE
8
Calque 1
10
42.894570
20
28.347310
11
36.131495
21
23.795480
0
LINE
8
Calque 1
10
36.131495
20
23.795480
11
24.700362
21
15.737760
0
LINE
8
Calque 1
10
24.700362
20
15.737760
11
15.378084
21
9.120920
0
LINE
8
Calque 1
10
15.378084
20
9.120920
11
10.683680
21
5.970917
0
LINE
8
Calque 1
10
10.683680
20
5.970917
11
9.648605
21
6.544533
0
LINE
8
Calque 1
10
9.648605
20
6.544533
11
37.842702
21
26.581536
0
LINE
8
Calque 1
10
37.842702
20
26.581536
11
43.964809
21
30.528559
0
LINE
8
Calque 1
10
43.964809
20
30.528559
11
47.623297
21
33.003068
0
LINE
8
Calque 1
10
47.623297
20
33.003068
11
51.158159
21
35.716873
0
LINE
8
Calque 1
10
51.158159
20
35.716873
11
54.296818
21
38.141911
0
LINE
8
Calque 1
10
54.296818
20
38.141911
11
57.002744
21
39.922287
0
LINE
8
Calque 1
10
57.002744
20
39.922287
11
60.834300
21
42.322792
0
LINE
8
Calque 1
10
60.834300
20
42.322792
11
64.692188
21
45.494564
0
LINE
8
Calque 1
10
64.692188
20
45.494564
11
69.690204
21
49.277782
0
LINE
8
Calque 1
10
69.690204
20
49.277782
11
79.282915
21
56.290364
0
LINE
8
Calque 1
10
79.282915
20
56.290364
11
94.544082
21
67.154704
0
LINE
8
Calque 1
10
94.544082
20
67.154704
11
94.712542
21
67.215690
0
LINE
8
Calque 1
10
94.712542
20
67.215690
11
94.712542
21
67.215690
0
LINE
8
Calque 1
10
94.800384
20
64.053103
11
94.863963
21
63.323436
0
LINE
8
Calque 1
10
94.863963
20
63.323436
11
94.225197
21
62.541201
0
LINE
8
Calque 1
10
94.225197
20
62.541201
11
92.092671
21
60.814710
0
LINE
8
Calque 1
10
92.092671
20
60.814710
11
81.368669
21
53.018643
0
LINE
8
Calque 1
10
81.368669
20
53.018643
11
71.262581
21
45.669387
0
LINE
8
Calque 1
10
71.262581
20
45.669387
11
65.782561
21
41.446232
0
LINE
8
Calque 1
10
65.782561
20
41.446232
11
63.270603
21
39.380378
0
LINE
8
Calque 1
10
63.270603
20
39.380378
11
60.300216
21
37.218064
0
LINE
8
Calque 1
10
60.300216
20
37.218064
11
52.506897
21
31.663911
0
LINE
8
Calque 1
10
52.506897
20
31.663911
11
48.495290
21
28.846013
0
LINE
8
Calque 1
10
48.495290
20
28.846013
11
45.163687
21
26.737587
0
LINE
8
Calque 1
10
45.163687
20
26.737587
11
39.014428
21
22.648926
0
LINE
8
Calque 1
10
39.014428
20
22.648926
11
28.228840
21
15.070112
0
LINE
8
Calque 1
10
28.228840
20
15.070112
11
17.459042
21
7.471811
0
LINE
8
Calque 1
10
17.459042
20
7.471811
11
14.903710
21
5.802909
0
LINE
8
Calque 1
10
14.903710
20
5.802909
11
13.558427
21
5.103799
0
LINE
8
Calque 1
10
13.558427
20
5.103799
11
12.443263
21
5.328060
0
LINE
8
Calque 1
10
12.443263
20
5.328060
11
17.834954
21
9.264710
0
LINE
8
Calque 1
10
17.834954
20
9.264710
11
27.993084
21
16.439316
0
LINE
8
Calque 1
10
27.993084
20
16.439316
11
38.212113
21
23.551751
0
LINE
8
Calque 1
10
38.212113
20
23.551751
11
43.786506
21
27.301890
0
LINE
8
Calque 1
10
43.786506
20
27.301890
11
48.920184
21
30.573425
0
LINE
8
Calque 1
10
48.920184
20
30.573425
11
54.604961
21
34.820280
0
LINE
8
Calque 1
10
54.604961
20
34.820280
11
57.286615
21
36.809858
0
LINE
8
Calque 1
10
57.286615
20
36.809858
11
59.945728
21
38.591117
0
LINE
8
Calque 1
10
59.945728
20
38.591117
11
62.532661
21
40.394111
0
LINE
8
Calque 1
10
62.532661
20
40.394111
11
65.041014
21
42.435826
0
LINE
8
Calque 1
10
65.041014
20
42.435826
11
70.483502
21
46.590921
0
LINE
8
Calque 1
10
70.483502
20
46.590921
11
80.501813
21
53.935483
0
LINE
8
Calque 1
10
80.501813
20
53.935483
11
90.229566
21
60.934535
0
LINE
8
Calque 1
10
90.229566
20
60.934535
11
94.800384
21
64.053103
0
LINE
8
Calque 1
10
94.800384
20
64.053103
11
94.800384
21
64.053103
0
LINE
8
Calque 1
10
94.738392
20
60.452817
11
94.873154
21
60.389925
0
LINE
8
Calque 1
10
94.873154
20
60.389925
11
94.904788
21
60.221307
0
LINE
8
Calque 1
10
94.904788
20
60.221307
11
94.821192
21
59.921299
0
LINE
8
Calque 1
10
94.821192
20
59.921299
11
94.513860
21
59.515232
0
LINE
8
Calque 1
10
94.513860
20
59.515232
11
92.832773
21
58.078743
0
LINE
8
Calque 1
10
92.832773
20
58.078743
11
82.438378
21
50.565059
0
LINE
8
Calque 1
10
82.438378
20
50.565059
11
72.881472
21
43.650698
0
LINE
8
Calque 1
10
72.881472
20
43.650698
11
67.390723
21
39.443260
0
LINE
8
Calque 1
10
67.390723
20
39.443260
11
63.022584
21
36.019663
0
LINE
8
Calque 1
10
63.022584
20
36.019663
11
56.364683
21
31.158184
0
LINE
8
Calque 1
10
56.364683
20
31.158184
11
49.749991
21
26.527342
0
LINE
8
Calque 1
10
49.749991
20
26.527342
11
45.511481
21
23.795662
0
LINE
8
Calque 1
10
45.511481
20
23.795662
11
40.296736
21
20.352525
0
LINE
8
Calque 1
10
40.296736
20
20.352525
11
30.941319
21
13.790588
0
LINE
8
Calque 1
10
30.941319
20
13.790588
11
20.696592
21
6.612071
0
LINE
8
Calque 1
10
20.696592
20
6.612071
11
18.592790
21
5.334360
0
LINE
8
Calque 1
10
18.592790
20
5.334360
11
17.603663
21
5.006644
0
LINE
8
Calque 1
10
17.603663
20
5.006644
11
16.945682
21
5.079180
0
LINE
8
Calque 1
10
16.945682
20
5.079180
11
16.819299
21
5.159900
0
LINE
8
Calque 1
10
16.819299
20
5.159900
11
16.854338
21
5.261411
0
LINE
8
Calque 1
10
16.854338
20
5.261411
11
21.621654
21
8.762220
0
LINE
8
Calque 1
10
21.621654
20
8.762220
11
30.824840
21
15.260932
0
LINE
8
Calque 1
10
30.824840
20
15.260932
11
40.125800
21
21.719783
0
LINE
8
Calque 1
10
40.125800
20
21.719783
11
45.186441
21
25.101009
0
LINE
8
Calque 1
10
45.186441
20
25.101009
11
49.629242
21
27.982468
0
LINE
8
Calque 1
10
49.629242
20
27.982468
11
56.374065
21
32.708131
0
LINE
8
Calque 1
10
56.374065
20
32.708131
11
62.954320
21
37.513709
0
LINE
8
Calque 1
10
62.954320
20
37.513709
11
66.903414
21
40.634915
0
LINE
8
Calque 1
10
66.903414
20
40.634915
11
72.029170
21
44.575250
0
LINE
8
Calque 1
10
72.029170
20
44.575250
11
81.814650
21
51.679191
0
LINE
8
Calque 1
10
81.814650
20
51.679191
11
91.742843
21
58.696270
0
LINE
8
Calque 1
10
91.742843
20
58.696270
11
93.853796
21
60.066740
0
LINE
8
Calque 1
10
93.853796
20
60.066740
11
94.738392
21
60.452817
0
LINE
8
Calque 1
10
94.738392
20
60.452817
11
94.738392
21
60.452817
0
LINE
8
Calque 1
10
94.754002
20
57.640564
11
94.880989
21
57.494603
0
LINE
8
Calque 1
10
94.880989
20
57.494603
11
94.918838
21
57.057158
0
LINE
8
Calque 1
10
94.918838
20
57.057158
11
94.831088
21
56.766587
0
LINE
8
Calque 1
10
94.831088
20
56.766587
11
94.507301
21
56.356208
0
LINE
8
Calque 1
10
94.507301
20
56.356208
11
92.788396
21
54.893908
0
LINE
8
Calque 1
10
92.788396
20
54.893908
11
82.522701
21
47.428295
0
LINE
8
Calque 1
10
82.522701
20
47.428295
11
73.204918
21
40.661701
0
LINE
8
Calque 1
10
73.204918
20
40.661701
11
68.210427
21
36.826878
0
LINE
8
Calque 1
10
68.210427
20
36.826878
11
64.262796
21
33.606449
0
LINE
8
Calque 1
10
64.262796
20
33.606449
11
57.752149
21
29.029961
0
LINE
8
Calque 1
10
57.752149
20
29.029961
11
51.185649
21
24.324828
0
LINE
8
Calque 1
10
51.185649
20
24.324828
11
48.561161
21
22.470085
0
LINE
8
Calque 1
10
48.561161
20
22.470085
11
45.790643
21
20.755021
0
LINE
8
Calque 1
10
45.790643
20
20.755021
11
40.854913
21
17.538278
0
LINE
8
Calque 1
10
40.854913
20
17.538278
11
33.025016
21
12.072863
0
LINE
8
Calque 1
10
33.025016
20
12.072863
11
24.767757
21
6.309395
0
LINE
8
Calque 1
10
24.767757
20
6.309395
11
23.003917
21
5.274027
0
LINE
8
Calque 1
10
23.003917
20
5.274027
11
22.100119
21
5.006142
0
LINE
8
Calque 1
10
22.100119
20
5.006142
11
21.439525
21
5.079077
0
LINE
8
Calque 1
10
21.439525
20
5.079077
11
21.314073
21
5.160569
0
LINE
8
Calque 1
10
21.314073
20
5.160569
11
21.350291
21
5.263475
0
LINE
8
Calque 1
10
21.350291
20
5.263475
11
25.407877
21
8.252463
0
LINE
8
Calque 1
10
25.407877
20
8.252463
11
33.144912
21
13.697984
0
LINE
8
Calque 1
10
33.144912
20
13.697984
11
41.025992
21
19.136323
0
LINE
8
Calque 1
10
41.025992
20
19.136323
11
45.515715
21
22.103760
0
LINE
8
Calque 1
10
45.515715
20
22.103760
11
48.644147
21
24.061046
0
LINE
8
Calque 1
10
48.644147
20
24.061046
11
52.244484
21
26.556215
0
LINE
8
Calque 1
10
52.244484
20
26.556215
11
60.999509
21
32.815773
0
LINE
8
Calque 1
10
60.999509
20
32.815773
11
65.005960
21
35.757020
0
LINE
8
Calque 1
10
65.005960
20
35.757020
11
67.871417
21
38.080551
0
LINE
8
Calque 1
10
67.871417
20
38.080551
11
72.882159
21
41.950458
0
LINE
8
Calque 1
10
72.882159
20
41.950458
11
82.046769
21
48.609103
0
LINE
8
Calque 1
10
82.046769
20
48.609103
11
94.544188
21
57.542906
0
LINE
8
Calque 1
10
94.544188
20
57.542906
11
94.754002
21
57.640564
0
LINE
8
Calque 1
10
94.754002
20
57.640564
11
94.754002
21
57.640564
0
LINE
8
Calque 1
10
94.868699
20
54.316740
11
94.952804
21
54.150526
0
LINE
8
Calque 1
10
94.952804
20
54.150526
11
94.918838
21
53.799983
0
LINE
8
Calque 1
10
94.918838
20
53.799983
11
94.478042
21
53.109799
0
LINE
8
Calque 1
10
94.478042
20
53.109799
11
92.752402
21
51.654923
0
LINE
8
Calque 1
10
92.752402
20
51.654923
11
83.027075
21
44.574212
0
LINE
8
Calque 1
10
83.027075
20
44.574212
11
74.010675
21
38.007841
0
LINE
8
Calque 1
10
74.010675
20
38.007841
11
69.032593
21
34.150039
0
LINE
8
Calque 1
10
69.032593
20
34.150039
11
67.260769
21
32.642575
0
LINE
8
Calque 1
10
67.260769
20
32.642575
11
65.080936
21
31.014945
0
LINE
8
Calque 1
10
65.080936
20
31.014945
11
59.005823
21
27.051277
0
LINE
8
Calque 1
10
59.005823
20
27.051277
11
56.453067
21
25.317914
0
LINE
8
Calque 1
10
56.453067
20
25.317914
11
54.237138
21
23.572407
0
LINE
8
Calque 1
10
54.237138
20
23.572407
11
52.123676
21
21.805155
0
LINE
8
Calque 1
10
52.123676
20
21.805155
11
49.867900
21
20.114443
0
LINE
8
Calque 1
10
49.867900
20
20.114443
11
47.594552
21
18.588855
0
LINE
8
Calque 1
10
47.594552
20
18.588855
11
45.428376
21
17.316977
0
LINE
8
Calque 1
10
45.428376
20
17.316977
11
41.537058
21
14.820732
0
LINE
8
Calque 1
10
41.537058
20
14.820732
11
35.387663
21
10.546351
0
LINE
8
Calque 1
10
35.387663
20
10.546351
11
28.890066
21
6.044157
0
LINE
8
Calque 1
10
28.890066
20
6.044157
11
27.424081
21
5.222266
0
LINE
8
Calque 1
10
27.424081
20
5.222266
11
26.595966
21
5.006142
0
LINE
8
Calque 1
10
26.595966
20
5.006142
11
25.935203
21
5.079008
0
LINE
8
Calque 1
10
25.935203
20
5.079008
11
25.809835
21
5.160491
0
LINE
8
Calque 1
10
25.809835
20
5.160491
11
25.846138
21
5.263475
0
LINE
8
Calque 1
10
25.846138
20
5.263475
11
29.179781
21
7.730220
0
LINE
8
Calque 1
10
29.179781
20
7.730220
11
35.379864
21
12.081475
0
LINE
8
Calque 1
10
35.379864
20
12.081475
11
45.328125
21
18.773745
0
LINE
8
Calque 1
10
45.328125
20
18.773745
11
49.583215
21
21.431901
0
LINE
8
Calque 1
10
49.583215
20
21.431901
11
53.705908
21
24.632803
0
LINE
8
Calque 1
10
53.705908
20
24.632803
11
55.856419
21
26.280890
0
LINE
8
Calque 1
10
55.856419
20
26.280890
11
58.501475
21
28.061534
0
LINE
8
Calque 1
10
58.501475
20
28.061534
11
64.569706
21
32.149616
0
LINE
8
Calque 1
10
64.569706
20
32.149616
11
67.123256
21
34.087566
0
LINE
8
Calque 1
10
67.123256
20
34.087566
11
69.142156
21
35.799052
0
LINE
8
Calque 1
10
69.142156
20
35.799052
11
73.801198
21
39.409161
0
LINE
8
Calque 1
10
73.801198
20
39.409161
11
82.266902
21
45.576214
0
LINE
8
Calque 1
10
82.266902
20
45.576214
11
92.192614
21
52.653647
0
LINE
8
Calque 1
10
92.192614
20
52.653647
11
94.145827
21
53.972778
0
LINE
8
Calque 1
10
94.145827
20
53.972778
11
94.868699
21
54.316740
0
LINE
8
Calque 1
10
94.868699
20
54.316740
11
94.868699
21
54.316740
0
LINE
8
Calque 1
10
94.752944
20
51.164498
11
94.912117
21
50.490129
0
LINE
8
Calque 1
10
94.912117
20
50.490129
11
94.426854
21
49.813084
0
LINE
8
Calque 1
10
94.426854
20
49.813084
11
92.692557
21
48.373286
0
LINE
8
Calque 1
10
92.692557
20
48.373286
11
83.751054
21
41.873084
0
LINE
8
Calque 1
10
83.751054
20
41.873084
11
75.242018
21
35.691010
0
LINE
8
Calque 1
10
75.242018
20
35.691010
11
70.446974
21
31.981701
0
LINE
8
Calque 1
10
70.446974
20
31.981701
11
67.797916
21
29.908697
0
LINE
8
Calque 1
10
67.797916
20
29.908697
11
64.448375
21
27.660532
0
LINE
8
Calque 1
10
64.448375
20
27.660532
11
58.626947
21
23.881288
0
LINE
8
Calque 1
10
58.626947
20
23.881288
11
56.495077
21
22.273340
0
LINE
8
Calque 1
10
56.495077
20
22.273340
11
54.359084
21
20.480622
0
LINE
8
Calque 1
10
54.359084
20
20.480622
11
49.932862
21
16.942572
0
LINE
8
Calque 1
10
49.932862
20
16.942572
11
47.850831
21
15.551233
0
LINE
8
Calque 1
10
47.850831
20
15.551233
11
45.730159
21
14.321818
0
LINE
8
Calque 1
10
45.730159
20
14.321818
11
42.455925
21
12.265400
0
LINE
8
Calque 1
10
42.455925
20
12.265400
11
37.787510
21
9.048758
0
LINE
8
Calque 1
10
37.787510
20
9.048758
11
33.016450
21
5.783745
0
LINE
8
Calque 1
10
33.016450
20
5.783745
11
31.843039
21
5.171411
0
LINE
8
Calque 1
10
31.843039
20
5.171411
11
31.091814
21
5.006142
0
LINE
8
Calque 1
10
31.091814
20
5.006142
11
30.434940
21
5.078723
0
LINE
8
Calque 1
10
30.434940
20
5.078723
11
30.307773
21
5.159152
0
LINE
8
Calque 1
10
30.307773
20
5.159152
11
30.341985
21
5.259850
0
LINE
8
Calque 1
10
30.341985
20
5.259850
11
37.451622
21
10.350163
0
LINE
8
Calque 1
10
37.451622
20
10.350163
11
45.435096
21
15.630260
0
LINE
8
Calque 1
10
45.435096
20
15.630260
11
50.013523
21
18.529726
0
LINE
8
Calque 1
10
50.013523
20
18.529726
11
54.605067
21
22.217980
0
LINE
8
Calque 1
10
54.605067
20
22.217980
11
57.170510
21
24.259274
0
LINE
8
Calque 1
10
57.170510
20
24.259274
11
59.550493
21
25.915422
0
LINE
8
Calque 1
10
59.550493
20
25.915422
11
65.995368
21
30.046102
0
LINE
8
Calque 1
10
65.995368
20
30.046102
11
68.065189
21
31.561891
0
LINE
8
Calque 1
10
68.065189
20
31.561891
11
69.737468
21
32.968199
0
LINE
8
Calque 1
10
69.737468
20
32.968199
11
74.394279
21
36.547154
0
LINE
8
Calque 1
10
74.394279
20
36.547154
11
82.793151
21
42.720378
0
LINE
8
Calque 1
10
82.793151
20
42.720378
11
90.918050
21
48.566587
0
LINE
8
Calque 1
10
90.918050
20
48.566587
11
94.752944
21
51.164498
0
LINE
8
Calque 1
10
94.752944
20
51.164498
11
94.752944
21
51.164498
0
LINE
8
Calque 1
10
94.728073
20
47.523889
11
94.944310
21
47.359762
0
LINE
8
Calque 1
10
94.944310
20
47.359762
11
94.823164
21
46.852615
0
LINE
8
Calque 1
10
94.823164
20
46.852615
11
91.671607
21
44.406648
0
LINE
8
Calque 1
10
91.671607
20
44.406648
11
84.299270
21
39.059826
0
LINE
8
Calque 1
10
84.299270
20
39.059826
11
76.457195
21
33.367217
0
LINE
8
Calque 1
10
76.457195
20
33.367217
11
72.175997
21
30.089827
0
LINE
8
Calque 1
10
72.175997
20
30.089827
11
70.159557
21
28.515820
0
LINE
8
Calque 1
10
70.159557
20
28.515820
11
67.762832
21
26.918456
0
LINE
8
Calque 1
10
67.762832
20
26.918456
11
64.488420
21
24.810756
0
LINE
8
Calque 1
10
64.488420
20
24.810756
11
60.804752
21
22.244078
0
LINE
8
Calque 1
10
60.804752
20
22.244078
11
57.254341
21
19.608537
0
LINE
8
Calque 1
10
57.254341
20
19.608537
11
54.379695
21
17.294249
0
LINE
8
Calque 1
10
54.379695
20
17.294249
11
51.423331
21
15.017066
0
LINE
8
Calque 1
10
51.423331
20
15.017066
11
48.126329
21
12.815468
0
LINE
8
Calque 1
10
48.126329
20
12.815468
11
40.604313
21
7.839032
0
LINE
8
Calque 1
10
40.604313
20
7.839032
11
37.215713
21
5.580102
0
LINE
8
Calque 1
10
37.215713
20
5.580102
11
36.272438
21
5.134650
0
LINE
8
Calque 1
10
36.272438
20
5.134650
11
35.587052
21
5.008205
0
LINE
8
Calque 1
10
35.587052
20
5.008205
11
34.928915
21
5.079891
0
LINE
8
Calque 1
10
34.928915
20
5.079891
11
34.802618
21
5.160066
0
LINE
8
Calque 1
10
34.802618
20
5.160066
11
34.837753
21
5.261411
0
LINE
8
Calque 1
10
34.837753
20
5.261411
11
40.091419
21
9.010381
0
LINE
8
Calque 1
10
40.091419
20
9.010381
11
46.553806
21
13.213374
0
LINE
8
Calque 1
10
46.553806
20
13.213374
11
50.975044
21
16.039722
0
LINE
8
Calque 1
10
50.975044
20
16.039722
11
55.058721
21
19.381968
0
LINE
8
Calque 1
10
55.058721
20
19.381968
11
57.252520
21
21.186021
0
LINE
8
Calque 1
10
57.252520
20
21.186021
11
59.888789
21
23.134959
0
LINE
8
Calque 1
10
59.888789
20
23.134959
11
66.215630
21
27.274505
0
LINE
8
Calque 1
10
66.215630
20
27.274505
11
69.083879
21
29.197581
0
LINE
8
Calque 1
10
69.083879
20
29.197581
11
71.460777
21
31.064974
0
LINE
8
Calque 1
10
71.460777
20
31.064974
11
76.017987
21
34.589081
0
LINE
8
Calque 1
10
76.017987
20
34.589081
11
84.128217
21
40.494871
0
LINE
8
Calque 1
10
84.128217
20
40.494871
11
91.854983
21
45.917057
0
LINE
8
Calque 1
10
91.854983
20
45.917057
11
93.779184
21
47.126592
0
LINE
8
Calque 1
10
93.779184
20
47.126592
11
94.728073
21
47.523889
0
LINE
8
Calque 1
10
94.728073
20
47.523889
11
94.728073
21
47.523889
0
LINE
8
Calque 1
10
94.712463
20
44.735951
11
94.868808
21
44.596754
0
LINE
8
Calque 1
10
94.868808
20
44.596754
11
94.918652
21
44.169585
0
LINE
8
Calque 1
10
94.918652
20
44.169585
11
94.571114
21
43.543872
0
LINE
8
Calque 1
10
94.571114
20
43.543872
11
93.211355
21
42.351473
0
LINE
8
Calque 1
10
93.211355
20
42.351473
11
85.552308
21
36.761764
0
LINE
8
Calque 1
10
85.552308
20
36.761764
11
74.227944
21
28.528179
0
LINE
8
Calque 1
10
74.227944
20
28.528179
11
70.179613
21
25.626550
0
LINE
8
Calque 1
10
70.179613
20
25.626550
11
62.840421
21
20.527626
0
LINE
8
Calque 1
10
62.840421
20
20.527626
11
55.504067
21
15.065958
0
LINE
8
Calque 1
10
55.504067
20
15.065958
11
52.938611
21
13.138977
0
LINE
8
Calque 1
10
52.938611
20
13.138977
11
50.558614
21
11.529753
0
LINE
8
Calque 1
10
50.558614
20
11.529753
11
44.714557
21
7.576513
0
LINE
8
Calque 1
10
44.714557
20
7.576513
11
41.638195
21
5.527602
0
LINE
8
Calque 1
10
41.638195
20
5.527602
11
40.752635
21
5.121365
0
LINE
8
Calque 1
10
40.752635
20
5.121365
11
40.083826
21
5.006142
0
LINE
8
Calque 1
10
40.083826
20
5.006142
11
39.425672
21
5.079028
0
LINE
8
Calque 1
10
39.425672
20
5.079028
11
39.299112
21
5.159933
0
LINE
8
Calque 1
10
39.299112
20
5.159933
11
39.333997
21
5.261411
0
LINE
8
Calque 1
10
39.333997
20
5.261411
11
43.443180
21
8.195362
0
LINE
8
Calque 1
10
43.443180
20
8.195362
11
49.487899
21
12.189147
0
LINE
8
Calque 1
10
49.487899
20
12.189147
11
52.701624
21
14.352156
0
LINE
8
Calque 1
10
52.701624
20
14.352156
11
54.986781
21
16.118628
0
LINE
8
Calque 1
10
54.986781
20
16.118628
11
57.384554
21
18.056696
0
LINE
8
Calque 1
10
57.384554
20
18.056696
11
61.078020
21
20.794633
0
LINE
8
Calque 1
10
61.078020
20
20.794633
11
68.510994
21
25.893726
0
LINE
8
Calque 1
10
68.510994
20
25.893726
11
70.948802
21
27.540838
0
LINE
8
Calque 1
10
70.948802
20
27.540838
11
73.188213
21
29.240278
0
LINE
8
Calque 1
10
73.188213
20
29.240278
11
83.887797
21
37.103608
0
LINE
8
Calque 1
10
83.887797
20
37.103608
11
94.544003
21
44.675494
0
LINE
8
Calque 1
10
94.544003
20
44.675494
11
94.712463
21
44.735951
0
LINE
8
Calque 1
10
94.712463
20
44.735951
11
94.712463
21
44.735951
0
LINE
8
Calque 1
10
94.798241
20
41.572835
11
94.863355
21
40.841104
0
LINE
8
Calque 1
10
94.863355
20
40.841104
11
93.996236
21
39.891949
0
LINE
8
Calque 1
10
93.996236
20
39.891949
11
91.014290
21
37.557464
0
LINE
8
Calque 1
10
91.014290
20
37.557464
11
75.735856
21
26.507109
0
LINE
8
Calque 1
10
75.735856
20
26.507109
11
55.204321
21
11.807777
0
LINE
8
Calque 1
10
55.204321
20
11.807777
11
47.701928
21
6.531965
0
LINE
8
Calque 1
10
47.701928
20
6.531965
11
45.697159
21
5.367665
0
LINE
8
Calque 1
10
45.697159
20
5.367665
11
44.579144
21
5.008205
0
LINE
8
Calque 1
10
44.579144
20
5.008205
11
43.926107
21
5.079517
0
LINE
8
Calque 1
10
43.926107
20
5.079517
11
43.797447
21
5.158336
0
LINE
8
Calque 1
10
43.797447
20
5.158336
11
43.829845
21
5.256755
0
LINE
8
Calque 1
10
43.829845
20
5.256755
11
52.057238
21
11.001619
0
LINE
8
Calque 1
10
52.057238
20
11.001619
11
56.253366
21
14.006594
0
LINE
8
Calque 1
10
56.253366
20
14.006594
11
64.646124
21
20.106476
0
LINE
8
Calque 1
10
64.646124
20
20.106476
11
74.087398
21
26.846119
0
LINE
8
Calque 1
10
74.087398
20
26.846119
11
94.798241
21
41.572835
0
LINE
8
Calque 1
10
94.798241
20
41.572835
11
94.798241
21
41.572835
0
LINE
8
Calque 1
10
94.783160
20
37.902778
11
94.903042
21
37.742070
0
LINE
8
Calque 1
10
94.903042
20
37.742070
11
94.762435
21
37.399707
0
LINE
8
Calque 1
10
94.762435
20
37.399707
11
94.229329
21
36.831066
0
LINE
8
Calque 1
10
94.229329
20
36.831066
11
91.258372
21
34.470230
0
LINE
8
Calque 1
10
91.258372
20
34.470230
11
72.606765
21
21.041300
0
LINE
8
Calque 1
10
72.606765
20
21.041300
11
54.159582
21
8.021932
0
LINE
8
Calque 1
10
54.159582
20
8.021932
11
50.583839
21
5.694588
0
LINE
8
Calque 1
10
50.583839
20
5.694588
11
49.167913
21
5.060910
0
LINE
8
Calque 1
10
49.167913
20
5.060910
11
48.400195
21
5.065114
0
LINE
8
Calque 1
10
48.400195
20
5.065114
11
48.264806
21
5.133066
0
LINE
8
Calque 1
10
48.264806
20
5.133066
11
48.310082
21
5.241779
0
LINE
8
Calque 1
10
48.310082
20
5.241779
11
71.763909
21
22.036582
0
LINE
8
Calque 1
10
71.763909
20
22.036582
11
89.993691
21
34.954093
0
LINE
8
Calque 1
10
89.993691
20
34.954093
11
93.523544
21
37.304550
0
LINE
8
Calque 1
10
93.523544
20
37.304550
11
94.783160
21
37.902275
0
LINE
8
Calque 1
10
94.783160
20
37.902275
11
94.783160
21
37.902778
0
LINE
8
Calque 1
10
94.752653
20
35.160851
11
94.752653
21
35.160851
0
LINE
8
Calque 1
10
94.752653
20
35.160851
11
94.879378
21
35.015384
0
LINE
8
Calque 1
10
94.879378
20
35.015384
11
94.916986
21
34.578451
0
LINE
8
Calque 1
10
94.916986
20
34.578451
11
94.779749
21
34.251453
0
LINE
8
Calque 1
10
94.779749
20
34.251453
11
94.267827
21
33.705811
0
LINE
8
Calque 1
10
94.267827
20
33.705811
11
91.518645
21
31.505214
0
LINE
8
Calque 1
10
91.518645
20
31.505214
11
74.909960
21
19.493093
0
LINE
8
Calque 1
10
74.909960
20
19.493093
11
58.298259
21
7.743623
0
LINE
8
Calque 1
10
58.298259
20
7.743623
11
55.051465
21
5.645621
0
LINE
8
Calque 1
10
55.051465
20
5.645621
11
53.704056
21
5.062974
0
LINE
8
Calque 1
10
53.704056
20
5.062974
11
52.894171
21
5.049841
0
LINE
8
Calque 1
10
52.894171
20
5.049841
11
52.756219
21
5.116906
0
LINE
8
Calque 1
10
52.756219
20
5.116906
11
52.804871
21
5.231434
0
LINE
8
Calque 1
10
52.804871
20
5.231434
11
73.636152
21
20.145237
0
LINE
8
Calque 1
10
73.636152
20
20.145237
11
94.542336
21
35.062665
0
LINE
8
Calque 1
10
94.542336
20
35.062665
11
94.752124
21
35.160851
0
LINE
8
Calque 1
10
94.752124
20
35.160851
11
94.752653
21
35.160851
0
LINE
8
Calque 1
10
94.748420
20
31.880948
11
94.881313
21
31.738593
0
LINE
8
Calque 1
10
94.881313
20
31.738593
11
94.865736
21
31.261851
0
LINE
8
Calque 1
10
94.865736
20
31.261851
11
94.685812
21
30.930607
0
LINE
8
Calque 1
10
94.685812
20
30.930607
11
94.135000
21
30.375598
0
LINE
8
Calque 1
10
94.135000
20
30.375598
11
91.484540
21
28.265415
0
LINE
8
Calque 1
10
91.484540
20
28.265415
11
76.935078
21
17.742294
0
LINE
8
Calque 1
10
76.935078
20
17.742294
11
62.119819
21
7.294199
0
LINE
8
Calque 1
10
62.119819
20
7.294199
11
59.245866
21
5.466159
0
LINE
8
Calque 1
10
59.245866
20
5.466159
11
58.067003
21
5.006142
0
LINE
8
Calque 1
10
58.067003
20
5.006142
11
57.407732
21
5.078962
0
LINE
8
Calque 1
10
57.407732
20
5.078962
11
57.281381
21
5.160000
0
LINE
8
Calque 1
10
57.281381
20
5.160000
11
57.316646
21
5.261914
0
LINE
8
Calque 1
10
57.316646
20
5.261914
11
94.566016
21
31.810649
0
LINE
8
Calque 1
10
94.566016
20
31.810649
11
94.748420
21
31.880948
0
LINE
8
Calque 1
10
94.748420
20
31.880948
11
94.748420
21
31.880948
0
LINE
8
Calque 1
10
94.751066
20
28.684759
11
94.911271
21
28.010390
0
LINE
8
Calque 1
10
94.911271
20
28.010390
11
94.246395
21
27.203228
0
LINE
8
Calque 1
10
94.246395
20
27.203228
11
91.846788
21
25.286587
0
LINE
8
Calque 1
10
91.846788
20
25.286587
11
79.358738
21
16.245733
0
LINE
8
Calque 1
10
79.358738
20
16.245733
11
66.459893
21
7.178160
0
LINE
8
Calque 1
10
66.459893
20
7.178160
11
63.834831
21
5.527863
0
LINE
8
Calque 1
10
63.834831
20
5.527863
11
62.655904
21
5.060910
0
LINE
8
Calque 1
10
62.655904
20
5.060910
11
61.888759
21
5.065233
0
LINE
8
Calque 1
10
61.888759
20
5.065233
11
61.753412
21
5.133185
0
LINE
8
Calque 1
10
61.753412
20
5.133185
11
61.798602
21
5.241779
0
LINE
8
Calque 1
10
61.798602
20
5.241779
11
94.751066
21
28.684759
0
LINE
8
Calque 1
10
94.751066
20
28.684759
11
94.751066
21
28.684759
0
LINE
8
Calque 1
10
94.720586
20
25.097384
11
94.720586
21
25.097384
0
LINE
8
Calque 1
10
94.720586
20
25.097384
11
94.868911
21
25.013141
0
LINE
8
Calque 1
10
94.868911
20
25.013141
11
94.822424
21
24.472389
0
LINE
8
Calque 1
10
94.822424
20
24.472389
11
94.569165
21
24.016827
0
LINE
8
Calque 1
10
94.569165
20
24.016827
11
81.130730
21
14.314066
0
LINE
8
Calque 1
10
81.130730
20
14.314066
11
70.198699
21
6.643868
0
LINE
8
Calque 1
10
70.198699
20
6.643868
11
68.041554
21
5.335749
0
LINE
8
Calque 1
10
68.041554
20
5.335749
11
67.043246
21
5.021620
0
LINE
8
Calque 1
10
67.043246
20
5.021620
11
66.235004
21
5.097522
0
LINE
8
Calque 1
10
66.235004
20
5.097522
11
66.593137
21
5.463976
0
LINE
8
Calque 1
10
66.593137
20
5.463976
11
80.979838
21
15.752233
0
LINE
8
Calque 1
10
80.979838
20
15.752233
11
91.383344
21
23.101400
0
LINE
8
Calque 1
10
91.383344
20
23.101400
11
93.714758
21
24.621645
0
LINE
8
Calque 1
10
93.714758
20
24.621645
11
94.720083
21
25.097384
0
LINE
8
Calque 1
10
94.720083
20
25.097384
11
94.720586
21
25.097384
0
LINE
8
Calque 1
10
94.711854
20
22.256212
11
94.868196
21
22.116936
0
LINE
8
Calque 1
10
94.868196
20
22.116936
11
94.918017
21
21.689846
0
LINE
8
Calque 1
10
94.918017
20
21.689846
11
94.512322
21
21.020870
0
LINE
8
Calque 1
10
94.512322
20
21.020870
11
92.918263
21
19.656026
0
LINE
8
Calque 1
10
92.918263
20
19.656026
11
83.903216
21
13.068171
0
LINE
8
Calque 1
10
83.903216
20
13.068171
11
74.712819
21
6.625697
0
LINE
8
Calque 1
10
74.712819
20
6.625697
11
72.723663
21
5.426753
0
LINE
8
Calque 1
10
72.723663
20
5.426753
11
71.688979
21
5.062974
0
LINE
8
Calque 1
10
71.688979
20
5.062974
11
70.879931
21
5.049996
0
LINE
8
Calque 1
10
70.879931
20
5.049996
11
70.741593
21
5.116924
0
LINE
8
Calque 1
10
70.741593
20
5.116924
11
70.789821
21
5.230931
0
LINE
8
Calque 1
10
70.789821
20
5.230931
11
94.543368
21
22.195755
0
LINE
8
Calque 1
10
94.543368
20
22.195755
11
94.711854
21
22.256212
0
LINE
8
Calque 1
10
94.711854
20
22.256212
11
94.711854
21
22.256212
0
LINE
8
Calque 1
10
94.798135
20
19.093625
11
94.863249
21
18.361366
0
LINE
8
Calque 1
10
94.863249
20
18.361366
11
94.417359
21
17.717867
0
LINE
8
Calque 1
10
94.417359
20
17.717867
11
92.985688
21
16.492116
0
LINE
8
Calque 1
10
92.985688
20
16.492116
11
85.926852
21
11.317875
0
LINE
8
Calque 1
10
85.926852
20
11.317875
11
78.535412
21
6.178817
0
LINE
8
Calque 1
10
78.535412
20
6.178817
11
76.917475
21
5.248653
0
LINE
8
Calque 1
10
76.917475
20
5.248653
11
76.050471
21
5.006142
0
LINE
8
Calque 1
10
76.050471
20
5.006142
11
75.392625
21
5.078852
0
LINE
8
Calque 1
10
75.392625
20
5.078852
11
75.265903
21
5.159587
0
LINE
8
Calque 1
10
75.265903
20
5.159587
11
75.300643
21
5.260882
0
LINE
8
Calque 1
10
75.300643
20
5.260882
11
94.798135
21
19.093625
0
LINE
8
Calque 1
10
94.798135
20
19.093625
11
94.798135
21
19.093625
0
LINE
8
Calque 1
10
94.730957
20
15.587901
11
94.875208
21
15.496970
0
LINE
8
Calque 1
10
94.875208
20
15.496970
11
94.904603
21
15.265427
0
LINE
8
Calque 1
10
94.904603
20
15.265427
11
94.683943
21
14.682792
0
LINE
8
Calque 1
10
94.683943
20
14.682792
11
93.778111
21
13.795837
0
LINE
8
Calque 1
10
93.778111
20
13.795837
11
88.340669
21
9.801709
0
LINE
8
Calque 1
10
88.340669
20
9.801709
11
82.851974
21
6.051089
0
LINE
8
Calque 1
10
82.851974
20
6.051089
11
81.488936
21
5.305680
0
LINE
8
Calque 1
10
81.488936
20
5.305680
11
80.636224
21
5.060910
0
LINE
8
Calque 1
10
80.636224
20
5.060910
11
79.872978
21
5.065412
0
LINE
8
Calque 1
10
79.872978
20
5.065412
11
79.737471
21
5.133014
0
LINE
8
Calque 1
10
79.737471
20
5.133014
11
79.782018
21
5.240747
0
LINE
8
Calque 1
10
79.782018
20
5.240747
11
87.499877
21
10.799054
0
LINE
8
Calque 1
10
87.499877
20
10.799054
11
92.902841
21
14.591914
0
LINE
8
Calque 1
10
92.902841
20
14.591914
11
94.144688
21
15.367704
0
LINE
8
Calque 1
10
94.144688
20
15.367704
11
94.730957
21
15.587901
0
LINE
8
Calque 1
10
94.730957
20
15.587901
11
94.730957
21
15.587901
0
LINE
8
Calque 1
10
94.727253
20
12.675927
11
94.134534
21
10.919969
0
LINE
8
Calque 1
10
94.134534
20
10.919969
11
90.502207
21
8.169231
0
LINE
8
Calque 1
10
90.502207
20
8.169231
11
86.749798
21
5.627488
0
LINE
8
Calque 1
10
86.749798
20
5.627488
11
85.751887
21
5.140300
0
LINE
8
Calque 1
10
85.751887
20
5.140300
11
85.047246
21
5.006142
0
LINE
8
Calque 1
10
85.047246
20
5.006142
11
84.387736
21
5.078740
0
LINE
8
Calque 1
10
84.387736
20
5.078740
11
84.259273
21
5.159029
0
LINE
8
Calque 1
10
84.259273
20
5.159029
11
84.292761
21
5.259348
0
LINE
8
Calque 1
10
84.292761
20
5.259348
11
89.373072
21
8.905116
0
LINE
8
Calque 1
10
89.373072
20
8.905116
11
94.543289
21
12.585492
0
LINE
8
Calque 1
10
94.543289
20
12.585492
11
94.727253
21
12.675927
0
LINE
8
Calque 1
10
94.727253
20
12.675927
11
94.727253
21
12.675927
 0 
ENDSEC
 0 
EOF